G04 #@! TF.FileFunction,Copper,L2,Bot,Signal*
%FSLAX46Y46*%
G04 Gerber Fmt 4.6, Leading zero omitted, Abs format (unit mm)*
G04 Created by KiCad (PCBNEW 4.0.7) date 12/06/17 15:50:57*
%MOMM*%
%LPD*%
G01*
G04 APERTURE LIST*
%ADD10C,0.127000*%
%ADD11R,1.800000X1.800000*%
%ADD12C,1.800000*%
%ADD13R,1.600000X1.600000*%
%ADD14O,1.600000X1.600000*%
%ADD15R,1.700000X1.700000*%
%ADD16O,1.700000X1.700000*%
%ADD17R,1.200000X1.700000*%
%ADD18O,1.200000X1.700000*%
%ADD19O,0.900000X1.500000*%
%ADD20R,0.900000X1.500000*%
%ADD21C,1.600000*%
%ADD22C,1.524000*%
%ADD23C,0.254000*%
G04 APERTURE END LIST*
D10*
D11*
X171018000Y-95478600D03*
D12*
X173558000Y-95478600D03*
D13*
X169342000Y-99237800D03*
D14*
X176962000Y-99237800D03*
D15*
X149936000Y-104165000D03*
D16*
X147396000Y-104165000D03*
D15*
X164363000Y-104165000D03*
D16*
X161823000Y-104165000D03*
X159283000Y-104165000D03*
X156743000Y-104165000D03*
D15*
X176403000Y-104165000D03*
D16*
X173863000Y-104165000D03*
X171323000Y-104165000D03*
D17*
X137973000Y-99098100D03*
D18*
X139973000Y-99098100D03*
D19*
X157404000Y-97637600D03*
X158674000Y-97637600D03*
D20*
X156134000Y-97637600D03*
D21*
X136423000Y-94107000D03*
D14*
X136423000Y-83947000D03*
D21*
X140259000Y-94157800D03*
D14*
X140259000Y-83997800D03*
D22*
X165125000Y-92913200D03*
X165125000Y-95453200D03*
X165125000Y-97993200D03*
X162585000Y-92913200D03*
X162585000Y-95453200D03*
X162585000Y-97993200D03*
X152095000Y-92913200D03*
X152095000Y-95453200D03*
X152095000Y-97993200D03*
X149555000Y-92913200D03*
X149555000Y-95453200D03*
X149555000Y-97993200D03*
D23*
X160591700Y-104675200D02*
X160591700Y-104165000D01*
X159864500Y-105402400D02*
X160591700Y-104675200D01*
X158750000Y-105402400D02*
X159864500Y-105402400D01*
X157974300Y-104626700D02*
X158750000Y-105402400D01*
X157974300Y-104165000D02*
X157974300Y-104626700D01*
X156743000Y-104165000D02*
X157974300Y-104165000D01*
X161823000Y-104165000D02*
X160591700Y-104165000D01*
X156134000Y-97637600D02*
X155302700Y-97637600D01*
X157187100Y-95453200D02*
X156134000Y-96506300D01*
X162585000Y-95453200D02*
X157187100Y-95453200D01*
X156134000Y-97637600D02*
X156134000Y-96506300D01*
X147396000Y-104165000D02*
X147396000Y-102933700D01*
X154502600Y-96837500D02*
X155302700Y-97637600D01*
X150825000Y-96837500D02*
X154502600Y-96837500D01*
X150825000Y-96723200D02*
X150825000Y-96837500D01*
X149555000Y-95453200D02*
X150825000Y-96723200D01*
X150825000Y-99504700D02*
X147396000Y-102933700D01*
X150825000Y-96837500D02*
X150825000Y-99504700D01*
X172276600Y-96760000D02*
X173558000Y-95478600D01*
X161078000Y-96760000D02*
X172276600Y-96760000D01*
X152441600Y-105396400D02*
X161078000Y-96760000D01*
X146866600Y-105396400D02*
X152441600Y-105396400D01*
X145909800Y-104439600D02*
X146866600Y-105396400D01*
X145909800Y-103372000D02*
X145909800Y-104439600D01*
X136644800Y-94107000D02*
X145909800Y-103372000D01*
X136423000Y-94107000D02*
X136644800Y-94107000D01*
X164363000Y-104165000D02*
X164363000Y-102933700D01*
X169342000Y-99237800D02*
X168160700Y-99237800D01*
X165125000Y-99237800D02*
X168160700Y-99237800D01*
X165125000Y-97993200D02*
X165125000Y-99237800D01*
X165125000Y-102171700D02*
X164363000Y-102933700D01*
X165125000Y-99237800D02*
X165125000Y-102171700D01*
X137604300Y-84069400D02*
X137604300Y-83947000D01*
X147718100Y-94183200D02*
X137604300Y-84069400D01*
X163855000Y-94183200D02*
X147718100Y-94183200D01*
X165125000Y-95453200D02*
X163855000Y-94183200D01*
X136423000Y-83947000D02*
X137604300Y-83947000D01*
G36*
X135097233Y-83369736D02*
X134988000Y-83918887D01*
X134988000Y-83975113D01*
X135097233Y-84524264D01*
X135408302Y-84989811D01*
X135873849Y-85300880D01*
X136423000Y-85410113D01*
X136972151Y-85300880D01*
X137437698Y-84989811D01*
X137441456Y-84984186D01*
X147179285Y-94722015D01*
X147426495Y-94887196D01*
X147718100Y-94945200D01*
X148253290Y-94945200D01*
X148158243Y-95174100D01*
X148157758Y-95729861D01*
X148369990Y-96243503D01*
X148762630Y-96636829D01*
X148970512Y-96723149D01*
X148764697Y-96808190D01*
X148371371Y-97200830D01*
X148158243Y-97714100D01*
X148157758Y-98269861D01*
X148369990Y-98783503D01*
X148762630Y-99176829D01*
X149275900Y-99389957D01*
X149831661Y-99390442D01*
X149882727Y-99369342D01*
X146857185Y-102394885D01*
X146692004Y-102642095D01*
X146643249Y-102887202D01*
X146533643Y-102960438D01*
X146530211Y-102955302D01*
X146448616Y-102833185D01*
X140064018Y-96448587D01*
X142557752Y-96448587D01*
X142775757Y-96976200D01*
X143179077Y-97380224D01*
X143706309Y-97599150D01*
X144277187Y-97599648D01*
X144804800Y-97381643D01*
X145208824Y-96978323D01*
X145427750Y-96451091D01*
X145428248Y-95880213D01*
X145210243Y-95352600D01*
X144806923Y-94948576D01*
X144279691Y-94729650D01*
X143708813Y-94729152D01*
X143181200Y-94947157D01*
X142777176Y-95350477D01*
X142558250Y-95877709D01*
X142557752Y-96448587D01*
X140064018Y-96448587D01*
X138057418Y-94441987D01*
X138823752Y-94441987D01*
X139041757Y-94969600D01*
X139445077Y-95373624D01*
X139972309Y-95592550D01*
X140543187Y-95593048D01*
X141070800Y-95375043D01*
X141474824Y-94971723D01*
X141693750Y-94444491D01*
X141694248Y-93873613D01*
X141476243Y-93346000D01*
X141072923Y-92941976D01*
X140545691Y-92723050D01*
X139974813Y-92722552D01*
X139447200Y-92940557D01*
X139043176Y-93343877D01*
X138824250Y-93871109D01*
X138823752Y-94441987D01*
X138057418Y-94441987D01*
X137857882Y-94242452D01*
X137858248Y-93822813D01*
X137640243Y-93295200D01*
X137236923Y-92891176D01*
X136709691Y-92672250D01*
X136138813Y-92671752D01*
X135611200Y-92889757D01*
X135207176Y-93293077D01*
X134988250Y-93820309D01*
X134987752Y-94391187D01*
X135205757Y-94918800D01*
X135609077Y-95322824D01*
X136136309Y-95541750D01*
X136707187Y-95542248D01*
X136916098Y-95455928D01*
X139283263Y-97823093D01*
X139127410Y-97927230D01*
X139111327Y-97888401D01*
X138932698Y-97709773D01*
X138699309Y-97613100D01*
X138258750Y-97613100D01*
X138100000Y-97771850D01*
X138100000Y-98971100D01*
X138120000Y-98971100D01*
X138120000Y-99225100D01*
X138100000Y-99225100D01*
X138100000Y-100424350D01*
X138258750Y-100583100D01*
X138699309Y-100583100D01*
X138932698Y-100486427D01*
X139111327Y-100307799D01*
X139127410Y-100268970D01*
X139500386Y-100518184D01*
X139973000Y-100612193D01*
X140445614Y-100518184D01*
X140846277Y-100250470D01*
X141113991Y-99849807D01*
X141146507Y-99686338D01*
X145147800Y-103687631D01*
X145147800Y-104439600D01*
X145205804Y-104731205D01*
X145363227Y-104966805D01*
X145370985Y-104978415D01*
X145815271Y-105422701D01*
X134530099Y-105422701D01*
X134530099Y-99383850D01*
X136738000Y-99383850D01*
X136738000Y-100074410D01*
X136834673Y-100307799D01*
X137013302Y-100486427D01*
X137246691Y-100583100D01*
X137687250Y-100583100D01*
X137846000Y-100424350D01*
X137846000Y-99225100D01*
X136896750Y-99225100D01*
X136738000Y-99383850D01*
X134530099Y-99383850D01*
X134530099Y-98121790D01*
X136738000Y-98121790D01*
X136738000Y-98812350D01*
X136896750Y-98971100D01*
X137846000Y-98971100D01*
X137846000Y-97771850D01*
X137687250Y-97613100D01*
X137246691Y-97613100D01*
X137013302Y-97709773D01*
X136834673Y-97888401D01*
X136738000Y-98121790D01*
X134530099Y-98121790D01*
X134530099Y-83138220D01*
X135251927Y-83138220D01*
X135097233Y-83369736D01*
X135097233Y-83369736D01*
G37*
X135097233Y-83369736D02*
X134988000Y-83918887D01*
X134988000Y-83975113D01*
X135097233Y-84524264D01*
X135408302Y-84989811D01*
X135873849Y-85300880D01*
X136423000Y-85410113D01*
X136972151Y-85300880D01*
X137437698Y-84989811D01*
X137441456Y-84984186D01*
X147179285Y-94722015D01*
X147426495Y-94887196D01*
X147718100Y-94945200D01*
X148253290Y-94945200D01*
X148158243Y-95174100D01*
X148157758Y-95729861D01*
X148369990Y-96243503D01*
X148762630Y-96636829D01*
X148970512Y-96723149D01*
X148764697Y-96808190D01*
X148371371Y-97200830D01*
X148158243Y-97714100D01*
X148157758Y-98269861D01*
X148369990Y-98783503D01*
X148762630Y-99176829D01*
X149275900Y-99389957D01*
X149831661Y-99390442D01*
X149882727Y-99369342D01*
X146857185Y-102394885D01*
X146692004Y-102642095D01*
X146643249Y-102887202D01*
X146533643Y-102960438D01*
X146530211Y-102955302D01*
X146448616Y-102833185D01*
X140064018Y-96448587D01*
X142557752Y-96448587D01*
X142775757Y-96976200D01*
X143179077Y-97380224D01*
X143706309Y-97599150D01*
X144277187Y-97599648D01*
X144804800Y-97381643D01*
X145208824Y-96978323D01*
X145427750Y-96451091D01*
X145428248Y-95880213D01*
X145210243Y-95352600D01*
X144806923Y-94948576D01*
X144279691Y-94729650D01*
X143708813Y-94729152D01*
X143181200Y-94947157D01*
X142777176Y-95350477D01*
X142558250Y-95877709D01*
X142557752Y-96448587D01*
X140064018Y-96448587D01*
X138057418Y-94441987D01*
X138823752Y-94441987D01*
X139041757Y-94969600D01*
X139445077Y-95373624D01*
X139972309Y-95592550D01*
X140543187Y-95593048D01*
X141070800Y-95375043D01*
X141474824Y-94971723D01*
X141693750Y-94444491D01*
X141694248Y-93873613D01*
X141476243Y-93346000D01*
X141072923Y-92941976D01*
X140545691Y-92723050D01*
X139974813Y-92722552D01*
X139447200Y-92940557D01*
X139043176Y-93343877D01*
X138824250Y-93871109D01*
X138823752Y-94441987D01*
X138057418Y-94441987D01*
X137857882Y-94242452D01*
X137858248Y-93822813D01*
X137640243Y-93295200D01*
X137236923Y-92891176D01*
X136709691Y-92672250D01*
X136138813Y-92671752D01*
X135611200Y-92889757D01*
X135207176Y-93293077D01*
X134988250Y-93820309D01*
X134987752Y-94391187D01*
X135205757Y-94918800D01*
X135609077Y-95322824D01*
X136136309Y-95541750D01*
X136707187Y-95542248D01*
X136916098Y-95455928D01*
X139283263Y-97823093D01*
X139127410Y-97927230D01*
X139111327Y-97888401D01*
X138932698Y-97709773D01*
X138699309Y-97613100D01*
X138258750Y-97613100D01*
X138100000Y-97771850D01*
X138100000Y-98971100D01*
X138120000Y-98971100D01*
X138120000Y-99225100D01*
X138100000Y-99225100D01*
X138100000Y-100424350D01*
X138258750Y-100583100D01*
X138699309Y-100583100D01*
X138932698Y-100486427D01*
X139111327Y-100307799D01*
X139127410Y-100268970D01*
X139500386Y-100518184D01*
X139973000Y-100612193D01*
X140445614Y-100518184D01*
X140846277Y-100250470D01*
X141113991Y-99849807D01*
X141146507Y-99686338D01*
X145147800Y-103687631D01*
X145147800Y-104439600D01*
X145205804Y-104731205D01*
X145363227Y-104966805D01*
X145370985Y-104978415D01*
X145815271Y-105422701D01*
X134530099Y-105422701D01*
X134530099Y-99383850D01*
X136738000Y-99383850D01*
X136738000Y-100074410D01*
X136834673Y-100307799D01*
X137013302Y-100486427D01*
X137246691Y-100583100D01*
X137687250Y-100583100D01*
X137846000Y-100424350D01*
X137846000Y-99225100D01*
X136896750Y-99225100D01*
X136738000Y-99383850D01*
X134530099Y-99383850D01*
X134530099Y-98121790D01*
X136738000Y-98121790D01*
X136738000Y-98812350D01*
X136896750Y-98971100D01*
X137846000Y-98971100D01*
X137846000Y-97771850D01*
X137687250Y-97613100D01*
X137246691Y-97613100D01*
X137013302Y-97709773D01*
X136834673Y-97888401D01*
X136738000Y-98121790D01*
X134530099Y-98121790D01*
X134530099Y-83138220D01*
X135251927Y-83138220D01*
X135097233Y-83369736D01*
G36*
X178562626Y-86159794D02*
X178556083Y-87174901D01*
X178529214Y-87139588D01*
X178460765Y-87079066D01*
X178400803Y-87010129D01*
X178173698Y-86834393D01*
X178091918Y-86793649D01*
X178016153Y-86742578D01*
X177751304Y-86631610D01*
X177661761Y-86613420D01*
X177575363Y-86583700D01*
X177290816Y-86545062D01*
X177273331Y-86546137D01*
X177265416Y-86545062D01*
X177187712Y-86549838D01*
X177108474Y-86544321D01*
X177099504Y-86545465D01*
X177083074Y-86544321D01*
X176798224Y-86580645D01*
X176711585Y-86609663D01*
X176621903Y-86627123D01*
X176356159Y-86735934D01*
X176279985Y-86786385D01*
X176197873Y-86826464D01*
X175969347Y-87000347D01*
X175908824Y-87068797D01*
X175839887Y-87128759D01*
X175664152Y-87355864D01*
X175623408Y-87437645D01*
X175572338Y-87513408D01*
X175461370Y-87778257D01*
X175443181Y-87867795D01*
X175413460Y-87954195D01*
X175374821Y-88238741D01*
X175380426Y-88329940D01*
X175374080Y-88421086D01*
X175410404Y-88705937D01*
X175439422Y-88792578D01*
X175456882Y-88882258D01*
X175565693Y-89148002D01*
X175616144Y-89224177D01*
X175656223Y-89306288D01*
X175830106Y-89534814D01*
X175898555Y-89595336D01*
X175958518Y-89664274D01*
X176185624Y-89840010D01*
X176267404Y-89880753D01*
X176343166Y-89931823D01*
X176608016Y-90042791D01*
X176697554Y-90060980D01*
X176783954Y-90090701D01*
X177068500Y-90129340D01*
X177085986Y-90128265D01*
X177093900Y-90129340D01*
X177171607Y-90124564D01*
X177250845Y-90130081D01*
X177259816Y-90128937D01*
X177276245Y-90130081D01*
X177561096Y-90093757D01*
X177647737Y-90064739D01*
X177737417Y-90047279D01*
X178003161Y-89938468D01*
X178079336Y-89888017D01*
X178161447Y-89847938D01*
X178389973Y-89674055D01*
X178450495Y-89605606D01*
X178519433Y-89545643D01*
X178540983Y-89517794D01*
X178502674Y-95461586D01*
X178479749Y-95427277D01*
X178439338Y-95345332D01*
X178312203Y-95179646D01*
X178243508Y-95119402D01*
X178183266Y-95050709D01*
X178017581Y-94923573D01*
X177935629Y-94883159D01*
X177859663Y-94832400D01*
X177666718Y-94752480D01*
X177577106Y-94734655D01*
X177490587Y-94705286D01*
X177283532Y-94678027D01*
X177266574Y-94679138D01*
X177258132Y-94678027D01*
X177179660Y-94683170D01*
X177101189Y-94678027D01*
X177092747Y-94679138D01*
X177075789Y-94678027D01*
X176868733Y-94705286D01*
X176782214Y-94734655D01*
X176692602Y-94752480D01*
X176499657Y-94832400D01*
X176423689Y-94883160D01*
X176341741Y-94923572D01*
X176176055Y-95050707D01*
X176115809Y-95119404D01*
X176047115Y-95179648D01*
X175919981Y-95345334D01*
X175879572Y-95427276D01*
X175828811Y-95503245D01*
X175748890Y-95696190D01*
X175731064Y-95785805D01*
X175701695Y-95872324D01*
X175674436Y-96079379D01*
X175680412Y-96170551D01*
X175674436Y-96261723D01*
X175701695Y-96468778D01*
X175731064Y-96555297D01*
X175748890Y-96644912D01*
X175828811Y-96837857D01*
X175879572Y-96913826D01*
X175919982Y-96995770D01*
X176047116Y-97161455D01*
X176115812Y-97221700D01*
X176176055Y-97290394D01*
X176341741Y-97417529D01*
X176423689Y-97457941D01*
X176499657Y-97508701D01*
X176692602Y-97588621D01*
X176782209Y-97606445D01*
X176868730Y-97635815D01*
X177075785Y-97663075D01*
X177092743Y-97661964D01*
X177101185Y-97663075D01*
X177179660Y-97657932D01*
X177258135Y-97663075D01*
X177266577Y-97661964D01*
X177283535Y-97663075D01*
X177490590Y-97635815D01*
X177577111Y-97606445D01*
X177666718Y-97588621D01*
X177859663Y-97508701D01*
X177935629Y-97457942D01*
X178017581Y-97417528D01*
X178183266Y-97290392D01*
X178243506Y-97221701D01*
X178312202Y-97161457D01*
X178439337Y-96995771D01*
X178479748Y-96913826D01*
X178493446Y-96893326D01*
X178464936Y-101316698D01*
X178465369Y-101318949D01*
X178464921Y-101321200D01*
X178464921Y-105422701D01*
X177742970Y-105422701D01*
X177849431Y-105266890D01*
X177900440Y-105015000D01*
X177900440Y-103315000D01*
X177856162Y-103079683D01*
X177717090Y-102863559D01*
X177504890Y-102718569D01*
X177253000Y-102667560D01*
X175553000Y-102667560D01*
X175317683Y-102711838D01*
X175101559Y-102850910D01*
X174956569Y-103063110D01*
X174942914Y-103130541D01*
X174913054Y-103085853D01*
X174431285Y-102763946D01*
X173863000Y-102650907D01*
X173294715Y-102763946D01*
X172812946Y-103085853D01*
X172593000Y-103415026D01*
X172373054Y-103085853D01*
X171891285Y-102763946D01*
X171323000Y-102650907D01*
X170754715Y-102763946D01*
X170272946Y-103085853D01*
X169951039Y-103567622D01*
X169838000Y-104135907D01*
X169838000Y-104194093D01*
X169951039Y-104762378D01*
X170272946Y-105244147D01*
X170540172Y-105422701D01*
X165703324Y-105422701D01*
X165751327Y-105374698D01*
X165848000Y-105141309D01*
X165848000Y-104450750D01*
X165689250Y-104292000D01*
X164490000Y-104292000D01*
X164490000Y-104312000D01*
X164236000Y-104312000D01*
X164236000Y-104292000D01*
X164216000Y-104292000D01*
X164216000Y-104038000D01*
X164236000Y-104038000D01*
X164236000Y-102838750D01*
X164490000Y-102838750D01*
X164490000Y-104038000D01*
X165689250Y-104038000D01*
X165848000Y-103879250D01*
X165848000Y-103188691D01*
X165751327Y-102955302D01*
X165572699Y-102776673D01*
X165339310Y-102680000D01*
X164648750Y-102680000D01*
X164490000Y-102838750D01*
X164236000Y-102838750D01*
X164077250Y-102680000D01*
X163386690Y-102680000D01*
X163153301Y-102776673D01*
X162974673Y-102955302D01*
X162902403Y-103129777D01*
X162873054Y-103085853D01*
X162391285Y-102763946D01*
X161823000Y-102650907D01*
X161254715Y-102763946D01*
X160772946Y-103085853D01*
X160556335Y-103410034D01*
X160539146Y-103413454D01*
X160478183Y-103283642D01*
X160049924Y-102893355D01*
X159639890Y-102723524D01*
X159410000Y-102844845D01*
X159410000Y-104038000D01*
X159430000Y-104038000D01*
X159430000Y-104292000D01*
X159410000Y-104292000D01*
X159410000Y-104312000D01*
X159156000Y-104312000D01*
X159156000Y-104292000D01*
X159136000Y-104292000D01*
X159136000Y-104038000D01*
X159156000Y-104038000D01*
X159156000Y-102844845D01*
X158926110Y-102723524D01*
X158516076Y-102893355D01*
X158087817Y-103283642D01*
X158026854Y-103413454D01*
X158009665Y-103410034D01*
X157793054Y-103085853D01*
X157311285Y-102763946D01*
X156743000Y-102650907D01*
X156174715Y-102763946D01*
X156105307Y-102810323D01*
X159392080Y-99523550D01*
X167907000Y-99523550D01*
X167907000Y-100164110D01*
X168003673Y-100397499D01*
X168182302Y-100576127D01*
X168415691Y-100672800D01*
X169056250Y-100672800D01*
X169215000Y-100514050D01*
X169215000Y-99364800D01*
X169469000Y-99364800D01*
X169469000Y-100514050D01*
X169627750Y-100672800D01*
X170268309Y-100672800D01*
X170501698Y-100576127D01*
X170680327Y-100397499D01*
X170777000Y-100164110D01*
X170777000Y-99523550D01*
X170618250Y-99364800D01*
X169469000Y-99364800D01*
X169215000Y-99364800D01*
X168065750Y-99364800D01*
X167907000Y-99523550D01*
X159392080Y-99523550D01*
X161188231Y-97727399D01*
X161187758Y-98269861D01*
X161399990Y-98783503D01*
X161792630Y-99176829D01*
X162305900Y-99389957D01*
X162861661Y-99390442D01*
X163375303Y-99178210D01*
X163580457Y-98973413D01*
X164324392Y-98973413D01*
X164393857Y-99215597D01*
X164917302Y-99402344D01*
X165472368Y-99374562D01*
X165802540Y-99237800D01*
X175498887Y-99237800D01*
X175608120Y-99786951D01*
X175919189Y-100252498D01*
X176384736Y-100563567D01*
X176933887Y-100672800D01*
X176990113Y-100672800D01*
X177539264Y-100563567D01*
X178004811Y-100252498D01*
X178315880Y-99786951D01*
X178425113Y-99237800D01*
X178315880Y-98688649D01*
X178004811Y-98223102D01*
X177539264Y-97912033D01*
X176990113Y-97802800D01*
X176933887Y-97802800D01*
X176384736Y-97912033D01*
X175919189Y-98223102D01*
X175608120Y-98688649D01*
X175498887Y-99237800D01*
X165802540Y-99237800D01*
X165856143Y-99215597D01*
X165925608Y-98973413D01*
X165125000Y-98172805D01*
X164324392Y-98973413D01*
X163580457Y-98973413D01*
X163768629Y-98785570D01*
X163848395Y-98593473D01*
X163902603Y-98724343D01*
X164144787Y-98793808D01*
X164945395Y-97993200D01*
X164931253Y-97979058D01*
X165110858Y-97799453D01*
X165125000Y-97813595D01*
X165139143Y-97799453D01*
X165318748Y-97979058D01*
X165304605Y-97993200D01*
X166105213Y-98793808D01*
X166347397Y-98724343D01*
X166494688Y-98311490D01*
X167907000Y-98311490D01*
X167907000Y-98952050D01*
X168065750Y-99110800D01*
X169215000Y-99110800D01*
X169215000Y-97961550D01*
X169469000Y-97961550D01*
X169469000Y-99110800D01*
X170618250Y-99110800D01*
X170777000Y-98952050D01*
X170777000Y-98311490D01*
X170680327Y-98078101D01*
X170501698Y-97899473D01*
X170268309Y-97802800D01*
X169627750Y-97802800D01*
X169469000Y-97961550D01*
X169215000Y-97961550D01*
X169056250Y-97802800D01*
X168415691Y-97802800D01*
X168182302Y-97899473D01*
X168003673Y-98078101D01*
X167907000Y-98311490D01*
X166494688Y-98311490D01*
X166534144Y-98200898D01*
X166506362Y-97645832D01*
X166455069Y-97522000D01*
X172276600Y-97522000D01*
X172568205Y-97463996D01*
X172815415Y-97298815D01*
X173145035Y-96969195D01*
X173251330Y-97013333D01*
X173861991Y-97013865D01*
X174426371Y-96780668D01*
X174858551Y-96349243D01*
X175092733Y-95785270D01*
X175093265Y-95174609D01*
X174860068Y-94610229D01*
X174428643Y-94178049D01*
X173864670Y-93943867D01*
X173254009Y-93943335D01*
X172689629Y-94176532D01*
X172521387Y-94344480D01*
X172521162Y-94343283D01*
X172382090Y-94127159D01*
X172169890Y-93982169D01*
X171918000Y-93931160D01*
X170118000Y-93931160D01*
X169882683Y-93975438D01*
X169666559Y-94114510D01*
X169521569Y-94326710D01*
X169470560Y-94578600D01*
X169470560Y-95998000D01*
X166411429Y-95998000D01*
X166521757Y-95732300D01*
X166522242Y-95176539D01*
X166310010Y-94662897D01*
X165917370Y-94269571D01*
X165709488Y-94183251D01*
X165915303Y-94098210D01*
X166308629Y-93705570D01*
X166521757Y-93192300D01*
X166522242Y-92636539D01*
X166310010Y-92122897D01*
X165917370Y-91729571D01*
X165404100Y-91516443D01*
X164848339Y-91515958D01*
X164334697Y-91728190D01*
X163941371Y-92120830D01*
X163855051Y-92328712D01*
X163770010Y-92122897D01*
X163377370Y-91729571D01*
X162864100Y-91516443D01*
X162308339Y-91515958D01*
X161794697Y-91728190D01*
X161401371Y-92120830D01*
X161188243Y-92634100D01*
X161187758Y-93189861D01*
X161283345Y-93421200D01*
X153396710Y-93421200D01*
X153491757Y-93192300D01*
X153492242Y-92636539D01*
X153280010Y-92122897D01*
X152887370Y-91729571D01*
X152374100Y-91516443D01*
X151818339Y-91515958D01*
X151304697Y-91728190D01*
X150911371Y-92120830D01*
X150825051Y-92328712D01*
X150740010Y-92122897D01*
X150347370Y-91729571D01*
X149834100Y-91516443D01*
X149278339Y-91515958D01*
X148764697Y-91728190D01*
X148371371Y-92120830D01*
X148158243Y-92634100D01*
X148157758Y-93189861D01*
X148253345Y-93421200D01*
X148033730Y-93421200D01*
X144585986Y-89973456D01*
X144654898Y-89944982D01*
X169284338Y-89944982D01*
X169290739Y-90036124D01*
X169285189Y-90127325D01*
X169313415Y-90334250D01*
X169343188Y-90420630D01*
X169361431Y-90510159D01*
X169442251Y-90702728D01*
X169493367Y-90778460D01*
X169534160Y-90860216D01*
X169662067Y-91025307D01*
X169731045Y-91085231D01*
X169791605Y-91153640D01*
X169957882Y-91280000D01*
X170040017Y-91320029D01*
X170116221Y-91370434D01*
X170309536Y-91449453D01*
X170399233Y-91466860D01*
X170485889Y-91495825D01*
X170693069Y-91522118D01*
X170709420Y-91520970D01*
X170718469Y-91522118D01*
X170797825Y-91516544D01*
X170875412Y-91521266D01*
X170883248Y-91520197D01*
X170900812Y-91521266D01*
X171107737Y-91493040D01*
X171194119Y-91463267D01*
X171283645Y-91445024D01*
X171476215Y-91364204D01*
X171551946Y-91313089D01*
X171633704Y-91272295D01*
X171798795Y-91144388D01*
X171858719Y-91075410D01*
X171927128Y-91014850D01*
X172053488Y-90848573D01*
X172093516Y-90766441D01*
X172143924Y-90690231D01*
X172222942Y-90496915D01*
X172240349Y-90407217D01*
X172269312Y-90320566D01*
X172287150Y-90180011D01*
X172300768Y-90283453D01*
X172300752Y-90301787D01*
X172304318Y-90310417D01*
X172305160Y-90316814D01*
X172334529Y-90403334D01*
X172352355Y-90492949D01*
X172428186Y-90676020D01*
X172478946Y-90751988D01*
X172519357Y-90833933D01*
X172639986Y-90991140D01*
X172708681Y-91051384D01*
X172768925Y-91120079D01*
X172926132Y-91240708D01*
X173008077Y-91281119D01*
X173084045Y-91331879D01*
X173267116Y-91407710D01*
X173356732Y-91425536D01*
X173443251Y-91454905D01*
X173639709Y-91480769D01*
X173656667Y-91479658D01*
X173665109Y-91480769D01*
X173743581Y-91475626D01*
X173822052Y-91480769D01*
X173830494Y-91479658D01*
X173847452Y-91480769D01*
X174043912Y-91454905D01*
X174130432Y-91425536D01*
X174220047Y-91407710D01*
X174403118Y-91331879D01*
X174479088Y-91281117D01*
X174561033Y-91240706D01*
X174718239Y-91120077D01*
X174778481Y-91051384D01*
X174847176Y-90991140D01*
X174967805Y-90833933D01*
X175008216Y-90751988D01*
X175058976Y-90676020D01*
X175134807Y-90492949D01*
X175152633Y-90403333D01*
X175182002Y-90316814D01*
X175207866Y-90120356D01*
X175201890Y-90029184D01*
X175207866Y-89938013D01*
X175182002Y-89741553D01*
X175152633Y-89655033D01*
X175134807Y-89565418D01*
X175058976Y-89382347D01*
X175008214Y-89306377D01*
X174967803Y-89224432D01*
X174847174Y-89067226D01*
X174778481Y-89006984D01*
X174718239Y-88938291D01*
X174581324Y-88833232D01*
X174549923Y-88801776D01*
X174459763Y-88764338D01*
X174403118Y-88726489D01*
X174220047Y-88650658D01*
X174154675Y-88637654D01*
X174022691Y-88582850D01*
X173886435Y-88582731D01*
X173847452Y-88577599D01*
X173830494Y-88578710D01*
X173822052Y-88577599D01*
X173745625Y-88582608D01*
X173741481Y-88582605D01*
X173665109Y-88577599D01*
X173656667Y-88578710D01*
X173639709Y-88577599D01*
X173602607Y-88582484D01*
X173451813Y-88582352D01*
X173304494Y-88643223D01*
X173267116Y-88650658D01*
X173084045Y-88726489D01*
X173053371Y-88746985D01*
X172924200Y-88800357D01*
X172842854Y-88881562D01*
X172768925Y-88938289D01*
X172708681Y-89006984D01*
X172639988Y-89067226D01*
X172584742Y-89139223D01*
X172520176Y-89203677D01*
X172475206Y-89311977D01*
X172428186Y-89382347D01*
X172352355Y-89565418D01*
X172336159Y-89646838D01*
X172301250Y-89730909D01*
X172301215Y-89771522D01*
X172287354Y-89876804D01*
X172266528Y-89724121D01*
X172236755Y-89637739D01*
X172218511Y-89548208D01*
X172137690Y-89355637D01*
X172086574Y-89279905D01*
X172045782Y-89198151D01*
X171917875Y-89033061D01*
X171848904Y-88973142D01*
X171788338Y-88904727D01*
X171622060Y-88778367D01*
X171539930Y-88738340D01*
X171463719Y-88687931D01*
X171270402Y-88608913D01*
X171180706Y-88591507D01*
X171094054Y-88562543D01*
X170886873Y-88536251D01*
X170870522Y-88537399D01*
X170861473Y-88536251D01*
X170782122Y-88541824D01*
X170704534Y-88537102D01*
X170696698Y-88538171D01*
X170679134Y-88537102D01*
X170472208Y-88565327D01*
X170385826Y-88595100D01*
X170296293Y-88613344D01*
X170103724Y-88694165D01*
X170027992Y-88745281D01*
X169946239Y-88786073D01*
X169781149Y-88913980D01*
X169721230Y-88982951D01*
X169652815Y-89043517D01*
X169526455Y-89209795D01*
X169486427Y-89291927D01*
X169436020Y-89368134D01*
X169357002Y-89561450D01*
X169339596Y-89651144D01*
X169310630Y-89737801D01*
X169284338Y-89944982D01*
X144654898Y-89944982D01*
X144974515Y-89812919D01*
X145463004Y-89325282D01*
X145727699Y-88687827D01*
X145728301Y-87997601D01*
X145464719Y-87359685D01*
X144977082Y-86871196D01*
X144641518Y-86731857D01*
X170655046Y-86731857D01*
X170662060Y-86822955D01*
X170657122Y-86914186D01*
X170690438Y-87146759D01*
X170720792Y-87232943D01*
X170739636Y-87322345D01*
X170832011Y-87538370D01*
X170883632Y-87613753D01*
X170924974Y-87695235D01*
X171070113Y-87879991D01*
X171139492Y-87939452D01*
X171200513Y-88007455D01*
X171388526Y-88148349D01*
X171470925Y-88187824D01*
X171547466Y-88237716D01*
X171765538Y-88325150D01*
X171855347Y-88341954D01*
X171942197Y-88370337D01*
X172175468Y-88398350D01*
X172190946Y-88397158D01*
X172200868Y-88398350D01*
X172281484Y-88392144D01*
X172357803Y-88396274D01*
X172364767Y-88395276D01*
X172383203Y-88396274D01*
X172615775Y-88362957D01*
X172701953Y-88332605D01*
X172791359Y-88313760D01*
X173007384Y-88221385D01*
X173082770Y-88169763D01*
X173164249Y-88128422D01*
X173349005Y-87983283D01*
X173408466Y-87913904D01*
X173476466Y-87852886D01*
X173617362Y-87664874D01*
X173656837Y-87582475D01*
X173706733Y-87505928D01*
X173794166Y-87287854D01*
X173810969Y-87198045D01*
X173839351Y-87111199D01*
X173867364Y-86877928D01*
X173860351Y-86786827D01*
X173865288Y-86695593D01*
X173831971Y-86463020D01*
X173801620Y-86376845D01*
X173782776Y-86287440D01*
X173690401Y-86071415D01*
X173638775Y-85996022D01*
X173597435Y-85914546D01*
X173452295Y-85729789D01*
X173382917Y-85670330D01*
X173321898Y-85602329D01*
X173133886Y-85461433D01*
X173051486Y-85421958D01*
X172974944Y-85372065D01*
X172756871Y-85284631D01*
X172667060Y-85267827D01*
X172580213Y-85239445D01*
X172346942Y-85211432D01*
X172331464Y-85212624D01*
X172321542Y-85211432D01*
X172240926Y-85217638D01*
X172164607Y-85213508D01*
X172157643Y-85214506D01*
X172139207Y-85213508D01*
X171906634Y-85246825D01*
X171820455Y-85277178D01*
X171731051Y-85296022D01*
X171515026Y-85388398D01*
X171439644Y-85440017D01*
X171358161Y-85481360D01*
X171173405Y-85626499D01*
X171113944Y-85695879D01*
X171045941Y-85756900D01*
X170905046Y-85944912D01*
X170865570Y-86027314D01*
X170815680Y-86103852D01*
X170728246Y-86321924D01*
X170711442Y-86411732D01*
X170683058Y-86498586D01*
X170655046Y-86731857D01*
X144641518Y-86731857D01*
X144339627Y-86606501D01*
X143649401Y-86605899D01*
X143011485Y-86869481D01*
X142522996Y-87357118D01*
X142360641Y-87748111D01*
X140027369Y-85414839D01*
X140259000Y-85460913D01*
X140808151Y-85351680D01*
X141273698Y-85040611D01*
X141584767Y-84575064D01*
X141694000Y-84025913D01*
X141694000Y-83969687D01*
X141584767Y-83420536D01*
X141396129Y-83138220D01*
X174412655Y-83138220D01*
X178562626Y-86159794D01*
X178562626Y-86159794D01*
G37*
X178562626Y-86159794D02*
X178556083Y-87174901D01*
X178529214Y-87139588D01*
X178460765Y-87079066D01*
X178400803Y-87010129D01*
X178173698Y-86834393D01*
X178091918Y-86793649D01*
X178016153Y-86742578D01*
X177751304Y-86631610D01*
X177661761Y-86613420D01*
X177575363Y-86583700D01*
X177290816Y-86545062D01*
X177273331Y-86546137D01*
X177265416Y-86545062D01*
X177187712Y-86549838D01*
X177108474Y-86544321D01*
X177099504Y-86545465D01*
X177083074Y-86544321D01*
X176798224Y-86580645D01*
X176711585Y-86609663D01*
X176621903Y-86627123D01*
X176356159Y-86735934D01*
X176279985Y-86786385D01*
X176197873Y-86826464D01*
X175969347Y-87000347D01*
X175908824Y-87068797D01*
X175839887Y-87128759D01*
X175664152Y-87355864D01*
X175623408Y-87437645D01*
X175572338Y-87513408D01*
X175461370Y-87778257D01*
X175443181Y-87867795D01*
X175413460Y-87954195D01*
X175374821Y-88238741D01*
X175380426Y-88329940D01*
X175374080Y-88421086D01*
X175410404Y-88705937D01*
X175439422Y-88792578D01*
X175456882Y-88882258D01*
X175565693Y-89148002D01*
X175616144Y-89224177D01*
X175656223Y-89306288D01*
X175830106Y-89534814D01*
X175898555Y-89595336D01*
X175958518Y-89664274D01*
X176185624Y-89840010D01*
X176267404Y-89880753D01*
X176343166Y-89931823D01*
X176608016Y-90042791D01*
X176697554Y-90060980D01*
X176783954Y-90090701D01*
X177068500Y-90129340D01*
X177085986Y-90128265D01*
X177093900Y-90129340D01*
X177171607Y-90124564D01*
X177250845Y-90130081D01*
X177259816Y-90128937D01*
X177276245Y-90130081D01*
X177561096Y-90093757D01*
X177647737Y-90064739D01*
X177737417Y-90047279D01*
X178003161Y-89938468D01*
X178079336Y-89888017D01*
X178161447Y-89847938D01*
X178389973Y-89674055D01*
X178450495Y-89605606D01*
X178519433Y-89545643D01*
X178540983Y-89517794D01*
X178502674Y-95461586D01*
X178479749Y-95427277D01*
X178439338Y-95345332D01*
X178312203Y-95179646D01*
X178243508Y-95119402D01*
X178183266Y-95050709D01*
X178017581Y-94923573D01*
X177935629Y-94883159D01*
X177859663Y-94832400D01*
X177666718Y-94752480D01*
X177577106Y-94734655D01*
X177490587Y-94705286D01*
X177283532Y-94678027D01*
X177266574Y-94679138D01*
X177258132Y-94678027D01*
X177179660Y-94683170D01*
X177101189Y-94678027D01*
X177092747Y-94679138D01*
X177075789Y-94678027D01*
X176868733Y-94705286D01*
X176782214Y-94734655D01*
X176692602Y-94752480D01*
X176499657Y-94832400D01*
X176423689Y-94883160D01*
X176341741Y-94923572D01*
X176176055Y-95050707D01*
X176115809Y-95119404D01*
X176047115Y-95179648D01*
X175919981Y-95345334D01*
X175879572Y-95427276D01*
X175828811Y-95503245D01*
X175748890Y-95696190D01*
X175731064Y-95785805D01*
X175701695Y-95872324D01*
X175674436Y-96079379D01*
X175680412Y-96170551D01*
X175674436Y-96261723D01*
X175701695Y-96468778D01*
X175731064Y-96555297D01*
X175748890Y-96644912D01*
X175828811Y-96837857D01*
X175879572Y-96913826D01*
X175919982Y-96995770D01*
X176047116Y-97161455D01*
X176115812Y-97221700D01*
X176176055Y-97290394D01*
X176341741Y-97417529D01*
X176423689Y-97457941D01*
X176499657Y-97508701D01*
X176692602Y-97588621D01*
X176782209Y-97606445D01*
X176868730Y-97635815D01*
X177075785Y-97663075D01*
X177092743Y-97661964D01*
X177101185Y-97663075D01*
X177179660Y-97657932D01*
X177258135Y-97663075D01*
X177266577Y-97661964D01*
X177283535Y-97663075D01*
X177490590Y-97635815D01*
X177577111Y-97606445D01*
X177666718Y-97588621D01*
X177859663Y-97508701D01*
X177935629Y-97457942D01*
X178017581Y-97417528D01*
X178183266Y-97290392D01*
X178243506Y-97221701D01*
X178312202Y-97161457D01*
X178439337Y-96995771D01*
X178479748Y-96913826D01*
X178493446Y-96893326D01*
X178464936Y-101316698D01*
X178465369Y-101318949D01*
X178464921Y-101321200D01*
X178464921Y-105422701D01*
X177742970Y-105422701D01*
X177849431Y-105266890D01*
X177900440Y-105015000D01*
X177900440Y-103315000D01*
X177856162Y-103079683D01*
X177717090Y-102863559D01*
X177504890Y-102718569D01*
X177253000Y-102667560D01*
X175553000Y-102667560D01*
X175317683Y-102711838D01*
X175101559Y-102850910D01*
X174956569Y-103063110D01*
X174942914Y-103130541D01*
X174913054Y-103085853D01*
X174431285Y-102763946D01*
X173863000Y-102650907D01*
X173294715Y-102763946D01*
X172812946Y-103085853D01*
X172593000Y-103415026D01*
X172373054Y-103085853D01*
X171891285Y-102763946D01*
X171323000Y-102650907D01*
X170754715Y-102763946D01*
X170272946Y-103085853D01*
X169951039Y-103567622D01*
X169838000Y-104135907D01*
X169838000Y-104194093D01*
X169951039Y-104762378D01*
X170272946Y-105244147D01*
X170540172Y-105422701D01*
X165703324Y-105422701D01*
X165751327Y-105374698D01*
X165848000Y-105141309D01*
X165848000Y-104450750D01*
X165689250Y-104292000D01*
X164490000Y-104292000D01*
X164490000Y-104312000D01*
X164236000Y-104312000D01*
X164236000Y-104292000D01*
X164216000Y-104292000D01*
X164216000Y-104038000D01*
X164236000Y-104038000D01*
X164236000Y-102838750D01*
X164490000Y-102838750D01*
X164490000Y-104038000D01*
X165689250Y-104038000D01*
X165848000Y-103879250D01*
X165848000Y-103188691D01*
X165751327Y-102955302D01*
X165572699Y-102776673D01*
X165339310Y-102680000D01*
X164648750Y-102680000D01*
X164490000Y-102838750D01*
X164236000Y-102838750D01*
X164077250Y-102680000D01*
X163386690Y-102680000D01*
X163153301Y-102776673D01*
X162974673Y-102955302D01*
X162902403Y-103129777D01*
X162873054Y-103085853D01*
X162391285Y-102763946D01*
X161823000Y-102650907D01*
X161254715Y-102763946D01*
X160772946Y-103085853D01*
X160556335Y-103410034D01*
X160539146Y-103413454D01*
X160478183Y-103283642D01*
X160049924Y-102893355D01*
X159639890Y-102723524D01*
X159410000Y-102844845D01*
X159410000Y-104038000D01*
X159430000Y-104038000D01*
X159430000Y-104292000D01*
X159410000Y-104292000D01*
X159410000Y-104312000D01*
X159156000Y-104312000D01*
X159156000Y-104292000D01*
X159136000Y-104292000D01*
X159136000Y-104038000D01*
X159156000Y-104038000D01*
X159156000Y-102844845D01*
X158926110Y-102723524D01*
X158516076Y-102893355D01*
X158087817Y-103283642D01*
X158026854Y-103413454D01*
X158009665Y-103410034D01*
X157793054Y-103085853D01*
X157311285Y-102763946D01*
X156743000Y-102650907D01*
X156174715Y-102763946D01*
X156105307Y-102810323D01*
X159392080Y-99523550D01*
X167907000Y-99523550D01*
X167907000Y-100164110D01*
X168003673Y-100397499D01*
X168182302Y-100576127D01*
X168415691Y-100672800D01*
X169056250Y-100672800D01*
X169215000Y-100514050D01*
X169215000Y-99364800D01*
X169469000Y-99364800D01*
X169469000Y-100514050D01*
X169627750Y-100672800D01*
X170268309Y-100672800D01*
X170501698Y-100576127D01*
X170680327Y-100397499D01*
X170777000Y-100164110D01*
X170777000Y-99523550D01*
X170618250Y-99364800D01*
X169469000Y-99364800D01*
X169215000Y-99364800D01*
X168065750Y-99364800D01*
X167907000Y-99523550D01*
X159392080Y-99523550D01*
X161188231Y-97727399D01*
X161187758Y-98269861D01*
X161399990Y-98783503D01*
X161792630Y-99176829D01*
X162305900Y-99389957D01*
X162861661Y-99390442D01*
X163375303Y-99178210D01*
X163580457Y-98973413D01*
X164324392Y-98973413D01*
X164393857Y-99215597D01*
X164917302Y-99402344D01*
X165472368Y-99374562D01*
X165802540Y-99237800D01*
X175498887Y-99237800D01*
X175608120Y-99786951D01*
X175919189Y-100252498D01*
X176384736Y-100563567D01*
X176933887Y-100672800D01*
X176990113Y-100672800D01*
X177539264Y-100563567D01*
X178004811Y-100252498D01*
X178315880Y-99786951D01*
X178425113Y-99237800D01*
X178315880Y-98688649D01*
X178004811Y-98223102D01*
X177539264Y-97912033D01*
X176990113Y-97802800D01*
X176933887Y-97802800D01*
X176384736Y-97912033D01*
X175919189Y-98223102D01*
X175608120Y-98688649D01*
X175498887Y-99237800D01*
X165802540Y-99237800D01*
X165856143Y-99215597D01*
X165925608Y-98973413D01*
X165125000Y-98172805D01*
X164324392Y-98973413D01*
X163580457Y-98973413D01*
X163768629Y-98785570D01*
X163848395Y-98593473D01*
X163902603Y-98724343D01*
X164144787Y-98793808D01*
X164945395Y-97993200D01*
X164931253Y-97979058D01*
X165110858Y-97799453D01*
X165125000Y-97813595D01*
X165139143Y-97799453D01*
X165318748Y-97979058D01*
X165304605Y-97993200D01*
X166105213Y-98793808D01*
X166347397Y-98724343D01*
X166494688Y-98311490D01*
X167907000Y-98311490D01*
X167907000Y-98952050D01*
X168065750Y-99110800D01*
X169215000Y-99110800D01*
X169215000Y-97961550D01*
X169469000Y-97961550D01*
X169469000Y-99110800D01*
X170618250Y-99110800D01*
X170777000Y-98952050D01*
X170777000Y-98311490D01*
X170680327Y-98078101D01*
X170501698Y-97899473D01*
X170268309Y-97802800D01*
X169627750Y-97802800D01*
X169469000Y-97961550D01*
X169215000Y-97961550D01*
X169056250Y-97802800D01*
X168415691Y-97802800D01*
X168182302Y-97899473D01*
X168003673Y-98078101D01*
X167907000Y-98311490D01*
X166494688Y-98311490D01*
X166534144Y-98200898D01*
X166506362Y-97645832D01*
X166455069Y-97522000D01*
X172276600Y-97522000D01*
X172568205Y-97463996D01*
X172815415Y-97298815D01*
X173145035Y-96969195D01*
X173251330Y-97013333D01*
X173861991Y-97013865D01*
X174426371Y-96780668D01*
X174858551Y-96349243D01*
X175092733Y-95785270D01*
X175093265Y-95174609D01*
X174860068Y-94610229D01*
X174428643Y-94178049D01*
X173864670Y-93943867D01*
X173254009Y-93943335D01*
X172689629Y-94176532D01*
X172521387Y-94344480D01*
X172521162Y-94343283D01*
X172382090Y-94127159D01*
X172169890Y-93982169D01*
X171918000Y-93931160D01*
X170118000Y-93931160D01*
X169882683Y-93975438D01*
X169666559Y-94114510D01*
X169521569Y-94326710D01*
X169470560Y-94578600D01*
X169470560Y-95998000D01*
X166411429Y-95998000D01*
X166521757Y-95732300D01*
X166522242Y-95176539D01*
X166310010Y-94662897D01*
X165917370Y-94269571D01*
X165709488Y-94183251D01*
X165915303Y-94098210D01*
X166308629Y-93705570D01*
X166521757Y-93192300D01*
X166522242Y-92636539D01*
X166310010Y-92122897D01*
X165917370Y-91729571D01*
X165404100Y-91516443D01*
X164848339Y-91515958D01*
X164334697Y-91728190D01*
X163941371Y-92120830D01*
X163855051Y-92328712D01*
X163770010Y-92122897D01*
X163377370Y-91729571D01*
X162864100Y-91516443D01*
X162308339Y-91515958D01*
X161794697Y-91728190D01*
X161401371Y-92120830D01*
X161188243Y-92634100D01*
X161187758Y-93189861D01*
X161283345Y-93421200D01*
X153396710Y-93421200D01*
X153491757Y-93192300D01*
X153492242Y-92636539D01*
X153280010Y-92122897D01*
X152887370Y-91729571D01*
X152374100Y-91516443D01*
X151818339Y-91515958D01*
X151304697Y-91728190D01*
X150911371Y-92120830D01*
X150825051Y-92328712D01*
X150740010Y-92122897D01*
X150347370Y-91729571D01*
X149834100Y-91516443D01*
X149278339Y-91515958D01*
X148764697Y-91728190D01*
X148371371Y-92120830D01*
X148158243Y-92634100D01*
X148157758Y-93189861D01*
X148253345Y-93421200D01*
X148033730Y-93421200D01*
X144585986Y-89973456D01*
X144654898Y-89944982D01*
X169284338Y-89944982D01*
X169290739Y-90036124D01*
X169285189Y-90127325D01*
X169313415Y-90334250D01*
X169343188Y-90420630D01*
X169361431Y-90510159D01*
X169442251Y-90702728D01*
X169493367Y-90778460D01*
X169534160Y-90860216D01*
X169662067Y-91025307D01*
X169731045Y-91085231D01*
X169791605Y-91153640D01*
X169957882Y-91280000D01*
X170040017Y-91320029D01*
X170116221Y-91370434D01*
X170309536Y-91449453D01*
X170399233Y-91466860D01*
X170485889Y-91495825D01*
X170693069Y-91522118D01*
X170709420Y-91520970D01*
X170718469Y-91522118D01*
X170797825Y-91516544D01*
X170875412Y-91521266D01*
X170883248Y-91520197D01*
X170900812Y-91521266D01*
X171107737Y-91493040D01*
X171194119Y-91463267D01*
X171283645Y-91445024D01*
X171476215Y-91364204D01*
X171551946Y-91313089D01*
X171633704Y-91272295D01*
X171798795Y-91144388D01*
X171858719Y-91075410D01*
X171927128Y-91014850D01*
X172053488Y-90848573D01*
X172093516Y-90766441D01*
X172143924Y-90690231D01*
X172222942Y-90496915D01*
X172240349Y-90407217D01*
X172269312Y-90320566D01*
X172287150Y-90180011D01*
X172300768Y-90283453D01*
X172300752Y-90301787D01*
X172304318Y-90310417D01*
X172305160Y-90316814D01*
X172334529Y-90403334D01*
X172352355Y-90492949D01*
X172428186Y-90676020D01*
X172478946Y-90751988D01*
X172519357Y-90833933D01*
X172639986Y-90991140D01*
X172708681Y-91051384D01*
X172768925Y-91120079D01*
X172926132Y-91240708D01*
X173008077Y-91281119D01*
X173084045Y-91331879D01*
X173267116Y-91407710D01*
X173356732Y-91425536D01*
X173443251Y-91454905D01*
X173639709Y-91480769D01*
X173656667Y-91479658D01*
X173665109Y-91480769D01*
X173743581Y-91475626D01*
X173822052Y-91480769D01*
X173830494Y-91479658D01*
X173847452Y-91480769D01*
X174043912Y-91454905D01*
X174130432Y-91425536D01*
X174220047Y-91407710D01*
X174403118Y-91331879D01*
X174479088Y-91281117D01*
X174561033Y-91240706D01*
X174718239Y-91120077D01*
X174778481Y-91051384D01*
X174847176Y-90991140D01*
X174967805Y-90833933D01*
X175008216Y-90751988D01*
X175058976Y-90676020D01*
X175134807Y-90492949D01*
X175152633Y-90403333D01*
X175182002Y-90316814D01*
X175207866Y-90120356D01*
X175201890Y-90029184D01*
X175207866Y-89938013D01*
X175182002Y-89741553D01*
X175152633Y-89655033D01*
X175134807Y-89565418D01*
X175058976Y-89382347D01*
X175008214Y-89306377D01*
X174967803Y-89224432D01*
X174847174Y-89067226D01*
X174778481Y-89006984D01*
X174718239Y-88938291D01*
X174581324Y-88833232D01*
X174549923Y-88801776D01*
X174459763Y-88764338D01*
X174403118Y-88726489D01*
X174220047Y-88650658D01*
X174154675Y-88637654D01*
X174022691Y-88582850D01*
X173886435Y-88582731D01*
X173847452Y-88577599D01*
X173830494Y-88578710D01*
X173822052Y-88577599D01*
X173745625Y-88582608D01*
X173741481Y-88582605D01*
X173665109Y-88577599D01*
X173656667Y-88578710D01*
X173639709Y-88577599D01*
X173602607Y-88582484D01*
X173451813Y-88582352D01*
X173304494Y-88643223D01*
X173267116Y-88650658D01*
X173084045Y-88726489D01*
X173053371Y-88746985D01*
X172924200Y-88800357D01*
X172842854Y-88881562D01*
X172768925Y-88938289D01*
X172708681Y-89006984D01*
X172639988Y-89067226D01*
X172584742Y-89139223D01*
X172520176Y-89203677D01*
X172475206Y-89311977D01*
X172428186Y-89382347D01*
X172352355Y-89565418D01*
X172336159Y-89646838D01*
X172301250Y-89730909D01*
X172301215Y-89771522D01*
X172287354Y-89876804D01*
X172266528Y-89724121D01*
X172236755Y-89637739D01*
X172218511Y-89548208D01*
X172137690Y-89355637D01*
X172086574Y-89279905D01*
X172045782Y-89198151D01*
X171917875Y-89033061D01*
X171848904Y-88973142D01*
X171788338Y-88904727D01*
X171622060Y-88778367D01*
X171539930Y-88738340D01*
X171463719Y-88687931D01*
X171270402Y-88608913D01*
X171180706Y-88591507D01*
X171094054Y-88562543D01*
X170886873Y-88536251D01*
X170870522Y-88537399D01*
X170861473Y-88536251D01*
X170782122Y-88541824D01*
X170704534Y-88537102D01*
X170696698Y-88538171D01*
X170679134Y-88537102D01*
X170472208Y-88565327D01*
X170385826Y-88595100D01*
X170296293Y-88613344D01*
X170103724Y-88694165D01*
X170027992Y-88745281D01*
X169946239Y-88786073D01*
X169781149Y-88913980D01*
X169721230Y-88982951D01*
X169652815Y-89043517D01*
X169526455Y-89209795D01*
X169486427Y-89291927D01*
X169436020Y-89368134D01*
X169357002Y-89561450D01*
X169339596Y-89651144D01*
X169310630Y-89737801D01*
X169284338Y-89944982D01*
X144654898Y-89944982D01*
X144974515Y-89812919D01*
X145463004Y-89325282D01*
X145727699Y-88687827D01*
X145728301Y-87997601D01*
X145464719Y-87359685D01*
X144977082Y-86871196D01*
X144641518Y-86731857D01*
X170655046Y-86731857D01*
X170662060Y-86822955D01*
X170657122Y-86914186D01*
X170690438Y-87146759D01*
X170720792Y-87232943D01*
X170739636Y-87322345D01*
X170832011Y-87538370D01*
X170883632Y-87613753D01*
X170924974Y-87695235D01*
X171070113Y-87879991D01*
X171139492Y-87939452D01*
X171200513Y-88007455D01*
X171388526Y-88148349D01*
X171470925Y-88187824D01*
X171547466Y-88237716D01*
X171765538Y-88325150D01*
X171855347Y-88341954D01*
X171942197Y-88370337D01*
X172175468Y-88398350D01*
X172190946Y-88397158D01*
X172200868Y-88398350D01*
X172281484Y-88392144D01*
X172357803Y-88396274D01*
X172364767Y-88395276D01*
X172383203Y-88396274D01*
X172615775Y-88362957D01*
X172701953Y-88332605D01*
X172791359Y-88313760D01*
X173007384Y-88221385D01*
X173082770Y-88169763D01*
X173164249Y-88128422D01*
X173349005Y-87983283D01*
X173408466Y-87913904D01*
X173476466Y-87852886D01*
X173617362Y-87664874D01*
X173656837Y-87582475D01*
X173706733Y-87505928D01*
X173794166Y-87287854D01*
X173810969Y-87198045D01*
X173839351Y-87111199D01*
X173867364Y-86877928D01*
X173860351Y-86786827D01*
X173865288Y-86695593D01*
X173831971Y-86463020D01*
X173801620Y-86376845D01*
X173782776Y-86287440D01*
X173690401Y-86071415D01*
X173638775Y-85996022D01*
X173597435Y-85914546D01*
X173452295Y-85729789D01*
X173382917Y-85670330D01*
X173321898Y-85602329D01*
X173133886Y-85461433D01*
X173051486Y-85421958D01*
X172974944Y-85372065D01*
X172756871Y-85284631D01*
X172667060Y-85267827D01*
X172580213Y-85239445D01*
X172346942Y-85211432D01*
X172331464Y-85212624D01*
X172321542Y-85211432D01*
X172240926Y-85217638D01*
X172164607Y-85213508D01*
X172157643Y-85214506D01*
X172139207Y-85213508D01*
X171906634Y-85246825D01*
X171820455Y-85277178D01*
X171731051Y-85296022D01*
X171515026Y-85388398D01*
X171439644Y-85440017D01*
X171358161Y-85481360D01*
X171173405Y-85626499D01*
X171113944Y-85695879D01*
X171045941Y-85756900D01*
X170905046Y-85944912D01*
X170865570Y-86027314D01*
X170815680Y-86103852D01*
X170728246Y-86321924D01*
X170711442Y-86411732D01*
X170683058Y-86498586D01*
X170655046Y-86731857D01*
X144641518Y-86731857D01*
X144339627Y-86606501D01*
X143649401Y-86605899D01*
X143011485Y-86869481D01*
X142522996Y-87357118D01*
X142360641Y-87748111D01*
X140027369Y-85414839D01*
X140259000Y-85460913D01*
X140808151Y-85351680D01*
X141273698Y-85040611D01*
X141584767Y-84575064D01*
X141694000Y-84025913D01*
X141694000Y-83969687D01*
X141584767Y-83420536D01*
X141396129Y-83138220D01*
X174412655Y-83138220D01*
X178562626Y-86159794D01*
G36*
X154763884Y-98176415D02*
X154966038Y-98311490D01*
X155011095Y-98341596D01*
X155036560Y-98346661D01*
X155036560Y-98387600D01*
X155080838Y-98622917D01*
X155219910Y-98839041D01*
X155432110Y-98984031D01*
X155684000Y-99035040D01*
X156584000Y-99035040D01*
X156819317Y-98990762D01*
X156923655Y-98923622D01*
X156988788Y-98967143D01*
X157404000Y-99049734D01*
X157786775Y-98973595D01*
X152125970Y-104634400D01*
X151421000Y-104634400D01*
X151421000Y-104450750D01*
X151262250Y-104292000D01*
X150063000Y-104292000D01*
X150063000Y-104312000D01*
X149809000Y-104312000D01*
X149809000Y-104292000D01*
X149789000Y-104292000D01*
X149789000Y-104038000D01*
X149809000Y-104038000D01*
X149809000Y-102838750D01*
X150063000Y-102838750D01*
X150063000Y-104038000D01*
X151262250Y-104038000D01*
X151421000Y-103879250D01*
X151421000Y-103188691D01*
X151324327Y-102955302D01*
X151145699Y-102776673D01*
X150912310Y-102680000D01*
X150221750Y-102680000D01*
X150063000Y-102838750D01*
X149809000Y-102838750D01*
X149650250Y-102680000D01*
X148959690Y-102680000D01*
X148726301Y-102776673D01*
X148547673Y-102955302D01*
X148475403Y-103129777D01*
X148446054Y-103085853D01*
X148371376Y-103035955D01*
X151363815Y-100043516D01*
X151528996Y-99796305D01*
X151583250Y-99523550D01*
X151587000Y-99504700D01*
X151587000Y-99294910D01*
X151815900Y-99389957D01*
X152371661Y-99390442D01*
X152885303Y-99178210D01*
X153278629Y-98785570D01*
X153491757Y-98272300D01*
X153492242Y-97716539D01*
X153443883Y-97599500D01*
X154186970Y-97599500D01*
X154763884Y-98176415D01*
X154763884Y-98176415D01*
G37*
X154763884Y-98176415D02*
X154966038Y-98311490D01*
X155011095Y-98341596D01*
X155036560Y-98346661D01*
X155036560Y-98387600D01*
X155080838Y-98622917D01*
X155219910Y-98839041D01*
X155432110Y-98984031D01*
X155684000Y-99035040D01*
X156584000Y-99035040D01*
X156819317Y-98990762D01*
X156923655Y-98923622D01*
X156988788Y-98967143D01*
X157404000Y-99049734D01*
X157786775Y-98973595D01*
X152125970Y-104634400D01*
X151421000Y-104634400D01*
X151421000Y-104450750D01*
X151262250Y-104292000D01*
X150063000Y-104292000D01*
X150063000Y-104312000D01*
X149809000Y-104312000D01*
X149809000Y-104292000D01*
X149789000Y-104292000D01*
X149789000Y-104038000D01*
X149809000Y-104038000D01*
X149809000Y-102838750D01*
X150063000Y-102838750D01*
X150063000Y-104038000D01*
X151262250Y-104038000D01*
X151421000Y-103879250D01*
X151421000Y-103188691D01*
X151324327Y-102955302D01*
X151145699Y-102776673D01*
X150912310Y-102680000D01*
X150221750Y-102680000D01*
X150063000Y-102838750D01*
X149809000Y-102838750D01*
X149650250Y-102680000D01*
X148959690Y-102680000D01*
X148726301Y-102776673D01*
X148547673Y-102955302D01*
X148475403Y-103129777D01*
X148446054Y-103085853D01*
X148371376Y-103035955D01*
X151363815Y-100043516D01*
X151528996Y-99796305D01*
X151583250Y-99523550D01*
X151587000Y-99504700D01*
X151587000Y-99294910D01*
X151815900Y-99389957D01*
X152371661Y-99390442D01*
X152885303Y-99178210D01*
X153278629Y-98785570D01*
X153491757Y-98272300D01*
X153492242Y-97716539D01*
X153443883Y-97599500D01*
X154186970Y-97599500D01*
X154763884Y-98176415D01*
M02*
