G04 #@! TF.FileFunction,Profile,NP*
%FSLAX46Y46*%
G04 Gerber Fmt 4.6, Leading zero omitted, Abs format (unit mm)*
G04 Created by KiCad (PCBNEW 4.0.7) date 03/23/18 08:01:55*
%MOMM*%
%LPD*%
G01*
G04 APERTURE LIST*
%ADD10C,0.127000*%
%ADD11C,0.100000*%
G04 APERTURE END LIST*
D10*
D11*
X165470043Y-93020071D02*
X165242226Y-93194881D01*
X164957525Y-93687998D02*
X164920043Y-93972698D01*
X165067415Y-93422698D02*
X164957525Y-93687998D01*
X165242226Y-93194881D02*
X165067415Y-93422698D01*
X165735342Y-92910180D02*
X165470043Y-93020071D01*
X164920043Y-93972698D02*
X164957525Y-94257399D01*
X165470043Y-94925326D02*
X165735342Y-95035217D01*
X165242226Y-94750516D02*
X165470043Y-94925326D01*
X165067415Y-94522698D02*
X165242226Y-94750516D01*
X164957525Y-94257399D02*
X165067415Y-94522698D01*
X164520043Y-109072698D02*
X164520043Y-107072698D01*
X116520043Y-90072698D02*
X116520043Y-109072698D01*
X128155816Y-96302252D02*
X127962500Y-96223234D01*
X143795043Y-101741129D02*
X143225500Y-102178155D01*
X145881796Y-101466402D02*
X145170043Y-101372698D01*
X146545043Y-101741129D02*
X145881796Y-101466402D01*
X144458291Y-101466402D02*
X143795043Y-101741129D01*
X145170043Y-101372698D02*
X144458291Y-101466402D01*
X147114587Y-102178155D02*
X146545043Y-101741129D01*
X147826339Y-103410946D02*
X147551613Y-102747698D01*
X147551613Y-102747698D02*
X147114587Y-102178155D01*
X147920043Y-104122698D02*
X147826339Y-103410946D01*
X127962500Y-96223234D02*
X127755320Y-96196942D01*
X128322093Y-96428612D02*
X128155816Y-96302252D01*
X142788473Y-105497698D02*
X143225500Y-106067242D01*
X142513747Y-104834451D02*
X142788473Y-105497698D01*
X142513747Y-103410946D02*
X142420043Y-104122698D01*
X142788473Y-102747698D02*
X142513747Y-103410946D01*
X142420043Y-104122698D02*
X142513747Y-104834451D01*
X143225500Y-102178155D02*
X142788473Y-102747698D01*
X123957525Y-99587998D02*
X123920043Y-99872698D01*
X125020043Y-98772698D02*
X124735342Y-98810180D01*
X125020043Y-106772698D02*
X125227098Y-106745439D01*
X124735342Y-98810180D02*
X124470043Y-98920071D01*
X124067415Y-100422698D02*
X124242226Y-100650516D01*
X124067415Y-99322698D02*
X123957525Y-99587998D01*
X124242226Y-99094881D02*
X124067415Y-99322698D01*
X124470043Y-98920071D02*
X124242226Y-99094881D01*
X123957525Y-100157399D02*
X124067415Y-100422698D01*
X123920043Y-99872698D02*
X123957525Y-100157399D01*
X125020043Y-105172698D02*
X124812988Y-105199958D01*
X125585729Y-105407013D02*
X125420043Y-105279878D01*
X125792784Y-106179754D02*
X125820043Y-105972698D01*
X125792784Y-105765643D02*
X125712863Y-105572698D01*
X124620043Y-106665519D02*
X124812988Y-106745439D01*
X124454358Y-106538384D02*
X124620043Y-106665519D01*
X125585729Y-106538384D02*
X125712863Y-106372698D01*
X124620043Y-105279878D02*
X124454358Y-105407013D01*
X125227098Y-105199958D02*
X125020043Y-105172698D01*
X124327223Y-106372698D02*
X124454358Y-106538384D01*
X124812988Y-106745439D02*
X125020043Y-106772698D01*
X124247302Y-106179754D02*
X124327223Y-106372698D01*
X125820043Y-105972698D02*
X125792784Y-105765643D01*
X124247302Y-105765643D02*
X124220043Y-105972698D01*
X125712863Y-105572698D02*
X125585729Y-105407013D01*
X125712863Y-106372698D02*
X125792784Y-106179754D01*
X124220043Y-105972698D02*
X124247302Y-106179754D01*
X125227098Y-106745439D02*
X125420043Y-106665519D01*
X124812988Y-105199958D02*
X124620043Y-105279878D01*
X124327223Y-105572698D02*
X124247302Y-105765643D01*
X125420043Y-105279878D02*
X125227098Y-105199958D01*
X125420043Y-106665519D02*
X125585729Y-106538384D01*
X124454358Y-105407013D02*
X124327223Y-105572698D01*
X125304744Y-100935217D02*
X125570043Y-100825326D01*
X125570043Y-98920071D02*
X125304744Y-98810180D01*
X125797861Y-99094881D02*
X125570043Y-98920071D01*
X125972671Y-99322698D02*
X125797861Y-99094881D01*
X126120043Y-99872698D02*
X126082562Y-99587998D01*
X126082562Y-100157399D02*
X126120043Y-99872698D01*
X124470043Y-100825326D02*
X124735342Y-100935217D01*
X125797861Y-100650516D02*
X125972671Y-100422698D01*
X125020043Y-100972698D02*
X125304744Y-100935217D01*
X124735342Y-100935217D02*
X125020043Y-100972698D01*
X126082562Y-99587998D02*
X125972671Y-99322698D01*
X125304744Y-98810180D02*
X125020043Y-98772698D01*
X125972671Y-100422698D02*
X126082562Y-100157399D01*
X124242226Y-100650516D02*
X124470043Y-100825326D01*
X125570043Y-100825326D02*
X125797861Y-100650516D01*
X166304744Y-95035217D02*
X166570043Y-94925326D01*
X167082562Y-94257399D02*
X167120043Y-93972698D01*
X166972671Y-94522698D02*
X167082562Y-94257399D01*
X166570043Y-94925326D02*
X166797861Y-94750516D01*
X166797861Y-94750516D02*
X166972671Y-94522698D01*
X166020043Y-95072698D02*
X166304744Y-95035217D01*
X165735342Y-95035217D02*
X166020043Y-95072698D01*
X168520043Y-107072698D02*
X168520043Y-90072698D01*
X166020043Y-92872698D02*
X165735342Y-92910180D01*
X164520043Y-107072698D02*
X168520043Y-107072698D01*
X165454358Y-102507013D02*
X165327223Y-102672698D01*
X165620043Y-102379878D02*
X165454358Y-102507013D01*
X165247302Y-103279754D02*
X165327223Y-103472698D01*
X165220043Y-103072698D02*
X165247302Y-103279754D01*
X165247302Y-102865643D02*
X165220043Y-103072698D01*
X165327223Y-102672698D02*
X165247302Y-102865643D01*
X166020043Y-102272698D02*
X165812988Y-102299958D01*
X165812988Y-102299958D02*
X165620043Y-102379878D01*
X166712863Y-102672698D02*
X166585729Y-102507013D01*
X165620043Y-103765519D02*
X165812988Y-103845439D01*
X166792784Y-103279754D02*
X166820043Y-103072698D01*
X166820043Y-103072698D02*
X166792784Y-102865643D01*
X149295605Y-92120809D02*
X150287046Y-91677021D01*
X166420043Y-102379878D02*
X166227098Y-102299958D01*
X148220043Y-92272698D02*
X149295605Y-92120809D01*
X166585729Y-103638384D02*
X166712863Y-103472698D01*
X144720043Y-90072698D02*
X145323262Y-90976043D01*
X165454358Y-103638384D02*
X165620043Y-103765519D01*
X150287046Y-91677021D02*
X151116825Y-90976043D01*
X147144481Y-92120809D02*
X148220043Y-92272698D01*
X146153040Y-91677021D02*
X147144481Y-92120809D01*
X166227098Y-102299958D02*
X166020043Y-102272698D01*
X166227098Y-103845439D02*
X166420043Y-103765519D01*
X166792784Y-102865643D02*
X166712863Y-102672698D01*
X166420043Y-103765519D02*
X166585729Y-103638384D01*
X165812988Y-103845439D02*
X166020043Y-103872698D01*
X165327223Y-103472698D02*
X165454358Y-103638384D01*
X145323262Y-90976043D02*
X146153040Y-91677021D01*
X144720043Y-90072698D02*
X116520043Y-90072698D01*
X151116825Y-90976043D02*
X151720043Y-90072698D01*
X166585729Y-102507013D02*
X166420043Y-102379878D01*
X166020043Y-103872698D02*
X166227098Y-103845439D01*
X166712863Y-103472698D02*
X166792784Y-103279754D01*
X127362294Y-97691613D02*
X127555610Y-97770632D01*
X127068110Y-97400164D02*
X127196017Y-97565254D01*
X128997367Y-94641917D02*
X129230289Y-94672582D01*
X126987290Y-97207594D02*
X127068110Y-97400164D01*
X126985356Y-96793488D02*
X126959064Y-97000668D01*
X127190734Y-96433895D02*
X127064375Y-96600172D01*
X127064375Y-96600172D02*
X126985356Y-96793488D01*
X130099566Y-94005562D02*
X130130231Y-93772640D01*
X129680260Y-94552012D02*
X129866644Y-94408995D01*
X131249402Y-96460196D02*
X131092196Y-96339567D01*
X129463211Y-94641917D02*
X129680260Y-94552012D01*
X131370031Y-96617402D02*
X131249402Y-96460196D01*
X129230289Y-94672582D02*
X129463211Y-94641917D01*
X131445862Y-96800473D02*
X131370031Y-96617402D01*
X130712665Y-97755994D02*
X130909125Y-97730130D01*
X128780318Y-94552012D02*
X128997367Y-94641917D01*
X131471726Y-96996933D02*
X131445862Y-96800473D01*
X130099566Y-93539718D02*
X130009662Y-93322669D01*
X131249402Y-97533670D02*
X131370031Y-97376464D01*
X130909125Y-97730130D02*
X131092196Y-97654299D01*
X130516206Y-97730130D02*
X130712665Y-97755994D01*
X129463211Y-92903363D02*
X129230289Y-92872698D01*
X130009662Y-93322669D02*
X129866644Y-93136285D01*
X130175928Y-97533670D02*
X130333135Y-97654299D01*
X129979468Y-97193392D02*
X130055299Y-97376464D01*
X129953604Y-96996933D02*
X129979468Y-97193392D01*
X129979468Y-96800473D02*
X129953604Y-96996933D01*
X130055299Y-96617402D02*
X129979468Y-96800473D01*
X130333135Y-96339567D02*
X130175928Y-96460196D01*
X128450000Y-96593702D02*
X128322093Y-96428612D01*
X130009662Y-94222611D02*
X130099566Y-94005562D01*
X128530821Y-96786272D02*
X128450000Y-96593702D01*
X128559046Y-96993198D02*
X128530821Y-96786272D01*
X128532754Y-97200378D02*
X128559046Y-96993198D01*
X126959064Y-97000668D02*
X126987290Y-97207594D01*
X128453736Y-97393694D02*
X128532754Y-97200378D01*
X128593934Y-94408995D02*
X128780318Y-94552012D01*
X128327376Y-97559971D02*
X128453736Y-97393694D01*
X128162286Y-97687878D02*
X128327376Y-97559971D01*
X130130231Y-93772640D02*
X130099566Y-93539718D01*
X127969716Y-97768698D02*
X128162286Y-97687878D01*
X127555610Y-97770632D02*
X127762790Y-97796924D01*
X129866644Y-94408995D02*
X130009662Y-94222611D01*
X127762790Y-97796924D02*
X127969716Y-97768698D01*
X130333135Y-97654299D02*
X130516206Y-97730130D01*
X131445862Y-97193392D02*
X131471726Y-96996933D01*
X131370031Y-97376464D02*
X131445862Y-97193392D01*
X131092196Y-97654299D02*
X131249402Y-97533670D01*
X130055299Y-97376464D02*
X130175928Y-97533670D01*
X130175928Y-96460196D02*
X130055299Y-96617402D01*
X127196017Y-97565254D02*
X127362294Y-97691613D01*
X129866644Y-93136285D02*
X129680260Y-92993268D01*
X129680260Y-92993268D02*
X129463211Y-92903363D01*
X128780318Y-92993268D02*
X128593934Y-93136285D01*
X128997367Y-92903363D02*
X128780318Y-92993268D01*
X129230289Y-92872698D02*
X128997367Y-92903363D01*
X127548394Y-96225167D02*
X127355824Y-96305988D01*
X128450917Y-94222611D02*
X128593934Y-94408995D01*
X127355824Y-96305988D02*
X127190734Y-96433895D01*
X130516206Y-96263736D02*
X130333135Y-96339567D01*
X128361012Y-94005562D02*
X128450917Y-94222611D01*
X128330348Y-93772640D02*
X128361012Y-94005562D01*
X128361012Y-93539718D02*
X128330348Y-93772640D01*
X128450917Y-93322669D02*
X128361012Y-93539718D01*
X130712665Y-96237872D02*
X130516206Y-96263736D01*
X128593934Y-93136285D02*
X128450917Y-93322669D01*
X130909125Y-96263736D02*
X130712665Y-96237872D01*
X131092196Y-96339567D02*
X130909125Y-96263736D01*
X127755320Y-96196942D02*
X127548394Y-96225167D01*
X167082562Y-93687998D02*
X166972671Y-93422698D01*
X166304744Y-92910180D02*
X166020043Y-92872698D01*
X166570043Y-93020071D02*
X166304744Y-92910180D01*
X166797861Y-93194881D02*
X166570043Y-93020071D01*
X166972671Y-93422698D02*
X166797861Y-93194881D01*
X167120043Y-93972698D02*
X167082562Y-93687998D01*
X168520043Y-90072698D02*
X151720043Y-90072698D01*
X116520043Y-109072698D02*
X164520043Y-109072698D01*
X144458291Y-106778994D02*
X145170043Y-106872698D01*
X147114587Y-106067242D02*
X147551613Y-105497698D01*
X145881796Y-106778994D02*
X146545043Y-106504268D01*
X146545043Y-106504268D02*
X147114587Y-106067242D01*
X145170043Y-106872698D02*
X145881796Y-106778994D01*
X147826339Y-104834451D02*
X147920043Y-104122698D01*
X147551613Y-105497698D02*
X147826339Y-104834451D01*
X143225500Y-106067242D02*
X143795043Y-106504268D01*
X143795043Y-106504268D02*
X144458291Y-106778994D01*
M02*
