G04 #@! TF.FileFunction,Copper,L2,Bot,Signal*
%FSLAX46Y46*%
G04 Gerber Fmt 4.6, Leading zero omitted, Abs format (unit mm)*
G04 Created by KiCad (PCBNEW 4.0.7) date 03/23/18 08:01:55*
%MOMM*%
%LPD*%
G01*
G04 APERTURE LIST*
%ADD10C,0.127000*%
%ADD11R,0.800000X0.900000*%
%ADD12R,1.700000X1.700000*%
%ADD13O,1.700000X1.700000*%
%ADD14C,1.524000*%
%ADD15R,0.900000X0.800000*%
%ADD16R,1.700000X0.900000*%
%ADD17R,1.800000X1.800000*%
%ADD18C,1.800000*%
%ADD19C,0.685800*%
%ADD20C,0.650000*%
%ADD21C,0.300000*%
%ADD22C,0.254000*%
G04 APERTURE END LIST*
D10*
D11*
X151094000Y-99533000D03*
X152994000Y-99533000D03*
X152044000Y-101533000D03*
D12*
X128753000Y-107137000D03*
D13*
X131293000Y-107137000D03*
D12*
X118542000Y-92786200D03*
D13*
X118542000Y-95326200D03*
D14*
X117958000Y-99949000D03*
X117958000Y-102489000D03*
X117958000Y-105029000D03*
X120498000Y-101219000D03*
X120498000Y-103759000D03*
X120498000Y-106299000D03*
D12*
X152197000Y-105004000D03*
D13*
X149657000Y-105004000D03*
D15*
X153019000Y-95214400D03*
X153019000Y-97114400D03*
X151019000Y-96164400D03*
D16*
X144221000Y-97792200D03*
X144221000Y-94892200D03*
X148184000Y-97792200D03*
X148184000Y-94892200D03*
D14*
X159360000Y-100508000D03*
X159360000Y-103048000D03*
X159360000Y-105588000D03*
X156820000Y-100508000D03*
X156820000Y-103048000D03*
X156820000Y-105588000D03*
X139827000Y-100508000D03*
X139827000Y-103048000D03*
X139827000Y-105588000D03*
X137287000Y-100508000D03*
X137287000Y-103048000D03*
X137287000Y-105588000D03*
D17*
X127940000Y-101956000D03*
D18*
X130480000Y-101956000D03*
D19*
X123505400Y-103733000D03*
X122812100Y-104592000D03*
D20*
X153019000Y-97114400D02*
X153019000Y-98164400D01*
X131293000Y-107137000D02*
X132793000Y-107137000D01*
X153377000Y-98164400D02*
X153019000Y-98164400D01*
X153973400Y-98760800D02*
X153377000Y-98164400D01*
X153973400Y-100201400D02*
X153973400Y-98760800D01*
X156820000Y-103048000D02*
X153973400Y-100201400D01*
X137287000Y-103048000D02*
X135066800Y-105268200D01*
X135066700Y-105268200D02*
X135066800Y-105268200D01*
X134661800Y-105268200D02*
X135066700Y-105268200D01*
X132793000Y-107137000D02*
X134661800Y-105268200D01*
X155478600Y-104389400D02*
X156820000Y-103048000D01*
X155478600Y-105047100D02*
X155478600Y-104389400D01*
X153017000Y-107508700D02*
X155478600Y-105047100D01*
X137307200Y-107508700D02*
X153017000Y-107508700D01*
X135066800Y-105268200D02*
X137307200Y-107508700D01*
X117958000Y-104394000D02*
X117958000Y-105029000D01*
X119309500Y-103042500D02*
X117958000Y-104394000D01*
X119309500Y-101927400D02*
X119309500Y-103042500D01*
X119126800Y-101744700D02*
X119309500Y-101927400D01*
X119126800Y-100677200D02*
X119126800Y-101744700D01*
X119308900Y-100495100D02*
X119126800Y-100677200D01*
X119308900Y-97593100D02*
X119308900Y-100495100D01*
X118542000Y-96826200D02*
X119308900Y-97593100D01*
X118542000Y-95326200D02*
X118542000Y-96826200D01*
D21*
X134643800Y-97792200D02*
X144221000Y-97792200D01*
X130480000Y-101956000D02*
X134643800Y-97792200D01*
D20*
X152044000Y-101533000D02*
X152044000Y-102083000D01*
X136773800Y-99116200D02*
X128753000Y-107137000D01*
X142741200Y-99116200D02*
X136773800Y-99116200D01*
X144418600Y-100793600D02*
X142741200Y-99116200D01*
X150754600Y-100793600D02*
X144418600Y-100793600D01*
X152044000Y-102083000D02*
X150754600Y-100793600D01*
X152044000Y-103351000D02*
X152044000Y-102083000D01*
X152197000Y-103504000D02*
X152044000Y-103351000D01*
X152197000Y-105004000D02*
X152197000Y-103504000D01*
D21*
X151019000Y-98533000D02*
X151094000Y-98608000D01*
X151019000Y-96164400D02*
X151019000Y-98533000D01*
X151094000Y-99533000D02*
X151094000Y-98608000D01*
X151969000Y-99983000D02*
X151969000Y-99533000D01*
X153509800Y-101523800D02*
X151969000Y-99983000D01*
X153509800Y-105962900D02*
X153509800Y-101523800D01*
X153214300Y-106258400D02*
X153509800Y-105962900D01*
X150911400Y-106258400D02*
X153214300Y-106258400D01*
X149657000Y-105004000D02*
X150911400Y-106258400D01*
X151094000Y-99533000D02*
X151969000Y-99533000D01*
X148184000Y-97792200D02*
X146859000Y-97792200D01*
X128109800Y-99128600D02*
X123505400Y-103733000D01*
X131053800Y-99128600D02*
X128109800Y-99128600D01*
X133190600Y-96991800D02*
X131053800Y-99128600D01*
X146058600Y-96991800D02*
X133190600Y-96991800D01*
X146859000Y-97792200D02*
X146058600Y-96991800D01*
X144221000Y-94892200D02*
X142896000Y-94892200D01*
X122812100Y-99943800D02*
X122812100Y-104592000D01*
X127607100Y-95148800D02*
X122812100Y-99943800D01*
X142639400Y-95148800D02*
X127607100Y-95148800D01*
X142896000Y-94892200D02*
X142639400Y-95148800D01*
X151771800Y-94892200D02*
X152094000Y-95214400D01*
X148184000Y-94892200D02*
X151771800Y-94892200D01*
X153019000Y-95214400D02*
X152094000Y-95214400D01*
D20*
X121889700Y-104907300D02*
X120498000Y-106299000D01*
X121889700Y-96133900D02*
X121889700Y-104907300D01*
X118542000Y-92786200D02*
X121889700Y-96133900D01*
D22*
G36*
X130869981Y-100455861D02*
X130786670Y-100421267D01*
X130176009Y-100420735D01*
X129611629Y-100653932D01*
X129434159Y-100831092D01*
X129378327Y-100696301D01*
X129199698Y-100517673D01*
X128966309Y-100421000D01*
X128225750Y-100421000D01*
X128067000Y-100579750D01*
X128067000Y-101829000D01*
X128087000Y-101829000D01*
X128087000Y-102083000D01*
X128067000Y-102083000D01*
X128067000Y-103332250D01*
X128225750Y-103491000D01*
X128966309Y-103491000D01*
X129199698Y-103394327D01*
X129378327Y-103215699D01*
X129434119Y-103081006D01*
X129609357Y-103256551D01*
X130173330Y-103490733D01*
X130783991Y-103491265D01*
X131222121Y-103310233D01*
X128892794Y-105639560D01*
X127903000Y-105639560D01*
X127667683Y-105683838D01*
X127451559Y-105822910D01*
X127306569Y-106035110D01*
X127255560Y-106287000D01*
X127255560Y-107987000D01*
X127299838Y-108222317D01*
X127406258Y-108387698D01*
X120048361Y-108387698D01*
X120229333Y-107951870D01*
X120229556Y-107695766D01*
X120774661Y-107696242D01*
X121288303Y-107484010D01*
X121681629Y-107091370D01*
X121894757Y-106578100D01*
X121895035Y-106259611D01*
X122271356Y-105883289D01*
X123540903Y-105883289D01*
X123546764Y-105972698D01*
X123540903Y-106062107D01*
X123568162Y-106269163D01*
X123596966Y-106354016D01*
X123614446Y-106441895D01*
X123694366Y-106634838D01*
X123744145Y-106709336D01*
X123783775Y-106789699D01*
X123910910Y-106955385D01*
X123978279Y-107014466D01*
X124037356Y-107081830D01*
X124203041Y-107208966D01*
X124283405Y-107248597D01*
X124357906Y-107298377D01*
X124550851Y-107378297D01*
X124638734Y-107395778D01*
X124723579Y-107424579D01*
X124930634Y-107451838D01*
X125020043Y-107445977D01*
X125109452Y-107451838D01*
X125316508Y-107424579D01*
X125401356Y-107395777D01*
X125489235Y-107378297D01*
X125682180Y-107298377D01*
X125756681Y-107248597D01*
X125837044Y-107208967D01*
X126002730Y-107081832D01*
X126061811Y-107014462D01*
X126129178Y-106955383D01*
X126256312Y-106789697D01*
X126295940Y-106709337D01*
X126345719Y-106634839D01*
X126425640Y-106441895D01*
X126443120Y-106354016D01*
X126471924Y-106269163D01*
X126499183Y-106062107D01*
X126493322Y-105972698D01*
X126499183Y-105883289D01*
X126471924Y-105676234D01*
X126443122Y-105591386D01*
X126425641Y-105503503D01*
X126345720Y-105310558D01*
X126295938Y-105236055D01*
X126256311Y-105155698D01*
X126129177Y-104990013D01*
X126061812Y-104930935D01*
X126002730Y-104863565D01*
X125837044Y-104736430D01*
X125756681Y-104696800D01*
X125682180Y-104647020D01*
X125489235Y-104567100D01*
X125401356Y-104549620D01*
X125316511Y-104520819D01*
X125109456Y-104493559D01*
X125020043Y-104499419D01*
X124930631Y-104493559D01*
X124724069Y-104520754D01*
X124721813Y-104520752D01*
X124712792Y-104524479D01*
X124638732Y-104549619D01*
X124550851Y-104567100D01*
X124357906Y-104647020D01*
X124283405Y-104696800D01*
X124219638Y-104728246D01*
X124194200Y-104738757D01*
X124174895Y-104758029D01*
X124037356Y-104863567D01*
X123978280Y-104930930D01*
X123910912Y-104990010D01*
X123807488Y-105124795D01*
X123790176Y-105142077D01*
X123785398Y-105153583D01*
X123783777Y-105155696D01*
X123744149Y-105236055D01*
X123694366Y-105310559D01*
X123614445Y-105503503D01*
X123596964Y-105591385D01*
X123568162Y-105676233D01*
X123540903Y-105883289D01*
X122271356Y-105883289D01*
X122568520Y-105586125D01*
X122568523Y-105586123D01*
X122587568Y-105557621D01*
X122616730Y-105569730D01*
X123005763Y-105570069D01*
X123365312Y-105421507D01*
X123640640Y-105146659D01*
X123789830Y-104787370D01*
X123789929Y-104673524D01*
X124058612Y-104562507D01*
X124333940Y-104287659D01*
X124483130Y-103928370D01*
X124483185Y-103865373D01*
X126106808Y-102241750D01*
X126405000Y-102241750D01*
X126405000Y-102982310D01*
X126501673Y-103215699D01*
X126680302Y-103394327D01*
X126913691Y-103491000D01*
X127654250Y-103491000D01*
X127813000Y-103332250D01*
X127813000Y-102083000D01*
X126563750Y-102083000D01*
X126405000Y-102241750D01*
X126106808Y-102241750D01*
X126541654Y-101806904D01*
X126563750Y-101829000D01*
X127813000Y-101829000D01*
X127813000Y-100579750D01*
X127790904Y-100557654D01*
X128434958Y-99913600D01*
X131053800Y-99913600D01*
X131354207Y-99853845D01*
X131608879Y-99683679D01*
X133515757Y-97776800D01*
X133549042Y-97776800D01*
X130869981Y-100455861D01*
X130869981Y-100455861D01*
G37*
X130869981Y-100455861D02*
X130786670Y-100421267D01*
X130176009Y-100420735D01*
X129611629Y-100653932D01*
X129434159Y-100831092D01*
X129378327Y-100696301D01*
X129199698Y-100517673D01*
X128966309Y-100421000D01*
X128225750Y-100421000D01*
X128067000Y-100579750D01*
X128067000Y-101829000D01*
X128087000Y-101829000D01*
X128087000Y-102083000D01*
X128067000Y-102083000D01*
X128067000Y-103332250D01*
X128225750Y-103491000D01*
X128966309Y-103491000D01*
X129199698Y-103394327D01*
X129378327Y-103215699D01*
X129434119Y-103081006D01*
X129609357Y-103256551D01*
X130173330Y-103490733D01*
X130783991Y-103491265D01*
X131222121Y-103310233D01*
X128892794Y-105639560D01*
X127903000Y-105639560D01*
X127667683Y-105683838D01*
X127451559Y-105822910D01*
X127306569Y-106035110D01*
X127255560Y-106287000D01*
X127255560Y-107987000D01*
X127299838Y-108222317D01*
X127406258Y-108387698D01*
X120048361Y-108387698D01*
X120229333Y-107951870D01*
X120229556Y-107695766D01*
X120774661Y-107696242D01*
X121288303Y-107484010D01*
X121681629Y-107091370D01*
X121894757Y-106578100D01*
X121895035Y-106259611D01*
X122271356Y-105883289D01*
X123540903Y-105883289D01*
X123546764Y-105972698D01*
X123540903Y-106062107D01*
X123568162Y-106269163D01*
X123596966Y-106354016D01*
X123614446Y-106441895D01*
X123694366Y-106634838D01*
X123744145Y-106709336D01*
X123783775Y-106789699D01*
X123910910Y-106955385D01*
X123978279Y-107014466D01*
X124037356Y-107081830D01*
X124203041Y-107208966D01*
X124283405Y-107248597D01*
X124357906Y-107298377D01*
X124550851Y-107378297D01*
X124638734Y-107395778D01*
X124723579Y-107424579D01*
X124930634Y-107451838D01*
X125020043Y-107445977D01*
X125109452Y-107451838D01*
X125316508Y-107424579D01*
X125401356Y-107395777D01*
X125489235Y-107378297D01*
X125682180Y-107298377D01*
X125756681Y-107248597D01*
X125837044Y-107208967D01*
X126002730Y-107081832D01*
X126061811Y-107014462D01*
X126129178Y-106955383D01*
X126256312Y-106789697D01*
X126295940Y-106709337D01*
X126345719Y-106634839D01*
X126425640Y-106441895D01*
X126443120Y-106354016D01*
X126471924Y-106269163D01*
X126499183Y-106062107D01*
X126493322Y-105972698D01*
X126499183Y-105883289D01*
X126471924Y-105676234D01*
X126443122Y-105591386D01*
X126425641Y-105503503D01*
X126345720Y-105310558D01*
X126295938Y-105236055D01*
X126256311Y-105155698D01*
X126129177Y-104990013D01*
X126061812Y-104930935D01*
X126002730Y-104863565D01*
X125837044Y-104736430D01*
X125756681Y-104696800D01*
X125682180Y-104647020D01*
X125489235Y-104567100D01*
X125401356Y-104549620D01*
X125316511Y-104520819D01*
X125109456Y-104493559D01*
X125020043Y-104499419D01*
X124930631Y-104493559D01*
X124724069Y-104520754D01*
X124721813Y-104520752D01*
X124712792Y-104524479D01*
X124638732Y-104549619D01*
X124550851Y-104567100D01*
X124357906Y-104647020D01*
X124283405Y-104696800D01*
X124219638Y-104728246D01*
X124194200Y-104738757D01*
X124174895Y-104758029D01*
X124037356Y-104863567D01*
X123978280Y-104930930D01*
X123910912Y-104990010D01*
X123807488Y-105124795D01*
X123790176Y-105142077D01*
X123785398Y-105153583D01*
X123783777Y-105155696D01*
X123744149Y-105236055D01*
X123694366Y-105310559D01*
X123614445Y-105503503D01*
X123596964Y-105591385D01*
X123568162Y-105676233D01*
X123540903Y-105883289D01*
X122271356Y-105883289D01*
X122568520Y-105586125D01*
X122568523Y-105586123D01*
X122587568Y-105557621D01*
X122616730Y-105569730D01*
X123005763Y-105570069D01*
X123365312Y-105421507D01*
X123640640Y-105146659D01*
X123789830Y-104787370D01*
X123789929Y-104673524D01*
X124058612Y-104562507D01*
X124333940Y-104287659D01*
X124483130Y-103928370D01*
X124483185Y-103865373D01*
X126106808Y-102241750D01*
X126405000Y-102241750D01*
X126405000Y-102982310D01*
X126501673Y-103215699D01*
X126680302Y-103394327D01*
X126913691Y-103491000D01*
X127654250Y-103491000D01*
X127813000Y-103332250D01*
X127813000Y-102083000D01*
X126563750Y-102083000D01*
X126405000Y-102241750D01*
X126106808Y-102241750D01*
X126541654Y-101806904D01*
X126563750Y-101829000D01*
X127813000Y-101829000D01*
X127813000Y-100579750D01*
X127790904Y-100557654D01*
X128434958Y-99913600D01*
X131053800Y-99913600D01*
X131354207Y-99853845D01*
X131608879Y-99683679D01*
X133515757Y-97776800D01*
X133549042Y-97776800D01*
X130869981Y-100455861D01*
G36*
X144753595Y-91356444D02*
X144821410Y-91424298D01*
X144881211Y-91499318D01*
X145710989Y-92200296D01*
X145794950Y-92246722D01*
X145873179Y-92302243D01*
X146864619Y-92746031D01*
X146958147Y-92767390D01*
X147048697Y-92799079D01*
X148124259Y-92950968D01*
X148220043Y-92945593D01*
X148315827Y-92950968D01*
X149391389Y-92799079D01*
X149481937Y-92767390D01*
X149575466Y-92746031D01*
X150566907Y-92302243D01*
X150645139Y-92246719D01*
X150729096Y-92200296D01*
X151558876Y-91499317D01*
X151618675Y-91424300D01*
X151686492Y-91356444D01*
X152086311Y-90757698D01*
X167835043Y-90757698D01*
X167835043Y-106387698D01*
X164520043Y-106387698D01*
X164257905Y-106439841D01*
X164035675Y-106588330D01*
X163887186Y-106810560D01*
X163835043Y-107072698D01*
X163835043Y-108387698D01*
X132082909Y-108387698D01*
X132488183Y-108018358D01*
X132734486Y-107493892D01*
X132613819Y-107264000D01*
X131420000Y-107264000D01*
X131420000Y-107284000D01*
X131166000Y-107284000D01*
X131166000Y-107264000D01*
X131146000Y-107264000D01*
X131146000Y-107010000D01*
X131166000Y-107010000D01*
X131166000Y-106990000D01*
X131420000Y-106990000D01*
X131420000Y-107010000D01*
X132613819Y-107010000D01*
X132734486Y-106780108D01*
X132488183Y-106255642D01*
X132059924Y-105865355D01*
X131649890Y-105695524D01*
X131442870Y-105804776D01*
X134407344Y-102840302D01*
X135877856Y-102840302D01*
X135905638Y-103395368D01*
X136064603Y-103779143D01*
X136306787Y-103848608D01*
X137107395Y-103048000D01*
X136306787Y-102247392D01*
X136064603Y-102316857D01*
X135877856Y-102840302D01*
X134407344Y-102840302D01*
X136057359Y-101190287D01*
X136101990Y-101298303D01*
X136494630Y-101691629D01*
X136686727Y-101771395D01*
X136555857Y-101825603D01*
X136486392Y-102067787D01*
X137287000Y-102868395D01*
X138087608Y-102067787D01*
X138018143Y-101825603D01*
X137877682Y-101775491D01*
X138077303Y-101693010D01*
X138470629Y-101300370D01*
X138556949Y-101092488D01*
X138641990Y-101298303D01*
X139034630Y-101691629D01*
X139242512Y-101777949D01*
X139036697Y-101862990D01*
X138643371Y-102255630D01*
X138563605Y-102447727D01*
X138509397Y-102316857D01*
X138267213Y-102247392D01*
X137466605Y-103048000D01*
X138267213Y-103848608D01*
X138509397Y-103779143D01*
X138559509Y-103638682D01*
X138641990Y-103838303D01*
X139034630Y-104231629D01*
X139242512Y-104317949D01*
X139036697Y-104402990D01*
X138643371Y-104795630D01*
X138557051Y-105003512D01*
X138472010Y-104797697D01*
X138079370Y-104404371D01*
X137887273Y-104324605D01*
X138018143Y-104270397D01*
X138087608Y-104028213D01*
X137287000Y-103227605D01*
X136486392Y-104028213D01*
X136555857Y-104270397D01*
X136696318Y-104320509D01*
X136496697Y-104402990D01*
X136103371Y-104795630D01*
X135890243Y-105308900D01*
X135889758Y-105864661D01*
X136101990Y-106378303D01*
X136494630Y-106771629D01*
X137007900Y-106984757D01*
X137563661Y-106985242D01*
X138077303Y-106773010D01*
X138470629Y-106380370D01*
X138556949Y-106172488D01*
X138641990Y-106378303D01*
X139034630Y-106771629D01*
X139547900Y-106984757D01*
X140103661Y-106985242D01*
X140617303Y-106773010D01*
X141010629Y-106380370D01*
X141223757Y-105867100D01*
X141224242Y-105311339D01*
X141012010Y-104797697D01*
X140619370Y-104404371D01*
X140411488Y-104318051D01*
X140617303Y-104233010D01*
X141010629Y-103840370D01*
X141223757Y-103327100D01*
X141224242Y-102771339D01*
X141012010Y-102257697D01*
X140619370Y-101864371D01*
X140411488Y-101778051D01*
X140617303Y-101693010D01*
X141010629Y-101300370D01*
X141223757Y-100787100D01*
X141224242Y-100231339D01*
X141160140Y-100076200D01*
X142343554Y-100076200D01*
X143436305Y-101168950D01*
X143378041Y-101197682D01*
X143279723Y-101273124D01*
X143259057Y-101281663D01*
X143227365Y-101313300D01*
X142808498Y-101634708D01*
X142749416Y-101702078D01*
X142682054Y-101761153D01*
X142365602Y-102173559D01*
X142306010Y-102233048D01*
X142289564Y-102272654D01*
X142245027Y-102330696D01*
X142205399Y-102411054D01*
X142155615Y-102485560D01*
X141880889Y-103148808D01*
X141863409Y-103236687D01*
X141834607Y-103321535D01*
X141825590Y-103390029D01*
X141789589Y-103476728D01*
X141789425Y-103664726D01*
X141740903Y-104033287D01*
X141746763Y-104122698D01*
X141740903Y-104212108D01*
X141788631Y-104574639D01*
X141788414Y-104823364D01*
X141856098Y-104987173D01*
X141863411Y-105008715D01*
X141880890Y-105096589D01*
X142155615Y-105759836D01*
X142205396Y-105834337D01*
X142209982Y-105843637D01*
X142302663Y-106067943D01*
X142561817Y-106327550D01*
X142682053Y-106484244D01*
X142749418Y-106543321D01*
X142808498Y-106610689D01*
X142962186Y-106728618D01*
X143254048Y-107020990D01*
X143531543Y-107136216D01*
X143532905Y-107137126D01*
X143869085Y-107276376D01*
X144497728Y-107537411D01*
X144974207Y-107537827D01*
X145080633Y-107551838D01*
X145170043Y-107545978D01*
X145259453Y-107551838D01*
X145363300Y-107538166D01*
X145844364Y-107538586D01*
X147088943Y-107024337D01*
X147409364Y-106704474D01*
X147531588Y-106610689D01*
X147590667Y-106543322D01*
X147658034Y-106484243D01*
X147749861Y-106364571D01*
X148041990Y-106072952D01*
X148151548Y-105809108D01*
X148184470Y-105759836D01*
X148273706Y-105544402D01*
X148285039Y-105601378D01*
X148606946Y-106083147D01*
X149088715Y-106405054D01*
X149657000Y-106518093D01*
X149993918Y-106451076D01*
X150356319Y-106813476D01*
X150356321Y-106813479D01*
X150610994Y-106983645D01*
X150911400Y-107043400D01*
X153214300Y-107043400D01*
X153514707Y-106983645D01*
X153769379Y-106813479D01*
X154064879Y-106517979D01*
X154235045Y-106263307D01*
X154294800Y-105962900D01*
X154294800Y-102840302D01*
X155410856Y-102840302D01*
X155438638Y-103395368D01*
X155597603Y-103779143D01*
X155839787Y-103848608D01*
X156640395Y-103048000D01*
X155839787Y-102247392D01*
X155597603Y-102316857D01*
X155410856Y-102840302D01*
X154294800Y-102840302D01*
X154294800Y-101523800D01*
X154273865Y-101418552D01*
X154235045Y-101223393D01*
X154064879Y-100968721D01*
X153880819Y-100784661D01*
X155422758Y-100784661D01*
X155634990Y-101298303D01*
X156027630Y-101691629D01*
X156219727Y-101771395D01*
X156088857Y-101825603D01*
X156019392Y-102067787D01*
X156820000Y-102868395D01*
X157620608Y-102067787D01*
X157551143Y-101825603D01*
X157410682Y-101775491D01*
X157610303Y-101693010D01*
X158003629Y-101300370D01*
X158089949Y-101092488D01*
X158174990Y-101298303D01*
X158567630Y-101691629D01*
X158775512Y-101777949D01*
X158569697Y-101862990D01*
X158176371Y-102255630D01*
X158096605Y-102447727D01*
X158042397Y-102316857D01*
X157800213Y-102247392D01*
X156999605Y-103048000D01*
X157800213Y-103848608D01*
X158042397Y-103779143D01*
X158092509Y-103638682D01*
X158174990Y-103838303D01*
X158567630Y-104231629D01*
X158775512Y-104317949D01*
X158569697Y-104402990D01*
X158176371Y-104795630D01*
X158090051Y-105003512D01*
X158005010Y-104797697D01*
X157612370Y-104404371D01*
X157420273Y-104324605D01*
X157551143Y-104270397D01*
X157620608Y-104028213D01*
X156820000Y-103227605D01*
X156019392Y-104028213D01*
X156088857Y-104270397D01*
X156229318Y-104320509D01*
X156029697Y-104402990D01*
X155636371Y-104795630D01*
X155423243Y-105308900D01*
X155422758Y-105864661D01*
X155634990Y-106378303D01*
X156027630Y-106771629D01*
X156540900Y-106984757D01*
X157096661Y-106985242D01*
X157610303Y-106773010D01*
X158003629Y-106380370D01*
X158089949Y-106172488D01*
X158174990Y-106378303D01*
X158567630Y-106771629D01*
X159080900Y-106984757D01*
X159636661Y-106985242D01*
X160150303Y-106773010D01*
X160543629Y-106380370D01*
X160756757Y-105867100D01*
X160757242Y-105311339D01*
X160545010Y-104797697D01*
X160152370Y-104404371D01*
X159944488Y-104318051D01*
X160150303Y-104233010D01*
X160543629Y-103840370D01*
X160756757Y-103327100D01*
X160757057Y-102983289D01*
X164540903Y-102983289D01*
X164546764Y-103072698D01*
X164540903Y-103162107D01*
X164568162Y-103369163D01*
X164596966Y-103454016D01*
X164614446Y-103541895D01*
X164694366Y-103734838D01*
X164744145Y-103809336D01*
X164783775Y-103889699D01*
X164910910Y-104055385D01*
X164978279Y-104114466D01*
X165037356Y-104181830D01*
X165203041Y-104308966D01*
X165283405Y-104348597D01*
X165357906Y-104398377D01*
X165550851Y-104478297D01*
X165638734Y-104495778D01*
X165723579Y-104524579D01*
X165930634Y-104551838D01*
X166020043Y-104545977D01*
X166109452Y-104551838D01*
X166316508Y-104524579D01*
X166401356Y-104495777D01*
X166489235Y-104478297D01*
X166682180Y-104398377D01*
X166756681Y-104348597D01*
X166837044Y-104308967D01*
X167002730Y-104181832D01*
X167061811Y-104114462D01*
X167129178Y-104055383D01*
X167256312Y-103889697D01*
X167295940Y-103809337D01*
X167345719Y-103734839D01*
X167425640Y-103541895D01*
X167443120Y-103454016D01*
X167471924Y-103369163D01*
X167499183Y-103162107D01*
X167493322Y-103072698D01*
X167499183Y-102983289D01*
X167475226Y-102801314D01*
X167475248Y-102775813D01*
X167455820Y-102728794D01*
X167443122Y-102691386D01*
X167425641Y-102603503D01*
X167345720Y-102410558D01*
X167295938Y-102336055D01*
X167281170Y-102306107D01*
X167257243Y-102248200D01*
X167228344Y-102219251D01*
X167129177Y-102090013D01*
X167061812Y-102030935D01*
X167002730Y-101963565D01*
X166876130Y-101866421D01*
X166853923Y-101844176D01*
X166839138Y-101838037D01*
X166837044Y-101836430D01*
X166756681Y-101796800D01*
X166682180Y-101747020D01*
X166489235Y-101667100D01*
X166401356Y-101649620D01*
X166316511Y-101620819D01*
X166109456Y-101593559D01*
X166020043Y-101599419D01*
X165930631Y-101593559D01*
X165723575Y-101620819D01*
X165638732Y-101649619D01*
X165550851Y-101667100D01*
X165357906Y-101747020D01*
X165283405Y-101796800D01*
X165203041Y-101836431D01*
X165037356Y-101963567D01*
X164978280Y-102030930D01*
X164910912Y-102090010D01*
X164783777Y-102255696D01*
X164744149Y-102336055D01*
X164694366Y-102410559D01*
X164614445Y-102603503D01*
X164596964Y-102691385D01*
X164568162Y-102776233D01*
X164540903Y-102983289D01*
X160757057Y-102983289D01*
X160757242Y-102771339D01*
X160545010Y-102257697D01*
X160152370Y-101864371D01*
X159944488Y-101778051D01*
X160150303Y-101693010D01*
X160543629Y-101300370D01*
X160756757Y-100787100D01*
X160757242Y-100231339D01*
X160545010Y-99717697D01*
X160152370Y-99324371D01*
X159639100Y-99111243D01*
X159083339Y-99110758D01*
X158569697Y-99322990D01*
X158176371Y-99715630D01*
X158090051Y-99923512D01*
X158005010Y-99717697D01*
X157612370Y-99324371D01*
X157099100Y-99111243D01*
X156543339Y-99110758D01*
X156029697Y-99322990D01*
X155636371Y-99715630D01*
X155423243Y-100228900D01*
X155422758Y-100784661D01*
X153880819Y-100784661D01*
X153661567Y-100565409D01*
X153845441Y-100447090D01*
X153990431Y-100234890D01*
X154041440Y-99983000D01*
X154041440Y-99083000D01*
X153997162Y-98847683D01*
X153858090Y-98631559D01*
X153645890Y-98486569D01*
X153394000Y-98435560D01*
X152594000Y-98435560D01*
X152358683Y-98479838D01*
X152142559Y-98618910D01*
X152044143Y-98762947D01*
X152042415Y-98762603D01*
X151958090Y-98631559D01*
X151871983Y-98572725D01*
X151844234Y-98433222D01*
X151819245Y-98307593D01*
X151804000Y-98284777D01*
X151804000Y-97400150D01*
X151934000Y-97400150D01*
X151934000Y-97640710D01*
X152030673Y-97874099D01*
X152209302Y-98052727D01*
X152442691Y-98149400D01*
X152733250Y-98149400D01*
X152892000Y-97990650D01*
X152892000Y-97241400D01*
X153146000Y-97241400D01*
X153146000Y-97990650D01*
X153304750Y-98149400D01*
X153595309Y-98149400D01*
X153828698Y-98052727D01*
X154007327Y-97874099D01*
X154104000Y-97640710D01*
X154104000Y-97400150D01*
X153945250Y-97241400D01*
X153146000Y-97241400D01*
X152892000Y-97241400D01*
X152092750Y-97241400D01*
X151934000Y-97400150D01*
X151804000Y-97400150D01*
X151804000Y-97103418D01*
X151920441Y-97028490D01*
X152007064Y-96901714D01*
X152092750Y-96987400D01*
X152892000Y-96987400D01*
X152892000Y-96967400D01*
X153146000Y-96967400D01*
X153146000Y-96987400D01*
X153945250Y-96987400D01*
X154104000Y-96828650D01*
X154104000Y-96588090D01*
X154007327Y-96354701D01*
X153828698Y-96176073D01*
X153792253Y-96160977D01*
X153920441Y-96078490D01*
X154065431Y-95866290D01*
X154116440Y-95614400D01*
X154116440Y-94814400D01*
X154072162Y-94579083D01*
X153933090Y-94362959D01*
X153720890Y-94217969D01*
X153469000Y-94166960D01*
X152569000Y-94166960D01*
X152333683Y-94211238D01*
X152234245Y-94275225D01*
X152072207Y-94166955D01*
X151771800Y-94107200D01*
X149573018Y-94107200D01*
X149498090Y-93990759D01*
X149340798Y-93883286D01*
X164240903Y-93883286D01*
X164246763Y-93972698D01*
X164240903Y-94062109D01*
X164253797Y-94160051D01*
X164253699Y-94272799D01*
X164275628Y-94325872D01*
X164278385Y-94346811D01*
X164307188Y-94431659D01*
X164324667Y-94519536D01*
X164434557Y-94784835D01*
X164484337Y-94859337D01*
X164523968Y-94939700D01*
X164698779Y-95167517D01*
X164766146Y-95226596D01*
X164825225Y-95293963D01*
X165053042Y-95468773D01*
X165133402Y-95508402D01*
X165207904Y-95558183D01*
X165473203Y-95668074D01*
X165561084Y-95685555D01*
X165645933Y-95714357D01*
X165930634Y-95751838D01*
X166020043Y-95745977D01*
X166109452Y-95751838D01*
X166394153Y-95714357D01*
X166479005Y-95685554D01*
X166566883Y-95668074D01*
X166832182Y-95558183D01*
X166906684Y-95508402D01*
X166987043Y-95468774D01*
X167214861Y-95293964D01*
X167273941Y-95226596D01*
X167341309Y-95167516D01*
X167516119Y-94939698D01*
X167555747Y-94859339D01*
X167605528Y-94784837D01*
X167715419Y-94519538D01*
X167732900Y-94431657D01*
X167761702Y-94346808D01*
X167799183Y-94062107D01*
X167793322Y-93972698D01*
X167799183Y-93883289D01*
X167761702Y-93598589D01*
X167732900Y-93513741D01*
X167715419Y-93425860D01*
X167605528Y-93160560D01*
X167555748Y-93086059D01*
X167516118Y-93005697D01*
X167341308Y-92777880D01*
X167273941Y-92718800D01*
X167214861Y-92651433D01*
X167001724Y-92487888D01*
X166973082Y-92459196D01*
X166885455Y-92422810D01*
X166832182Y-92387214D01*
X166566883Y-92277323D01*
X166505845Y-92265182D01*
X166335627Y-92194501D01*
X166115156Y-92194309D01*
X166109454Y-92193558D01*
X166098226Y-92194294D01*
X165939751Y-92194156D01*
X165930632Y-92193558D01*
X165926182Y-92194144D01*
X165645401Y-92193899D01*
X165007485Y-92457481D01*
X164518996Y-92945118D01*
X164254301Y-93582573D01*
X164254126Y-93782846D01*
X164240903Y-93883286D01*
X149340798Y-93883286D01*
X149285890Y-93845769D01*
X149034000Y-93794760D01*
X147334000Y-93794760D01*
X147098683Y-93839038D01*
X146882559Y-93978110D01*
X146737569Y-94190310D01*
X146686560Y-94442200D01*
X146686560Y-95342200D01*
X146730838Y-95577517D01*
X146869910Y-95793641D01*
X147082110Y-95938631D01*
X147334000Y-95989640D01*
X149034000Y-95989640D01*
X149269317Y-95945362D01*
X149485441Y-95806290D01*
X149573644Y-95677200D01*
X149939218Y-95677200D01*
X149921560Y-95764400D01*
X149921560Y-96564400D01*
X149965838Y-96799717D01*
X150104910Y-97015841D01*
X150234000Y-97104044D01*
X150234000Y-98533000D01*
X150250121Y-98614044D01*
X150242559Y-98618910D01*
X150097569Y-98831110D01*
X150046560Y-99083000D01*
X150046560Y-99833600D01*
X144816245Y-99833600D01*
X143872286Y-98889640D01*
X145071000Y-98889640D01*
X145306317Y-98845362D01*
X145522441Y-98706290D01*
X145667431Y-98494090D01*
X145718440Y-98242200D01*
X145718440Y-97776800D01*
X145733442Y-97776800D01*
X146303919Y-98347276D01*
X146303921Y-98347279D01*
X146534961Y-98501654D01*
X146558594Y-98517445D01*
X146785586Y-98562598D01*
X146869910Y-98693641D01*
X147082110Y-98838631D01*
X147334000Y-98889640D01*
X149034000Y-98889640D01*
X149269317Y-98845362D01*
X149485441Y-98706290D01*
X149630431Y-98494090D01*
X149681440Y-98242200D01*
X149681440Y-97342200D01*
X149637162Y-97106883D01*
X149498090Y-96890759D01*
X149285890Y-96745769D01*
X149034000Y-96694760D01*
X147334000Y-96694760D01*
X147098683Y-96739038D01*
X146987524Y-96810567D01*
X146613679Y-96436721D01*
X146359007Y-96266555D01*
X146058600Y-96206800D01*
X133190605Y-96206800D01*
X133190600Y-96206799D01*
X132904376Y-96263734D01*
X132890194Y-96266555D01*
X132635521Y-96436721D01*
X132635519Y-96436724D01*
X132156075Y-96916167D01*
X132156248Y-96718413D01*
X131938243Y-96190800D01*
X131799343Y-96051658D01*
X131792848Y-96043193D01*
X131777154Y-96029430D01*
X131681691Y-95933800D01*
X142639400Y-95933800D01*
X142939807Y-95874045D01*
X142982670Y-95845405D01*
X143119110Y-95938631D01*
X143371000Y-95989640D01*
X145071000Y-95989640D01*
X145306317Y-95945362D01*
X145522441Y-95806290D01*
X145667431Y-95594090D01*
X145718440Y-95342200D01*
X145718440Y-94442200D01*
X145674162Y-94206883D01*
X145535090Y-93990759D01*
X145322890Y-93845769D01*
X145071000Y-93794760D01*
X143371000Y-93794760D01*
X143135683Y-93839038D01*
X142919559Y-93978110D01*
X142821188Y-94122081D01*
X142595593Y-94166955D01*
X142340921Y-94337121D01*
X142314242Y-94363800D01*
X130692618Y-94363800D01*
X130732424Y-94267698D01*
X130749904Y-94179821D01*
X130778706Y-94094973D01*
X130809371Y-93862051D01*
X130803511Y-93772640D01*
X130809371Y-93683229D01*
X130778706Y-93450307D01*
X130749904Y-93365459D01*
X130732424Y-93277582D01*
X130642520Y-93060532D01*
X130592738Y-92986027D01*
X130553108Y-92905666D01*
X130410090Y-92719282D01*
X130342721Y-92660201D01*
X130283645Y-92592838D01*
X130097261Y-92449820D01*
X130016896Y-92410189D01*
X129942399Y-92360411D01*
X129725350Y-92270506D01*
X129637473Y-92253026D01*
X129552622Y-92224223D01*
X129319700Y-92193558D01*
X129230289Y-92199418D01*
X129140878Y-92193558D01*
X128907956Y-92224223D01*
X128823105Y-92253026D01*
X128735228Y-92270506D01*
X128518179Y-92360411D01*
X128443678Y-92410191D01*
X128363318Y-92449820D01*
X128176933Y-92592837D01*
X128117851Y-92660207D01*
X128050487Y-92719284D01*
X127907469Y-92905668D01*
X127867838Y-92986033D01*
X127818060Y-93060530D01*
X127728155Y-93277579D01*
X127710675Y-93365460D01*
X127681872Y-93450310D01*
X127651208Y-93683232D01*
X127657069Y-93772640D01*
X127651208Y-93862048D01*
X127681872Y-94094970D01*
X127710675Y-94179820D01*
X127728155Y-94267701D01*
X127767961Y-94363800D01*
X127607100Y-94363800D01*
X127306693Y-94423555D01*
X127052021Y-94593721D01*
X122849700Y-98796042D01*
X122849700Y-96133905D01*
X122849701Y-96133900D01*
X122776624Y-95766524D01*
X122741767Y-95714357D01*
X122568523Y-95455077D01*
X122568520Y-95455075D01*
X120039440Y-92925994D01*
X120039440Y-91936200D01*
X119995162Y-91700883D01*
X119856090Y-91484759D01*
X119643890Y-91339769D01*
X119392000Y-91288760D01*
X117692000Y-91288760D01*
X117456683Y-91333038D01*
X117240559Y-91472110D01*
X117205043Y-91524089D01*
X117205043Y-90757698D01*
X144353776Y-90757698D01*
X144753595Y-91356444D01*
X144753595Y-91356444D01*
G37*
X144753595Y-91356444D02*
X144821410Y-91424298D01*
X144881211Y-91499318D01*
X145710989Y-92200296D01*
X145794950Y-92246722D01*
X145873179Y-92302243D01*
X146864619Y-92746031D01*
X146958147Y-92767390D01*
X147048697Y-92799079D01*
X148124259Y-92950968D01*
X148220043Y-92945593D01*
X148315827Y-92950968D01*
X149391389Y-92799079D01*
X149481937Y-92767390D01*
X149575466Y-92746031D01*
X150566907Y-92302243D01*
X150645139Y-92246719D01*
X150729096Y-92200296D01*
X151558876Y-91499317D01*
X151618675Y-91424300D01*
X151686492Y-91356444D01*
X152086311Y-90757698D01*
X167835043Y-90757698D01*
X167835043Y-106387698D01*
X164520043Y-106387698D01*
X164257905Y-106439841D01*
X164035675Y-106588330D01*
X163887186Y-106810560D01*
X163835043Y-107072698D01*
X163835043Y-108387698D01*
X132082909Y-108387698D01*
X132488183Y-108018358D01*
X132734486Y-107493892D01*
X132613819Y-107264000D01*
X131420000Y-107264000D01*
X131420000Y-107284000D01*
X131166000Y-107284000D01*
X131166000Y-107264000D01*
X131146000Y-107264000D01*
X131146000Y-107010000D01*
X131166000Y-107010000D01*
X131166000Y-106990000D01*
X131420000Y-106990000D01*
X131420000Y-107010000D01*
X132613819Y-107010000D01*
X132734486Y-106780108D01*
X132488183Y-106255642D01*
X132059924Y-105865355D01*
X131649890Y-105695524D01*
X131442870Y-105804776D01*
X134407344Y-102840302D01*
X135877856Y-102840302D01*
X135905638Y-103395368D01*
X136064603Y-103779143D01*
X136306787Y-103848608D01*
X137107395Y-103048000D01*
X136306787Y-102247392D01*
X136064603Y-102316857D01*
X135877856Y-102840302D01*
X134407344Y-102840302D01*
X136057359Y-101190287D01*
X136101990Y-101298303D01*
X136494630Y-101691629D01*
X136686727Y-101771395D01*
X136555857Y-101825603D01*
X136486392Y-102067787D01*
X137287000Y-102868395D01*
X138087608Y-102067787D01*
X138018143Y-101825603D01*
X137877682Y-101775491D01*
X138077303Y-101693010D01*
X138470629Y-101300370D01*
X138556949Y-101092488D01*
X138641990Y-101298303D01*
X139034630Y-101691629D01*
X139242512Y-101777949D01*
X139036697Y-101862990D01*
X138643371Y-102255630D01*
X138563605Y-102447727D01*
X138509397Y-102316857D01*
X138267213Y-102247392D01*
X137466605Y-103048000D01*
X138267213Y-103848608D01*
X138509397Y-103779143D01*
X138559509Y-103638682D01*
X138641990Y-103838303D01*
X139034630Y-104231629D01*
X139242512Y-104317949D01*
X139036697Y-104402990D01*
X138643371Y-104795630D01*
X138557051Y-105003512D01*
X138472010Y-104797697D01*
X138079370Y-104404371D01*
X137887273Y-104324605D01*
X138018143Y-104270397D01*
X138087608Y-104028213D01*
X137287000Y-103227605D01*
X136486392Y-104028213D01*
X136555857Y-104270397D01*
X136696318Y-104320509D01*
X136496697Y-104402990D01*
X136103371Y-104795630D01*
X135890243Y-105308900D01*
X135889758Y-105864661D01*
X136101990Y-106378303D01*
X136494630Y-106771629D01*
X137007900Y-106984757D01*
X137563661Y-106985242D01*
X138077303Y-106773010D01*
X138470629Y-106380370D01*
X138556949Y-106172488D01*
X138641990Y-106378303D01*
X139034630Y-106771629D01*
X139547900Y-106984757D01*
X140103661Y-106985242D01*
X140617303Y-106773010D01*
X141010629Y-106380370D01*
X141223757Y-105867100D01*
X141224242Y-105311339D01*
X141012010Y-104797697D01*
X140619370Y-104404371D01*
X140411488Y-104318051D01*
X140617303Y-104233010D01*
X141010629Y-103840370D01*
X141223757Y-103327100D01*
X141224242Y-102771339D01*
X141012010Y-102257697D01*
X140619370Y-101864371D01*
X140411488Y-101778051D01*
X140617303Y-101693010D01*
X141010629Y-101300370D01*
X141223757Y-100787100D01*
X141224242Y-100231339D01*
X141160140Y-100076200D01*
X142343554Y-100076200D01*
X143436305Y-101168950D01*
X143378041Y-101197682D01*
X143279723Y-101273124D01*
X143259057Y-101281663D01*
X143227365Y-101313300D01*
X142808498Y-101634708D01*
X142749416Y-101702078D01*
X142682054Y-101761153D01*
X142365602Y-102173559D01*
X142306010Y-102233048D01*
X142289564Y-102272654D01*
X142245027Y-102330696D01*
X142205399Y-102411054D01*
X142155615Y-102485560D01*
X141880889Y-103148808D01*
X141863409Y-103236687D01*
X141834607Y-103321535D01*
X141825590Y-103390029D01*
X141789589Y-103476728D01*
X141789425Y-103664726D01*
X141740903Y-104033287D01*
X141746763Y-104122698D01*
X141740903Y-104212108D01*
X141788631Y-104574639D01*
X141788414Y-104823364D01*
X141856098Y-104987173D01*
X141863411Y-105008715D01*
X141880890Y-105096589D01*
X142155615Y-105759836D01*
X142205396Y-105834337D01*
X142209982Y-105843637D01*
X142302663Y-106067943D01*
X142561817Y-106327550D01*
X142682053Y-106484244D01*
X142749418Y-106543321D01*
X142808498Y-106610689D01*
X142962186Y-106728618D01*
X143254048Y-107020990D01*
X143531543Y-107136216D01*
X143532905Y-107137126D01*
X143869085Y-107276376D01*
X144497728Y-107537411D01*
X144974207Y-107537827D01*
X145080633Y-107551838D01*
X145170043Y-107545978D01*
X145259453Y-107551838D01*
X145363300Y-107538166D01*
X145844364Y-107538586D01*
X147088943Y-107024337D01*
X147409364Y-106704474D01*
X147531588Y-106610689D01*
X147590667Y-106543322D01*
X147658034Y-106484243D01*
X147749861Y-106364571D01*
X148041990Y-106072952D01*
X148151548Y-105809108D01*
X148184470Y-105759836D01*
X148273706Y-105544402D01*
X148285039Y-105601378D01*
X148606946Y-106083147D01*
X149088715Y-106405054D01*
X149657000Y-106518093D01*
X149993918Y-106451076D01*
X150356319Y-106813476D01*
X150356321Y-106813479D01*
X150610994Y-106983645D01*
X150911400Y-107043400D01*
X153214300Y-107043400D01*
X153514707Y-106983645D01*
X153769379Y-106813479D01*
X154064879Y-106517979D01*
X154235045Y-106263307D01*
X154294800Y-105962900D01*
X154294800Y-102840302D01*
X155410856Y-102840302D01*
X155438638Y-103395368D01*
X155597603Y-103779143D01*
X155839787Y-103848608D01*
X156640395Y-103048000D01*
X155839787Y-102247392D01*
X155597603Y-102316857D01*
X155410856Y-102840302D01*
X154294800Y-102840302D01*
X154294800Y-101523800D01*
X154273865Y-101418552D01*
X154235045Y-101223393D01*
X154064879Y-100968721D01*
X153880819Y-100784661D01*
X155422758Y-100784661D01*
X155634990Y-101298303D01*
X156027630Y-101691629D01*
X156219727Y-101771395D01*
X156088857Y-101825603D01*
X156019392Y-102067787D01*
X156820000Y-102868395D01*
X157620608Y-102067787D01*
X157551143Y-101825603D01*
X157410682Y-101775491D01*
X157610303Y-101693010D01*
X158003629Y-101300370D01*
X158089949Y-101092488D01*
X158174990Y-101298303D01*
X158567630Y-101691629D01*
X158775512Y-101777949D01*
X158569697Y-101862990D01*
X158176371Y-102255630D01*
X158096605Y-102447727D01*
X158042397Y-102316857D01*
X157800213Y-102247392D01*
X156999605Y-103048000D01*
X157800213Y-103848608D01*
X158042397Y-103779143D01*
X158092509Y-103638682D01*
X158174990Y-103838303D01*
X158567630Y-104231629D01*
X158775512Y-104317949D01*
X158569697Y-104402990D01*
X158176371Y-104795630D01*
X158090051Y-105003512D01*
X158005010Y-104797697D01*
X157612370Y-104404371D01*
X157420273Y-104324605D01*
X157551143Y-104270397D01*
X157620608Y-104028213D01*
X156820000Y-103227605D01*
X156019392Y-104028213D01*
X156088857Y-104270397D01*
X156229318Y-104320509D01*
X156029697Y-104402990D01*
X155636371Y-104795630D01*
X155423243Y-105308900D01*
X155422758Y-105864661D01*
X155634990Y-106378303D01*
X156027630Y-106771629D01*
X156540900Y-106984757D01*
X157096661Y-106985242D01*
X157610303Y-106773010D01*
X158003629Y-106380370D01*
X158089949Y-106172488D01*
X158174990Y-106378303D01*
X158567630Y-106771629D01*
X159080900Y-106984757D01*
X159636661Y-106985242D01*
X160150303Y-106773010D01*
X160543629Y-106380370D01*
X160756757Y-105867100D01*
X160757242Y-105311339D01*
X160545010Y-104797697D01*
X160152370Y-104404371D01*
X159944488Y-104318051D01*
X160150303Y-104233010D01*
X160543629Y-103840370D01*
X160756757Y-103327100D01*
X160757057Y-102983289D01*
X164540903Y-102983289D01*
X164546764Y-103072698D01*
X164540903Y-103162107D01*
X164568162Y-103369163D01*
X164596966Y-103454016D01*
X164614446Y-103541895D01*
X164694366Y-103734838D01*
X164744145Y-103809336D01*
X164783775Y-103889699D01*
X164910910Y-104055385D01*
X164978279Y-104114466D01*
X165037356Y-104181830D01*
X165203041Y-104308966D01*
X165283405Y-104348597D01*
X165357906Y-104398377D01*
X165550851Y-104478297D01*
X165638734Y-104495778D01*
X165723579Y-104524579D01*
X165930634Y-104551838D01*
X166020043Y-104545977D01*
X166109452Y-104551838D01*
X166316508Y-104524579D01*
X166401356Y-104495777D01*
X166489235Y-104478297D01*
X166682180Y-104398377D01*
X166756681Y-104348597D01*
X166837044Y-104308967D01*
X167002730Y-104181832D01*
X167061811Y-104114462D01*
X167129178Y-104055383D01*
X167256312Y-103889697D01*
X167295940Y-103809337D01*
X167345719Y-103734839D01*
X167425640Y-103541895D01*
X167443120Y-103454016D01*
X167471924Y-103369163D01*
X167499183Y-103162107D01*
X167493322Y-103072698D01*
X167499183Y-102983289D01*
X167475226Y-102801314D01*
X167475248Y-102775813D01*
X167455820Y-102728794D01*
X167443122Y-102691386D01*
X167425641Y-102603503D01*
X167345720Y-102410558D01*
X167295938Y-102336055D01*
X167281170Y-102306107D01*
X167257243Y-102248200D01*
X167228344Y-102219251D01*
X167129177Y-102090013D01*
X167061812Y-102030935D01*
X167002730Y-101963565D01*
X166876130Y-101866421D01*
X166853923Y-101844176D01*
X166839138Y-101838037D01*
X166837044Y-101836430D01*
X166756681Y-101796800D01*
X166682180Y-101747020D01*
X166489235Y-101667100D01*
X166401356Y-101649620D01*
X166316511Y-101620819D01*
X166109456Y-101593559D01*
X166020043Y-101599419D01*
X165930631Y-101593559D01*
X165723575Y-101620819D01*
X165638732Y-101649619D01*
X165550851Y-101667100D01*
X165357906Y-101747020D01*
X165283405Y-101796800D01*
X165203041Y-101836431D01*
X165037356Y-101963567D01*
X164978280Y-102030930D01*
X164910912Y-102090010D01*
X164783777Y-102255696D01*
X164744149Y-102336055D01*
X164694366Y-102410559D01*
X164614445Y-102603503D01*
X164596964Y-102691385D01*
X164568162Y-102776233D01*
X164540903Y-102983289D01*
X160757057Y-102983289D01*
X160757242Y-102771339D01*
X160545010Y-102257697D01*
X160152370Y-101864371D01*
X159944488Y-101778051D01*
X160150303Y-101693010D01*
X160543629Y-101300370D01*
X160756757Y-100787100D01*
X160757242Y-100231339D01*
X160545010Y-99717697D01*
X160152370Y-99324371D01*
X159639100Y-99111243D01*
X159083339Y-99110758D01*
X158569697Y-99322990D01*
X158176371Y-99715630D01*
X158090051Y-99923512D01*
X158005010Y-99717697D01*
X157612370Y-99324371D01*
X157099100Y-99111243D01*
X156543339Y-99110758D01*
X156029697Y-99322990D01*
X155636371Y-99715630D01*
X155423243Y-100228900D01*
X155422758Y-100784661D01*
X153880819Y-100784661D01*
X153661567Y-100565409D01*
X153845441Y-100447090D01*
X153990431Y-100234890D01*
X154041440Y-99983000D01*
X154041440Y-99083000D01*
X153997162Y-98847683D01*
X153858090Y-98631559D01*
X153645890Y-98486569D01*
X153394000Y-98435560D01*
X152594000Y-98435560D01*
X152358683Y-98479838D01*
X152142559Y-98618910D01*
X152044143Y-98762947D01*
X152042415Y-98762603D01*
X151958090Y-98631559D01*
X151871983Y-98572725D01*
X151844234Y-98433222D01*
X151819245Y-98307593D01*
X151804000Y-98284777D01*
X151804000Y-97400150D01*
X151934000Y-97400150D01*
X151934000Y-97640710D01*
X152030673Y-97874099D01*
X152209302Y-98052727D01*
X152442691Y-98149400D01*
X152733250Y-98149400D01*
X152892000Y-97990650D01*
X152892000Y-97241400D01*
X153146000Y-97241400D01*
X153146000Y-97990650D01*
X153304750Y-98149400D01*
X153595309Y-98149400D01*
X153828698Y-98052727D01*
X154007327Y-97874099D01*
X154104000Y-97640710D01*
X154104000Y-97400150D01*
X153945250Y-97241400D01*
X153146000Y-97241400D01*
X152892000Y-97241400D01*
X152092750Y-97241400D01*
X151934000Y-97400150D01*
X151804000Y-97400150D01*
X151804000Y-97103418D01*
X151920441Y-97028490D01*
X152007064Y-96901714D01*
X152092750Y-96987400D01*
X152892000Y-96987400D01*
X152892000Y-96967400D01*
X153146000Y-96967400D01*
X153146000Y-96987400D01*
X153945250Y-96987400D01*
X154104000Y-96828650D01*
X154104000Y-96588090D01*
X154007327Y-96354701D01*
X153828698Y-96176073D01*
X153792253Y-96160977D01*
X153920441Y-96078490D01*
X154065431Y-95866290D01*
X154116440Y-95614400D01*
X154116440Y-94814400D01*
X154072162Y-94579083D01*
X153933090Y-94362959D01*
X153720890Y-94217969D01*
X153469000Y-94166960D01*
X152569000Y-94166960D01*
X152333683Y-94211238D01*
X152234245Y-94275225D01*
X152072207Y-94166955D01*
X151771800Y-94107200D01*
X149573018Y-94107200D01*
X149498090Y-93990759D01*
X149340798Y-93883286D01*
X164240903Y-93883286D01*
X164246763Y-93972698D01*
X164240903Y-94062109D01*
X164253797Y-94160051D01*
X164253699Y-94272799D01*
X164275628Y-94325872D01*
X164278385Y-94346811D01*
X164307188Y-94431659D01*
X164324667Y-94519536D01*
X164434557Y-94784835D01*
X164484337Y-94859337D01*
X164523968Y-94939700D01*
X164698779Y-95167517D01*
X164766146Y-95226596D01*
X164825225Y-95293963D01*
X165053042Y-95468773D01*
X165133402Y-95508402D01*
X165207904Y-95558183D01*
X165473203Y-95668074D01*
X165561084Y-95685555D01*
X165645933Y-95714357D01*
X165930634Y-95751838D01*
X166020043Y-95745977D01*
X166109452Y-95751838D01*
X166394153Y-95714357D01*
X166479005Y-95685554D01*
X166566883Y-95668074D01*
X166832182Y-95558183D01*
X166906684Y-95508402D01*
X166987043Y-95468774D01*
X167214861Y-95293964D01*
X167273941Y-95226596D01*
X167341309Y-95167516D01*
X167516119Y-94939698D01*
X167555747Y-94859339D01*
X167605528Y-94784837D01*
X167715419Y-94519538D01*
X167732900Y-94431657D01*
X167761702Y-94346808D01*
X167799183Y-94062107D01*
X167793322Y-93972698D01*
X167799183Y-93883289D01*
X167761702Y-93598589D01*
X167732900Y-93513741D01*
X167715419Y-93425860D01*
X167605528Y-93160560D01*
X167555748Y-93086059D01*
X167516118Y-93005697D01*
X167341308Y-92777880D01*
X167273941Y-92718800D01*
X167214861Y-92651433D01*
X167001724Y-92487888D01*
X166973082Y-92459196D01*
X166885455Y-92422810D01*
X166832182Y-92387214D01*
X166566883Y-92277323D01*
X166505845Y-92265182D01*
X166335627Y-92194501D01*
X166115156Y-92194309D01*
X166109454Y-92193558D01*
X166098226Y-92194294D01*
X165939751Y-92194156D01*
X165930632Y-92193558D01*
X165926182Y-92194144D01*
X165645401Y-92193899D01*
X165007485Y-92457481D01*
X164518996Y-92945118D01*
X164254301Y-93582573D01*
X164254126Y-93782846D01*
X164240903Y-93883286D01*
X149340798Y-93883286D01*
X149285890Y-93845769D01*
X149034000Y-93794760D01*
X147334000Y-93794760D01*
X147098683Y-93839038D01*
X146882559Y-93978110D01*
X146737569Y-94190310D01*
X146686560Y-94442200D01*
X146686560Y-95342200D01*
X146730838Y-95577517D01*
X146869910Y-95793641D01*
X147082110Y-95938631D01*
X147334000Y-95989640D01*
X149034000Y-95989640D01*
X149269317Y-95945362D01*
X149485441Y-95806290D01*
X149573644Y-95677200D01*
X149939218Y-95677200D01*
X149921560Y-95764400D01*
X149921560Y-96564400D01*
X149965838Y-96799717D01*
X150104910Y-97015841D01*
X150234000Y-97104044D01*
X150234000Y-98533000D01*
X150250121Y-98614044D01*
X150242559Y-98618910D01*
X150097569Y-98831110D01*
X150046560Y-99083000D01*
X150046560Y-99833600D01*
X144816245Y-99833600D01*
X143872286Y-98889640D01*
X145071000Y-98889640D01*
X145306317Y-98845362D01*
X145522441Y-98706290D01*
X145667431Y-98494090D01*
X145718440Y-98242200D01*
X145718440Y-97776800D01*
X145733442Y-97776800D01*
X146303919Y-98347276D01*
X146303921Y-98347279D01*
X146534961Y-98501654D01*
X146558594Y-98517445D01*
X146785586Y-98562598D01*
X146869910Y-98693641D01*
X147082110Y-98838631D01*
X147334000Y-98889640D01*
X149034000Y-98889640D01*
X149269317Y-98845362D01*
X149485441Y-98706290D01*
X149630431Y-98494090D01*
X149681440Y-98242200D01*
X149681440Y-97342200D01*
X149637162Y-97106883D01*
X149498090Y-96890759D01*
X149285890Y-96745769D01*
X149034000Y-96694760D01*
X147334000Y-96694760D01*
X147098683Y-96739038D01*
X146987524Y-96810567D01*
X146613679Y-96436721D01*
X146359007Y-96266555D01*
X146058600Y-96206800D01*
X133190605Y-96206800D01*
X133190600Y-96206799D01*
X132904376Y-96263734D01*
X132890194Y-96266555D01*
X132635521Y-96436721D01*
X132635519Y-96436724D01*
X132156075Y-96916167D01*
X132156248Y-96718413D01*
X131938243Y-96190800D01*
X131799343Y-96051658D01*
X131792848Y-96043193D01*
X131777154Y-96029430D01*
X131681691Y-95933800D01*
X142639400Y-95933800D01*
X142939807Y-95874045D01*
X142982670Y-95845405D01*
X143119110Y-95938631D01*
X143371000Y-95989640D01*
X145071000Y-95989640D01*
X145306317Y-95945362D01*
X145522441Y-95806290D01*
X145667431Y-95594090D01*
X145718440Y-95342200D01*
X145718440Y-94442200D01*
X145674162Y-94206883D01*
X145535090Y-93990759D01*
X145322890Y-93845769D01*
X145071000Y-93794760D01*
X143371000Y-93794760D01*
X143135683Y-93839038D01*
X142919559Y-93978110D01*
X142821188Y-94122081D01*
X142595593Y-94166955D01*
X142340921Y-94337121D01*
X142314242Y-94363800D01*
X130692618Y-94363800D01*
X130732424Y-94267698D01*
X130749904Y-94179821D01*
X130778706Y-94094973D01*
X130809371Y-93862051D01*
X130803511Y-93772640D01*
X130809371Y-93683229D01*
X130778706Y-93450307D01*
X130749904Y-93365459D01*
X130732424Y-93277582D01*
X130642520Y-93060532D01*
X130592738Y-92986027D01*
X130553108Y-92905666D01*
X130410090Y-92719282D01*
X130342721Y-92660201D01*
X130283645Y-92592838D01*
X130097261Y-92449820D01*
X130016896Y-92410189D01*
X129942399Y-92360411D01*
X129725350Y-92270506D01*
X129637473Y-92253026D01*
X129552622Y-92224223D01*
X129319700Y-92193558D01*
X129230289Y-92199418D01*
X129140878Y-92193558D01*
X128907956Y-92224223D01*
X128823105Y-92253026D01*
X128735228Y-92270506D01*
X128518179Y-92360411D01*
X128443678Y-92410191D01*
X128363318Y-92449820D01*
X128176933Y-92592837D01*
X128117851Y-92660207D01*
X128050487Y-92719284D01*
X127907469Y-92905668D01*
X127867838Y-92986033D01*
X127818060Y-93060530D01*
X127728155Y-93277579D01*
X127710675Y-93365460D01*
X127681872Y-93450310D01*
X127651208Y-93683232D01*
X127657069Y-93772640D01*
X127651208Y-93862048D01*
X127681872Y-94094970D01*
X127710675Y-94179820D01*
X127728155Y-94267701D01*
X127767961Y-94363800D01*
X127607100Y-94363800D01*
X127306693Y-94423555D01*
X127052021Y-94593721D01*
X122849700Y-98796042D01*
X122849700Y-96133905D01*
X122849701Y-96133900D01*
X122776624Y-95766524D01*
X122741767Y-95714357D01*
X122568523Y-95455077D01*
X122568520Y-95455075D01*
X120039440Y-92925994D01*
X120039440Y-91936200D01*
X119995162Y-91700883D01*
X119856090Y-91484759D01*
X119643890Y-91339769D01*
X119392000Y-91288760D01*
X117692000Y-91288760D01*
X117456683Y-91333038D01*
X117240559Y-91472110D01*
X117205043Y-91524089D01*
X117205043Y-90757698D01*
X144353776Y-90757698D01*
X144753595Y-91356444D01*
G36*
X118669000Y-95199200D02*
X118689000Y-95199200D01*
X118689000Y-95453200D01*
X118669000Y-95453200D01*
X118669000Y-96647019D01*
X118898892Y-96767686D01*
X119423358Y-96521383D01*
X119813645Y-96093124D01*
X119983476Y-95683090D01*
X119874224Y-95476069D01*
X120929700Y-96531545D01*
X120929700Y-99885608D01*
X120777100Y-99822243D01*
X120221339Y-99821758D01*
X119707697Y-100033990D01*
X119314371Y-100426630D01*
X119101243Y-100939900D01*
X119100758Y-101495661D01*
X119312990Y-102009303D01*
X119705630Y-102402629D01*
X119913512Y-102488949D01*
X119707697Y-102573990D01*
X119314371Y-102966630D01*
X119101243Y-103479900D01*
X119100758Y-104035661D01*
X119312990Y-104549303D01*
X119705630Y-104942629D01*
X119913512Y-105028949D01*
X119707697Y-105113990D01*
X119314371Y-105506630D01*
X119101243Y-106019900D01*
X119101128Y-106151932D01*
X119001270Y-106110467D01*
X118729633Y-106110230D01*
X118758608Y-106009213D01*
X117958000Y-105208605D01*
X117943858Y-105222748D01*
X117764253Y-105043143D01*
X117778395Y-105029000D01*
X118137605Y-105029000D01*
X118938213Y-105829608D01*
X119180397Y-105760143D01*
X119367144Y-105236698D01*
X119339362Y-104681632D01*
X119180397Y-104297857D01*
X118938213Y-104228392D01*
X118137605Y-105029000D01*
X117778395Y-105029000D01*
X117764253Y-105014858D01*
X117943858Y-104835253D01*
X117958000Y-104849395D01*
X118758608Y-104048787D01*
X118689143Y-103806603D01*
X118548682Y-103756491D01*
X118748303Y-103674010D01*
X119141629Y-103281370D01*
X119354757Y-102768100D01*
X119355242Y-102212339D01*
X119143010Y-101698697D01*
X118750370Y-101305371D01*
X118542488Y-101219051D01*
X118748303Y-101134010D01*
X119141629Y-100741370D01*
X119354757Y-100228100D01*
X119355242Y-99672339D01*
X119143010Y-99158697D01*
X118750370Y-98765371D01*
X118237100Y-98552243D01*
X117681339Y-98551758D01*
X117205043Y-98748559D01*
X117205043Y-95935437D01*
X117270355Y-96093124D01*
X117660642Y-96521383D01*
X118185108Y-96767686D01*
X118415000Y-96647019D01*
X118415000Y-95453200D01*
X118395000Y-95453200D01*
X118395000Y-95199200D01*
X118415000Y-95199200D01*
X118415000Y-95179200D01*
X118669000Y-95179200D01*
X118669000Y-95199200D01*
X118669000Y-95199200D01*
G37*
X118669000Y-95199200D02*
X118689000Y-95199200D01*
X118689000Y-95453200D01*
X118669000Y-95453200D01*
X118669000Y-96647019D01*
X118898892Y-96767686D01*
X119423358Y-96521383D01*
X119813645Y-96093124D01*
X119983476Y-95683090D01*
X119874224Y-95476069D01*
X120929700Y-96531545D01*
X120929700Y-99885608D01*
X120777100Y-99822243D01*
X120221339Y-99821758D01*
X119707697Y-100033990D01*
X119314371Y-100426630D01*
X119101243Y-100939900D01*
X119100758Y-101495661D01*
X119312990Y-102009303D01*
X119705630Y-102402629D01*
X119913512Y-102488949D01*
X119707697Y-102573990D01*
X119314371Y-102966630D01*
X119101243Y-103479900D01*
X119100758Y-104035661D01*
X119312990Y-104549303D01*
X119705630Y-104942629D01*
X119913512Y-105028949D01*
X119707697Y-105113990D01*
X119314371Y-105506630D01*
X119101243Y-106019900D01*
X119101128Y-106151932D01*
X119001270Y-106110467D01*
X118729633Y-106110230D01*
X118758608Y-106009213D01*
X117958000Y-105208605D01*
X117943858Y-105222748D01*
X117764253Y-105043143D01*
X117778395Y-105029000D01*
X118137605Y-105029000D01*
X118938213Y-105829608D01*
X119180397Y-105760143D01*
X119367144Y-105236698D01*
X119339362Y-104681632D01*
X119180397Y-104297857D01*
X118938213Y-104228392D01*
X118137605Y-105029000D01*
X117778395Y-105029000D01*
X117764253Y-105014858D01*
X117943858Y-104835253D01*
X117958000Y-104849395D01*
X118758608Y-104048787D01*
X118689143Y-103806603D01*
X118548682Y-103756491D01*
X118748303Y-103674010D01*
X119141629Y-103281370D01*
X119354757Y-102768100D01*
X119355242Y-102212339D01*
X119143010Y-101698697D01*
X118750370Y-101305371D01*
X118542488Y-101219051D01*
X118748303Y-101134010D01*
X119141629Y-100741370D01*
X119354757Y-100228100D01*
X119355242Y-99672339D01*
X119143010Y-99158697D01*
X118750370Y-98765371D01*
X118237100Y-98552243D01*
X117681339Y-98551758D01*
X117205043Y-98748559D01*
X117205043Y-95935437D01*
X117270355Y-96093124D01*
X117660642Y-96521383D01*
X118185108Y-96767686D01*
X118415000Y-96647019D01*
X118415000Y-95453200D01*
X118395000Y-95453200D01*
X118395000Y-95199200D01*
X118415000Y-95199200D01*
X118415000Y-95179200D01*
X118669000Y-95179200D01*
X118669000Y-95199200D01*
M02*
