M48
;DRILL file {KiCad 4.0.7} date 03/23/18 08:01:57
;FORMAT={3:3/ absolute / metric / suppress leading zeros}
FMAT,2
METRIC,TZ
T1C0.330
T2C0.762
T3C0.800
T4C0.900
T5C1.000
T6C1.600
T7C1.800
T8C2.200
T9C5.500
%
G90
G05
M71
T1
X122812Y-104592
X123505Y-103733
T2
X137287Y-100508
X137287Y-103048
X137287Y-105588
X139827Y-100508
X139827Y-103048
X139827Y-105588
X156820Y-100508
X156820Y-103048
X156820Y-105588
X159360Y-100508
X159360Y-103048
X159360Y-105588
T3
X117958Y-99949
X117958Y-102489
X117958Y-105029
X120498Y-101219
X120498Y-103759
X120498Y-106299
T4
X127940Y-101956
X130480Y-101956
T5
X118542Y-92786
X118542Y-95326
X128753Y-107137
X131293Y-107137
X149657Y-105004
X152197Y-105004
T6
X125006Y-105956
X127762Y-97003
X130721Y-97003
X166040Y-103060
T7
X118695Y-107645
X129235Y-93764
T8
X125019Y-99873
X165989Y-93929
T9
X145174Y-104153
T0
M30
