G04 #@! TF.FileFunction,Soldermask,Bot*
%FSLAX46Y46*%
G04 Gerber Fmt 4.6, Leading zero omitted, Abs format (unit mm)*
G04 Created by KiCad (PCBNEW 4.0.7) date 03/23/18 08:01:55*
%MOMM*%
%LPD*%
G01*
G04 APERTURE LIST*
%ADD10C,0.127000*%
%ADD11C,1.700000*%
%ADD12C,1.900000*%
%ADD13C,2.300000*%
%ADD14R,0.900000X1.000000*%
%ADD15R,1.800000X1.800000*%
%ADD16O,1.800000X1.800000*%
%ADD17C,1.624000*%
%ADD18R,1.000000X0.900000*%
%ADD19R,1.800000X1.000000*%
%ADD20C,5.600000*%
%ADD21R,1.900000X1.900000*%
G04 APERTURE END LIST*
D10*
D11*
X127762000Y-97002600D03*
X130721000Y-97002600D03*
D12*
X129235000Y-93764100D03*
D11*
X125006000Y-105956000D03*
X166040000Y-103060000D03*
D13*
X125019000Y-99872800D03*
D14*
X151094000Y-99533000D03*
X152994000Y-99533000D03*
X152044000Y-101533000D03*
D15*
X128753000Y-107137000D03*
D16*
X131293000Y-107137000D03*
D15*
X118542000Y-92786200D03*
D16*
X118542000Y-95326200D03*
D17*
X117958000Y-99949000D03*
X117958000Y-102489000D03*
X117958000Y-105029000D03*
X120498000Y-101219000D03*
X120498000Y-103759000D03*
X120498000Y-106299000D03*
D12*
X118694600Y-107645200D03*
D15*
X152197000Y-105004000D03*
D16*
X149657000Y-105004000D03*
D18*
X153019000Y-95214400D03*
X153019000Y-97114400D03*
X151019000Y-96164400D03*
D19*
X144221000Y-97792200D03*
X144221000Y-94892200D03*
X148184000Y-97792200D03*
X148184000Y-94892200D03*
D17*
X159360000Y-100508000D03*
X159360000Y-103048000D03*
X159360000Y-105588000D03*
X156820000Y-100508000D03*
X156820000Y-103048000D03*
X156820000Y-105588000D03*
X139827000Y-100508000D03*
X139827000Y-103048000D03*
X139827000Y-105588000D03*
X137287000Y-100508000D03*
X137287000Y-103048000D03*
X137287000Y-105588000D03*
D13*
X165989000Y-93929200D03*
D20*
X145174000Y-104153000D03*
D21*
X127940000Y-101956000D03*
D12*
X130480000Y-101956000D03*
M02*
