G04 #@! TF.FileFunction,Legend,Top*
%FSLAX46Y46*%
G04 Gerber Fmt 4.6, Leading zero omitted, Abs format (unit mm)*
G04 Created by KiCad (PCBNEW 4.0.7) date 12/06/17 15:50:57*
%MOMM*%
%LPD*%
G01*
G04 APERTURE LIST*
%ADD10C,0.127000*%
%ADD11C,0.120000*%
%ADD12C,0.150000*%
G04 APERTURE END LIST*
D10*
X150237276Y-100706181D02*
X150237276Y-99706181D01*
X150618229Y-99706181D01*
X150713467Y-99753800D01*
X150761086Y-99801419D01*
X150808705Y-99896657D01*
X150808705Y-100039514D01*
X150761086Y-100134752D01*
X150713467Y-100182371D01*
X150618229Y-100229990D01*
X150237276Y-100229990D01*
X151237276Y-100706181D02*
X151237276Y-99706181D01*
X151713466Y-100706181D02*
X151713466Y-99706181D01*
X152284895Y-100706181D01*
X152284895Y-99706181D01*
X153522990Y-100706181D02*
X153522990Y-99706181D01*
X153522990Y-100182371D02*
X154094419Y-100182371D01*
X154094419Y-100706181D02*
X154094419Y-99706181D01*
X154570609Y-100182371D02*
X154903943Y-100182371D01*
X155046800Y-100706181D02*
X154570609Y-100706181D01*
X154570609Y-99706181D01*
X155046800Y-99706181D01*
X155427752Y-100420467D02*
X155903943Y-100420467D01*
X155332514Y-100706181D02*
X155665847Y-99706181D01*
X155999181Y-100706181D01*
X156332514Y-100706181D02*
X156332514Y-99706181D01*
X156570609Y-99706181D01*
X156713467Y-99753800D01*
X156808705Y-99849038D01*
X156856324Y-99944276D01*
X156903943Y-100134752D01*
X156903943Y-100277610D01*
X156856324Y-100468086D01*
X156808705Y-100563324D01*
X156713467Y-100658562D01*
X156570609Y-100706181D01*
X156332514Y-100706181D01*
X157332514Y-100182371D02*
X157665848Y-100182371D01*
X157808705Y-100706181D02*
X157332514Y-100706181D01*
X157332514Y-99706181D01*
X157808705Y-99706181D01*
X158808705Y-100706181D02*
X158475371Y-100229990D01*
X158237276Y-100706181D02*
X158237276Y-99706181D01*
X158618229Y-99706181D01*
X158713467Y-99753800D01*
X158761086Y-99801419D01*
X158808705Y-99896657D01*
X158808705Y-100039514D01*
X158761086Y-100134752D01*
X158713467Y-100182371D01*
X158618229Y-100229990D01*
X158237276Y-100229990D01*
X159856324Y-99706181D02*
X160427753Y-99706181D01*
X160142038Y-100706181D02*
X160142038Y-99706181D01*
X160761086Y-100706181D02*
X160761086Y-99706181D01*
X160761086Y-100182371D02*
X161332515Y-100182371D01*
X161332515Y-100706181D02*
X161332515Y-99706181D01*
X161808705Y-100706181D02*
X161808705Y-99706181D01*
X162237276Y-100658562D02*
X162380133Y-100706181D01*
X162618229Y-100706181D01*
X162713467Y-100658562D01*
X162761086Y-100610943D01*
X162808705Y-100515705D01*
X162808705Y-100420467D01*
X162761086Y-100325229D01*
X162713467Y-100277610D01*
X162618229Y-100229990D01*
X162427752Y-100182371D01*
X162332514Y-100134752D01*
X162284895Y-100087133D01*
X162237276Y-99991895D01*
X162237276Y-99896657D01*
X162284895Y-99801419D01*
X162332514Y-99753800D01*
X162427752Y-99706181D01*
X162665848Y-99706181D01*
X162808705Y-99753800D01*
X163951562Y-100658562D02*
X164094419Y-100706181D01*
X164332515Y-100706181D01*
X164427753Y-100658562D01*
X164475372Y-100610943D01*
X164522991Y-100515705D01*
X164522991Y-100420467D01*
X164475372Y-100325229D01*
X164427753Y-100277610D01*
X164332515Y-100229990D01*
X164142038Y-100182371D01*
X164046800Y-100134752D01*
X163999181Y-100087133D01*
X163951562Y-99991895D01*
X163951562Y-99896657D01*
X163999181Y-99801419D01*
X164046800Y-99753800D01*
X164142038Y-99706181D01*
X164380134Y-99706181D01*
X164522991Y-99753800D01*
X164951562Y-100706181D02*
X164951562Y-99706181D01*
X165427752Y-100706181D02*
X165427752Y-99706181D01*
X165665847Y-99706181D01*
X165808705Y-99753800D01*
X165903943Y-99849038D01*
X165951562Y-99944276D01*
X165999181Y-100134752D01*
X165999181Y-100277610D01*
X165951562Y-100468086D01*
X165903943Y-100563324D01*
X165808705Y-100658562D01*
X165665847Y-100706181D01*
X165427752Y-100706181D01*
X166427752Y-100182371D02*
X166761086Y-100182371D01*
X166903943Y-100706181D02*
X166427752Y-100706181D01*
X166427752Y-99706181D01*
X166903943Y-99706181D01*
D11*
X140533524Y-89669571D02*
X140676381Y-89717190D01*
X140724000Y-89764810D01*
X140771619Y-89860048D01*
X140771619Y-90002905D01*
X140724000Y-90098143D01*
X140676381Y-90145762D01*
X140581143Y-90193381D01*
X140200190Y-90193381D01*
X140200190Y-89193381D01*
X140533524Y-89193381D01*
X140628762Y-89241000D01*
X140676381Y-89288619D01*
X140724000Y-89383857D01*
X140724000Y-89479095D01*
X140676381Y-89574333D01*
X140628762Y-89621952D01*
X140533524Y-89669571D01*
X140200190Y-89669571D01*
X141104952Y-89526714D02*
X141343047Y-90193381D01*
X141581143Y-89526714D02*
X141343047Y-90193381D01*
X141247809Y-90431476D01*
X141200190Y-90479095D01*
X141104952Y-90526714D01*
X135628761Y-91289571D02*
X135962095Y-91289571D01*
X136104952Y-91813381D02*
X135628761Y-91813381D01*
X135628761Y-90813381D01*
X136104952Y-90813381D01*
X136676380Y-91813381D02*
X136581142Y-91765762D01*
X136533523Y-91670524D01*
X136533523Y-90813381D01*
X137485905Y-91813381D02*
X137485905Y-91289571D01*
X137438286Y-91194333D01*
X137343048Y-91146714D01*
X137152571Y-91146714D01*
X137057333Y-91194333D01*
X137485905Y-91765762D02*
X137390667Y-91813381D01*
X137152571Y-91813381D01*
X137057333Y-91765762D01*
X137009714Y-91670524D01*
X137009714Y-91575286D01*
X137057333Y-91480048D01*
X137152571Y-91432429D01*
X137390667Y-91432429D01*
X137485905Y-91384810D01*
X138390667Y-91813381D02*
X138390667Y-90813381D01*
X138390667Y-91765762D02*
X138295429Y-91813381D01*
X138104952Y-91813381D01*
X138009714Y-91765762D01*
X137962095Y-91718143D01*
X137914476Y-91622905D01*
X137914476Y-91337190D01*
X137962095Y-91241952D01*
X138009714Y-91194333D01*
X138104952Y-91146714D01*
X138295429Y-91146714D01*
X138390667Y-91194333D01*
X138866857Y-91813381D02*
X138866857Y-91146714D01*
X138866857Y-90813381D02*
X138819238Y-90861000D01*
X138866857Y-90908619D01*
X138914476Y-90861000D01*
X138866857Y-90813381D01*
X138866857Y-90908619D01*
X139485904Y-91813381D02*
X139390666Y-91765762D01*
X139343047Y-91718143D01*
X139295428Y-91622905D01*
X139295428Y-91337190D01*
X139343047Y-91241952D01*
X139390666Y-91194333D01*
X139485904Y-91146714D01*
X139628762Y-91146714D01*
X139724000Y-91194333D01*
X139771619Y-91241952D01*
X139819238Y-91337190D01*
X139819238Y-91622905D01*
X139771619Y-91718143D01*
X139724000Y-91765762D01*
X139628762Y-91813381D01*
X139485904Y-91813381D01*
X141009714Y-91813381D02*
X141009714Y-90813381D01*
X141343048Y-91527667D01*
X141676381Y-90813381D01*
X141676381Y-91813381D01*
X142581143Y-91813381D02*
X142581143Y-91289571D01*
X142533524Y-91194333D01*
X142438286Y-91146714D01*
X142247809Y-91146714D01*
X142152571Y-91194333D01*
X142581143Y-91765762D02*
X142485905Y-91813381D01*
X142247809Y-91813381D01*
X142152571Y-91765762D01*
X142104952Y-91670524D01*
X142104952Y-91575286D01*
X142152571Y-91480048D01*
X142247809Y-91432429D01*
X142485905Y-91432429D01*
X142581143Y-91384810D01*
X143057333Y-91813381D02*
X143057333Y-91146714D01*
X143057333Y-91337190D02*
X143104952Y-91241952D01*
X143152571Y-91194333D01*
X143247809Y-91146714D01*
X143343048Y-91146714D01*
X143533524Y-91146714D02*
X143914476Y-91146714D01*
X143676381Y-90813381D02*
X143676381Y-91670524D01*
X143724000Y-91765762D01*
X143819238Y-91813381D01*
X143914476Y-91813381D01*
X144247810Y-91813381D02*
X144247810Y-91146714D01*
X144247810Y-90813381D02*
X144200191Y-90861000D01*
X144247810Y-90908619D01*
X144295429Y-90861000D01*
X144247810Y-90813381D01*
X144247810Y-90908619D01*
X144724000Y-91146714D02*
X144724000Y-91813381D01*
X144724000Y-91241952D02*
X144771619Y-91194333D01*
X144866857Y-91146714D01*
X145009715Y-91146714D01*
X145104953Y-91194333D01*
X145152572Y-91289571D01*
X145152572Y-91813381D01*
X146009715Y-91765762D02*
X145914477Y-91813381D01*
X145724000Y-91813381D01*
X145628762Y-91765762D01*
X145581143Y-91670524D01*
X145581143Y-91289571D01*
X145628762Y-91194333D01*
X145724000Y-91146714D01*
X145914477Y-91146714D01*
X146009715Y-91194333D01*
X146057334Y-91289571D01*
X146057334Y-91384810D01*
X145581143Y-91480048D01*
X146390667Y-91146714D02*
X146914477Y-91146714D01*
X146390667Y-91813381D01*
X146914477Y-91813381D01*
D10*
X159978801Y-101881029D02*
X160093087Y-101881029D01*
X160150229Y-101909600D01*
X160207372Y-101966743D01*
X160235944Y-102081029D01*
X160235944Y-102281029D01*
X160207372Y-102395314D01*
X160150229Y-102452457D01*
X160093087Y-102481029D01*
X159978801Y-102481029D01*
X159921658Y-102452457D01*
X159864515Y-102395314D01*
X159835944Y-102281029D01*
X159835944Y-102081029D01*
X159864515Y-101966743D01*
X159921658Y-101909600D01*
X159978801Y-101881029D01*
X160493086Y-101881029D02*
X160493086Y-102366743D01*
X160521658Y-102423886D01*
X160550229Y-102452457D01*
X160607372Y-102481029D01*
X160721658Y-102481029D01*
X160778800Y-102452457D01*
X160807372Y-102423886D01*
X160835943Y-102366743D01*
X160835943Y-101881029D01*
X161035943Y-101881029D02*
X161378800Y-101881029D01*
X161207371Y-102481029D02*
X161207371Y-101881029D01*
X134707381Y-105084143D02*
X134707381Y-104512714D01*
X135707381Y-104798429D02*
X134707381Y-104798429D01*
X134707381Y-103988905D02*
X134707381Y-103798428D01*
X134755000Y-103703190D01*
X134850238Y-103607952D01*
X135040714Y-103560333D01*
X135374048Y-103560333D01*
X135564524Y-103607952D01*
X135659762Y-103703190D01*
X135707381Y-103798428D01*
X135707381Y-103988905D01*
X135659762Y-104084143D01*
X135564524Y-104179381D01*
X135374048Y-104227000D01*
X135040714Y-104227000D01*
X134850238Y-104179381D01*
X134755000Y-104084143D01*
X134707381Y-103988905D01*
X135707381Y-103131762D02*
X134707381Y-103131762D01*
X134707381Y-102750809D01*
X134755000Y-102655571D01*
X134802619Y-102607952D01*
X134897857Y-102560333D01*
X135040714Y-102560333D01*
X135135952Y-102607952D01*
X135183571Y-102655571D01*
X135231190Y-102750809D01*
X135231190Y-103131762D01*
X135659762Y-101417476D02*
X135707381Y-101274619D01*
X135707381Y-101036523D01*
X135659762Y-100941285D01*
X135612143Y-100893666D01*
X135516905Y-100846047D01*
X135421667Y-100846047D01*
X135326429Y-100893666D01*
X135278810Y-100941285D01*
X135231190Y-101036523D01*
X135183571Y-101227000D01*
X135135952Y-101322238D01*
X135088333Y-101369857D01*
X134993095Y-101417476D01*
X134897857Y-101417476D01*
X134802619Y-101369857D01*
X134755000Y-101322238D01*
X134707381Y-101227000D01*
X134707381Y-100988904D01*
X134755000Y-100846047D01*
X135707381Y-100417476D02*
X134707381Y-100417476D01*
X135707381Y-99941286D02*
X134707381Y-99941286D01*
X134707381Y-99703191D01*
X134755000Y-99560333D01*
X134850238Y-99465095D01*
X134945476Y-99417476D01*
X135135952Y-99369857D01*
X135278810Y-99369857D01*
X135469286Y-99417476D01*
X135564524Y-99465095D01*
X135659762Y-99560333D01*
X135707381Y-99703191D01*
X135707381Y-99941286D01*
X135183571Y-98941286D02*
X135183571Y-98607952D01*
X135707381Y-98465095D02*
X135707381Y-98941286D01*
X134707381Y-98941286D01*
X134707381Y-98465095D01*
D12*
X152034954Y-88227661D02*
X151701620Y-87751470D01*
X151463525Y-88227661D02*
X151463525Y-87227661D01*
X151844478Y-87227661D01*
X151939716Y-87275280D01*
X151987335Y-87322899D01*
X152034954Y-87418137D01*
X152034954Y-87560994D01*
X151987335Y-87656232D01*
X151939716Y-87703851D01*
X151844478Y-87751470D01*
X151463525Y-87751470D01*
X152844478Y-88180042D02*
X152749240Y-88227661D01*
X152558763Y-88227661D01*
X152463525Y-88180042D01*
X152415906Y-88084804D01*
X152415906Y-87703851D01*
X152463525Y-87608613D01*
X152558763Y-87560994D01*
X152749240Y-87560994D01*
X152844478Y-87608613D01*
X152892097Y-87703851D01*
X152892097Y-87799090D01*
X152415906Y-87894328D01*
X153177811Y-87560994D02*
X153558763Y-87560994D01*
X153320668Y-87227661D02*
X153320668Y-88084804D01*
X153368287Y-88180042D01*
X153463525Y-88227661D01*
X153558763Y-88227661D01*
X153892097Y-88227661D02*
X153892097Y-87560994D01*
X153892097Y-87751470D02*
X153939716Y-87656232D01*
X153987335Y-87608613D01*
X154082573Y-87560994D01*
X154177812Y-87560994D01*
X154654002Y-88227661D02*
X154558764Y-88180042D01*
X154511145Y-88132423D01*
X154463526Y-88037185D01*
X154463526Y-87751470D01*
X154511145Y-87656232D01*
X154558764Y-87608613D01*
X154654002Y-87560994D01*
X154796860Y-87560994D01*
X154892098Y-87608613D01*
X154939717Y-87656232D01*
X154987336Y-87751470D01*
X154987336Y-88037185D01*
X154939717Y-88132423D01*
X154892098Y-88180042D01*
X154796860Y-88227661D01*
X154654002Y-88227661D01*
X155749241Y-87703851D02*
X155415907Y-87703851D01*
X155415907Y-88227661D02*
X155415907Y-87227661D01*
X155892098Y-87227661D01*
X156415907Y-88227661D02*
X156320669Y-88180042D01*
X156273050Y-88084804D01*
X156273050Y-87227661D01*
X157225432Y-88227661D02*
X157225432Y-87703851D01*
X157177813Y-87608613D01*
X157082575Y-87560994D01*
X156892098Y-87560994D01*
X156796860Y-87608613D01*
X157225432Y-88180042D02*
X157130194Y-88227661D01*
X156892098Y-88227661D01*
X156796860Y-88180042D01*
X156749241Y-88084804D01*
X156749241Y-87989566D01*
X156796860Y-87894328D01*
X156892098Y-87846709D01*
X157130194Y-87846709D01*
X157225432Y-87799090D01*
X158130194Y-87560994D02*
X158130194Y-88370518D01*
X158082575Y-88465756D01*
X158034956Y-88513375D01*
X157939717Y-88560994D01*
X157796860Y-88560994D01*
X157701622Y-88513375D01*
X158130194Y-88180042D02*
X158034956Y-88227661D01*
X157844479Y-88227661D01*
X157749241Y-88180042D01*
X157701622Y-88132423D01*
X157654003Y-88037185D01*
X157654003Y-87751470D01*
X157701622Y-87656232D01*
X157749241Y-87608613D01*
X157844479Y-87560994D01*
X158034956Y-87560994D01*
X158130194Y-87608613D01*
X159368289Y-88227661D02*
X159368289Y-87227661D01*
X159939718Y-88227661D01*
X159939718Y-87227661D01*
X160415908Y-87703851D02*
X160749242Y-87703851D01*
X160892099Y-88227661D02*
X160415908Y-88227661D01*
X160415908Y-87227661D01*
X160892099Y-87227661D01*
X161273051Y-88180042D02*
X161415908Y-88227661D01*
X161654004Y-88227661D01*
X161749242Y-88180042D01*
X161796861Y-88132423D01*
X161844480Y-88037185D01*
X161844480Y-87941947D01*
X161796861Y-87846709D01*
X161749242Y-87799090D01*
X161654004Y-87751470D01*
X161463527Y-87703851D01*
X161368289Y-87656232D01*
X161320670Y-87608613D01*
X161273051Y-87513375D01*
X161273051Y-87418137D01*
X161320670Y-87322899D01*
X161368289Y-87275280D01*
X161463527Y-87227661D01*
X161701623Y-87227661D01*
X161844480Y-87275280D01*
X162273051Y-88227661D02*
X162273051Y-87227661D01*
X162654004Y-87227661D01*
X162749242Y-87275280D01*
X162796861Y-87322899D01*
X162844480Y-87418137D01*
X162844480Y-87560994D01*
X162796861Y-87656232D01*
X162749242Y-87703851D01*
X162654004Y-87751470D01*
X162273051Y-87751470D01*
X163273051Y-88227661D02*
X163273051Y-87560994D01*
X163273051Y-87227661D02*
X163225432Y-87275280D01*
X163273051Y-87322899D01*
X163320670Y-87275280D01*
X163273051Y-87227661D01*
X163273051Y-87322899D01*
X153296858Y-89782423D02*
X153249239Y-89830042D01*
X153106382Y-89877661D01*
X153011144Y-89877661D01*
X152868286Y-89830042D01*
X152773048Y-89734804D01*
X152725429Y-89639566D01*
X152677810Y-89449090D01*
X152677810Y-89306232D01*
X152725429Y-89115756D01*
X152773048Y-89020518D01*
X152868286Y-88925280D01*
X153011144Y-88877661D01*
X153106382Y-88877661D01*
X153249239Y-88925280D01*
X153296858Y-88972899D01*
X153868286Y-89877661D02*
X153773048Y-89830042D01*
X153725429Y-89782423D01*
X153677810Y-89687185D01*
X153677810Y-89401470D01*
X153725429Y-89306232D01*
X153773048Y-89258613D01*
X153868286Y-89210994D01*
X154011144Y-89210994D01*
X154106382Y-89258613D01*
X154154001Y-89306232D01*
X154201620Y-89401470D01*
X154201620Y-89687185D01*
X154154001Y-89782423D01*
X154106382Y-89830042D01*
X154011144Y-89877661D01*
X153868286Y-89877661D01*
X154630191Y-89210994D02*
X154630191Y-89877661D01*
X154630191Y-89306232D02*
X154677810Y-89258613D01*
X154773048Y-89210994D01*
X154915906Y-89210994D01*
X155011144Y-89258613D01*
X155058763Y-89353851D01*
X155058763Y-89877661D01*
X155392096Y-89210994D02*
X155773048Y-89210994D01*
X155534953Y-88877661D02*
X155534953Y-89734804D01*
X155582572Y-89830042D01*
X155677810Y-89877661D01*
X155773048Y-89877661D01*
X156106382Y-89877661D02*
X156106382Y-89210994D01*
X156106382Y-89401470D02*
X156154001Y-89306232D01*
X156201620Y-89258613D01*
X156296858Y-89210994D01*
X156392097Y-89210994D01*
X156868287Y-89877661D02*
X156773049Y-89830042D01*
X156725430Y-89782423D01*
X156677811Y-89687185D01*
X156677811Y-89401470D01*
X156725430Y-89306232D01*
X156773049Y-89258613D01*
X156868287Y-89210994D01*
X157011145Y-89210994D01*
X157106383Y-89258613D01*
X157154002Y-89306232D01*
X157201621Y-89401470D01*
X157201621Y-89687185D01*
X157154002Y-89782423D01*
X157106383Y-89830042D01*
X157011145Y-89877661D01*
X156868287Y-89877661D01*
X157773049Y-89877661D02*
X157677811Y-89830042D01*
X157630192Y-89734804D01*
X157630192Y-88877661D01*
X159249241Y-89353851D02*
X159392098Y-89401470D01*
X159439717Y-89449090D01*
X159487336Y-89544328D01*
X159487336Y-89687185D01*
X159439717Y-89782423D01*
X159392098Y-89830042D01*
X159296860Y-89877661D01*
X158915907Y-89877661D01*
X158915907Y-88877661D01*
X159249241Y-88877661D01*
X159344479Y-88925280D01*
X159392098Y-88972899D01*
X159439717Y-89068137D01*
X159439717Y-89163375D01*
X159392098Y-89258613D01*
X159344479Y-89306232D01*
X159249241Y-89353851D01*
X158915907Y-89353851D01*
X160058764Y-89877661D02*
X159963526Y-89830042D01*
X159915907Y-89782423D01*
X159868288Y-89687185D01*
X159868288Y-89401470D01*
X159915907Y-89306232D01*
X159963526Y-89258613D01*
X160058764Y-89210994D01*
X160201622Y-89210994D01*
X160296860Y-89258613D01*
X160344479Y-89306232D01*
X160392098Y-89401470D01*
X160392098Y-89687185D01*
X160344479Y-89782423D01*
X160296860Y-89830042D01*
X160201622Y-89877661D01*
X160058764Y-89877661D01*
X161249241Y-89877661D02*
X161249241Y-89353851D01*
X161201622Y-89258613D01*
X161106384Y-89210994D01*
X160915907Y-89210994D01*
X160820669Y-89258613D01*
X161249241Y-89830042D02*
X161154003Y-89877661D01*
X160915907Y-89877661D01*
X160820669Y-89830042D01*
X160773050Y-89734804D01*
X160773050Y-89639566D01*
X160820669Y-89544328D01*
X160915907Y-89496709D01*
X161154003Y-89496709D01*
X161249241Y-89449090D01*
X161725431Y-89877661D02*
X161725431Y-89210994D01*
X161725431Y-89401470D02*
X161773050Y-89306232D01*
X161820669Y-89258613D01*
X161915907Y-89210994D01*
X162011146Y-89210994D01*
X162773051Y-89877661D02*
X162773051Y-88877661D01*
X162773051Y-89830042D02*
X162677813Y-89877661D01*
X162487336Y-89877661D01*
X162392098Y-89830042D01*
X162344479Y-89782423D01*
X162296860Y-89687185D01*
X162296860Y-89401470D01*
X162344479Y-89306232D01*
X162392098Y-89258613D01*
X162487336Y-89210994D01*
X162677813Y-89210994D01*
X162773051Y-89258613D01*
D10*
X143091223Y-104773034D02*
X143091223Y-104973034D01*
X143405509Y-104973034D02*
X142805509Y-104973034D01*
X142805509Y-104687320D01*
X143234080Y-104487319D02*
X143234080Y-104201605D01*
X143405509Y-104544462D02*
X142805509Y-104344462D01*
X143405509Y-104144462D01*
X143405509Y-103944462D02*
X142805509Y-103944462D01*
X143405509Y-103601605D01*
X142805509Y-103601605D01*
X148339215Y-102366729D02*
X148339215Y-101766729D01*
X148624929Y-102366729D02*
X148624929Y-101766729D01*
X148967786Y-102366729D01*
X148967786Y-101766729D01*
X176182120Y-102160989D02*
X176182120Y-101560989D01*
X176410692Y-101560989D01*
X176467834Y-101589560D01*
X176496406Y-101618131D01*
X176524977Y-101675274D01*
X176524977Y-101760989D01*
X176496406Y-101818131D01*
X176467834Y-101846703D01*
X176410692Y-101875274D01*
X176182120Y-101875274D01*
X176724977Y-101560989D02*
X176867834Y-102160989D01*
X176982120Y-101732417D01*
X177096406Y-102160989D01*
X177239263Y-101560989D01*
X177810691Y-102160989D02*
X177610691Y-101875274D01*
X177467834Y-102160989D02*
X177467834Y-101560989D01*
X177696406Y-101560989D01*
X177753548Y-101589560D01*
X177782120Y-101618131D01*
X177810691Y-101675274D01*
X177810691Y-101760989D01*
X177782120Y-101818131D01*
X177753548Y-101846703D01*
X177696406Y-101875274D01*
X177467834Y-101875274D01*
X173920508Y-102237189D02*
X173720508Y-101951474D01*
X173577651Y-102237189D02*
X173577651Y-101637189D01*
X173806223Y-101637189D01*
X173863365Y-101665760D01*
X173891937Y-101694331D01*
X173920508Y-101751474D01*
X173920508Y-101837189D01*
X173891937Y-101894331D01*
X173863365Y-101922903D01*
X173806223Y-101951474D01*
X173577651Y-101951474D01*
X174149080Y-102208617D02*
X174234794Y-102237189D01*
X174377651Y-102237189D01*
X174434794Y-102208617D01*
X174463365Y-102180046D01*
X174491937Y-102122903D01*
X174491937Y-102065760D01*
X174463365Y-102008617D01*
X174434794Y-101980046D01*
X174377651Y-101951474D01*
X174263365Y-101922903D01*
X174206223Y-101894331D01*
X174177651Y-101865760D01*
X174149080Y-101808617D01*
X174149080Y-101751474D01*
X174177651Y-101694331D01*
X174206223Y-101665760D01*
X174263365Y-101637189D01*
X174406223Y-101637189D01*
X174491937Y-101665760D01*
X174663366Y-101637189D02*
X175006223Y-101637189D01*
X174834794Y-102237189D02*
X174834794Y-101637189D01*
X169592463Y-101877183D02*
X169392463Y-101877183D01*
X169392463Y-102191469D02*
X169392463Y-101591469D01*
X169678177Y-101591469D01*
X169878178Y-102020040D02*
X170163892Y-102020040D01*
X169821035Y-102191469D02*
X170021035Y-101591469D01*
X170221035Y-102191469D01*
X170421035Y-102191469D02*
X170421035Y-101591469D01*
X170763892Y-102191469D01*
X170763892Y-101591469D01*
X171849606Y-102134326D02*
X171821035Y-102162897D01*
X171735321Y-102191469D01*
X171678178Y-102191469D01*
X171592463Y-102162897D01*
X171535321Y-102105754D01*
X171506749Y-102048611D01*
X171478178Y-101934326D01*
X171478178Y-101848611D01*
X171506749Y-101734326D01*
X171535321Y-101677183D01*
X171592463Y-101620040D01*
X171678178Y-101591469D01*
X171735321Y-101591469D01*
X171821035Y-101620040D01*
X171849606Y-101648611D01*
X172021035Y-101591469D02*
X172363892Y-101591469D01*
X172192463Y-102191469D02*
X172192463Y-101591469D01*
X162458429Y-102150857D02*
X162915572Y-102150857D01*
X164134829Y-102176257D02*
X164591972Y-102176257D01*
X164363401Y-102404829D02*
X164363401Y-101947686D01*
X158191229Y-102150857D02*
X158648372Y-102150857D01*
X158419801Y-102379429D02*
X158419801Y-101922286D01*
X156514829Y-102112757D02*
X156971972Y-102112757D01*
X149860029Y-102049257D02*
X150317172Y-102049257D01*
X150088601Y-102277829D02*
X150088601Y-101820686D01*
X147142229Y-102074657D02*
X147599372Y-102074657D01*
D12*
X161723676Y-85440781D02*
X161723676Y-84440781D01*
X162104629Y-84440781D01*
X162199867Y-84488400D01*
X162247486Y-84536019D01*
X162295105Y-84631257D01*
X162295105Y-84774114D01*
X162247486Y-84869352D01*
X162199867Y-84916971D01*
X162104629Y-84964590D01*
X161723676Y-84964590D01*
X162914152Y-84440781D02*
X163104629Y-84440781D01*
X163199867Y-84488400D01*
X163295105Y-84583638D01*
X163342724Y-84774114D01*
X163342724Y-85107448D01*
X163295105Y-85297924D01*
X163199867Y-85393162D01*
X163104629Y-85440781D01*
X162914152Y-85440781D01*
X162818914Y-85393162D01*
X162723676Y-85297924D01*
X162676057Y-85107448D01*
X162676057Y-84774114D01*
X162723676Y-84583638D01*
X162818914Y-84488400D01*
X162914152Y-84440781D01*
X163676057Y-84440781D02*
X163914152Y-85440781D01*
X164104629Y-84726495D01*
X164295105Y-85440781D01*
X164533200Y-84440781D01*
X164914152Y-84916971D02*
X165247486Y-84916971D01*
X165390343Y-85440781D02*
X164914152Y-85440781D01*
X164914152Y-84440781D01*
X165390343Y-84440781D01*
X166390343Y-85440781D02*
X166057009Y-84964590D01*
X165818914Y-85440781D02*
X165818914Y-84440781D01*
X166199867Y-84440781D01*
X166295105Y-84488400D01*
X166342724Y-84536019D01*
X166390343Y-84631257D01*
X166390343Y-84774114D01*
X166342724Y-84869352D01*
X166295105Y-84916971D01*
X166199867Y-84964590D01*
X165818914Y-84964590D01*
X149245819Y-85440781D02*
X148912485Y-84964590D01*
X148674390Y-85440781D02*
X148674390Y-84440781D01*
X149055343Y-84440781D01*
X149150581Y-84488400D01*
X149198200Y-84536019D01*
X149245819Y-84631257D01*
X149245819Y-84774114D01*
X149198200Y-84869352D01*
X149150581Y-84916971D01*
X149055343Y-84964590D01*
X148674390Y-84964590D01*
X149674390Y-84916971D02*
X150007724Y-84916971D01*
X150150581Y-85440781D02*
X149674390Y-85440781D01*
X149674390Y-84440781D01*
X150150581Y-84440781D01*
X150531533Y-85393162D02*
X150674390Y-85440781D01*
X150912486Y-85440781D01*
X151007724Y-85393162D01*
X151055343Y-85345543D01*
X151102962Y-85250305D01*
X151102962Y-85155067D01*
X151055343Y-85059829D01*
X151007724Y-85012210D01*
X150912486Y-84964590D01*
X150722009Y-84916971D01*
X150626771Y-84869352D01*
X150579152Y-84821733D01*
X150531533Y-84726495D01*
X150531533Y-84631257D01*
X150579152Y-84536019D01*
X150626771Y-84488400D01*
X150722009Y-84440781D01*
X150960105Y-84440781D01*
X151102962Y-84488400D01*
X151531533Y-84916971D02*
X151864867Y-84916971D01*
X152007724Y-85440781D02*
X151531533Y-85440781D01*
X151531533Y-84440781D01*
X152007724Y-84440781D01*
X152293438Y-84440781D02*
X152864867Y-84440781D01*
X152579152Y-85440781D02*
X152579152Y-84440781D01*
D10*
X171246771Y-97248657D02*
X170789628Y-97248657D01*
X173837571Y-97223257D02*
X173380428Y-97223257D01*
X173608999Y-97451829D02*
X173608999Y-96994686D01*
X137820429Y-97451857D02*
X138277572Y-97451857D01*
X138049001Y-97680429D02*
X138049001Y-97223286D01*
X139725429Y-97578857D02*
X140182572Y-97578857D01*
D11*
X146066000Y-102835000D02*
X146066000Y-105495000D01*
X148666000Y-102835000D02*
X146066000Y-102835000D01*
X148666000Y-105495000D02*
X146066000Y-105495000D01*
X148666000Y-102835000D02*
X148666000Y-105495000D01*
X149936000Y-102835000D02*
X151266000Y-102835000D01*
X151266000Y-102835000D02*
X151266000Y-104165000D01*
X155413000Y-102835000D02*
X155413000Y-105495000D01*
X163093000Y-102835000D02*
X155413000Y-102835000D01*
X163093000Y-105495000D02*
X155413000Y-105495000D01*
X163093000Y-102835000D02*
X163093000Y-105495000D01*
X164363000Y-102835000D02*
X165693000Y-102835000D01*
X165693000Y-102835000D02*
X165693000Y-104165000D01*
X169993000Y-102835000D02*
X169993000Y-105495000D01*
X175133000Y-102835000D02*
X169993000Y-102835000D01*
X175133000Y-105495000D02*
X169993000Y-105495000D01*
X175133000Y-102835000D02*
X175133000Y-105495000D01*
X176403000Y-102835000D02*
X177733000Y-102835000D01*
X177733000Y-102835000D02*
X177733000Y-104165000D01*
X138473000Y-105448100D02*
X138473000Y-101098100D01*
X138473000Y-101098100D02*
X139473000Y-101098100D01*
X139473000Y-101098100D02*
X139473000Y-105448100D01*
X137173000Y-99248100D02*
X136823000Y-99248100D01*
X136823000Y-99248100D02*
X136823000Y-97648100D01*
X136823000Y-97648100D02*
X135923000Y-97648100D01*
X135923000Y-97648100D02*
X135923000Y-105448100D01*
X135923000Y-105448100D02*
X142023000Y-105448100D01*
X142023000Y-105448100D02*
X142023000Y-97648100D01*
X142023000Y-97648100D02*
X141123000Y-97648100D01*
X141123000Y-97648100D02*
X141123000Y-99248100D01*
X141123000Y-99248100D02*
X140773000Y-99248100D01*
X135923000Y-99248100D02*
X136823000Y-99248100D01*
X142023000Y-99248100D02*
X141123000Y-99248100D01*
X136673000Y-101598100D02*
X136673000Y-103198100D01*
X136673000Y-103198100D02*
X137673000Y-103198100D01*
X137673000Y-103198100D02*
X137673000Y-101598100D01*
X137673000Y-101598100D02*
X136673000Y-101598100D01*
X141273000Y-101598100D02*
X141273000Y-103198100D01*
X141273000Y-103198100D02*
X140273000Y-103198100D01*
X140273000Y-103198100D02*
X140273000Y-101598100D01*
X140273000Y-101598100D02*
X141273000Y-101598100D01*
X137673000Y-103198100D02*
X137673000Y-105448100D01*
X137173000Y-103198100D02*
X137173000Y-105448100D01*
X137173000Y-99248100D02*
X137173000Y-98048100D01*
M02*
