G04 #@! TF.FileFunction,Legend,Bot*
%FSLAX46Y46*%
G04 Gerber Fmt 4.6, Leading zero omitted, Abs format (unit mm)*
G04 Created by KiCad (PCBNEW 4.0.7) date 12/06/17 15:50:57*
%MOMM*%
%LPD*%
G01*
G04 APERTURE LIST*
%ADD10C,0.127000*%
%ADD11C,0.120000*%
%ADD12C,0.150000*%
G04 APERTURE END LIST*
D10*
X145366810Y-103973381D02*
X145033477Y-104973381D01*
X144700143Y-103973381D01*
X143081095Y-104973381D02*
X143652524Y-104973381D01*
X143366810Y-104973381D02*
X143366810Y-103973381D01*
X143462048Y-104116238D01*
X143557286Y-104211476D01*
X143652524Y-104259095D01*
X142128714Y-104973381D02*
X142700143Y-104973381D01*
X142414429Y-104973381D02*
X142414429Y-103973381D01*
X142509667Y-104116238D01*
X142604905Y-104211476D01*
X142700143Y-104259095D01*
X141176333Y-104973381D02*
X141747762Y-104973381D01*
X141462048Y-104973381D02*
X141462048Y-103973381D01*
X141557286Y-104116238D01*
X141652524Y-104211476D01*
X141747762Y-104259095D01*
X140557286Y-103973381D02*
X140462047Y-103973381D01*
X140366809Y-104021000D01*
X140319190Y-104068619D01*
X140271571Y-104163857D01*
X140223952Y-104354333D01*
X140223952Y-104592429D01*
X140271571Y-104782905D01*
X140319190Y-104878143D01*
X140366809Y-104925762D01*
X140462047Y-104973381D01*
X140557286Y-104973381D01*
X140652524Y-104925762D01*
X140700143Y-104878143D01*
X140747762Y-104782905D01*
X140795381Y-104592429D01*
X140795381Y-104354333D01*
X140747762Y-104163857D01*
X140700143Y-104068619D01*
X140652524Y-104021000D01*
X140557286Y-103973381D01*
X139843000Y-104068619D02*
X139795381Y-104021000D01*
X139700143Y-103973381D01*
X139462047Y-103973381D01*
X139366809Y-104021000D01*
X139319190Y-104068619D01*
X139271571Y-104163857D01*
X139271571Y-104259095D01*
X139319190Y-104401952D01*
X139890619Y-104973381D01*
X139271571Y-104973381D01*
X138652524Y-103973381D02*
X138557285Y-103973381D01*
X138462047Y-104021000D01*
X138414428Y-104068619D01*
X138366809Y-104163857D01*
X138319190Y-104354333D01*
X138319190Y-104592429D01*
X138366809Y-104782905D01*
X138414428Y-104878143D01*
X138462047Y-104925762D01*
X138557285Y-104973381D01*
X138652524Y-104973381D01*
X138747762Y-104925762D01*
X138795381Y-104878143D01*
X138843000Y-104782905D01*
X138890619Y-104592429D01*
X138890619Y-104354333D01*
X138843000Y-104163857D01*
X138795381Y-104068619D01*
X138747762Y-104021000D01*
X138652524Y-103973381D01*
X137366809Y-104973381D02*
X137938238Y-104973381D01*
X137652524Y-104973381D02*
X137652524Y-103973381D01*
X137747762Y-104116238D01*
X137843000Y-104211476D01*
X137938238Y-104259095D01*
X137033476Y-103973381D02*
X136366809Y-103973381D01*
X136795381Y-104973381D01*
X135056571Y-98068239D02*
X135104190Y-98211096D01*
X135151810Y-98258715D01*
X135247048Y-98306334D01*
X135389905Y-98306334D01*
X135485143Y-98258715D01*
X135532762Y-98211096D01*
X135580381Y-98115858D01*
X135580381Y-97734905D01*
X134580381Y-97734905D01*
X134580381Y-98068239D01*
X134628000Y-98163477D01*
X134675619Y-98211096D01*
X134770857Y-98258715D01*
X134866095Y-98258715D01*
X134961333Y-98211096D01*
X135008952Y-98163477D01*
X135056571Y-98068239D01*
X135056571Y-97734905D01*
X135294667Y-98687286D02*
X135294667Y-99163477D01*
X135580381Y-98592048D02*
X134580381Y-98925381D01*
X135580381Y-99258715D01*
X135485143Y-100163477D02*
X135532762Y-100115858D01*
X135580381Y-99973001D01*
X135580381Y-99877763D01*
X135532762Y-99734905D01*
X135437524Y-99639667D01*
X135342286Y-99592048D01*
X135151810Y-99544429D01*
X135008952Y-99544429D01*
X134818476Y-99592048D01*
X134723238Y-99639667D01*
X134628000Y-99734905D01*
X134580381Y-99877763D01*
X134580381Y-99973001D01*
X134628000Y-100115858D01*
X134675619Y-100163477D01*
X135580381Y-100592048D02*
X134580381Y-100592048D01*
X135580381Y-101163477D02*
X135008952Y-100734905D01*
X134580381Y-101163477D02*
X135151810Y-100592048D01*
X135532762Y-102306334D02*
X135580381Y-102449191D01*
X135580381Y-102687287D01*
X135532762Y-102782525D01*
X135485143Y-102830144D01*
X135389905Y-102877763D01*
X135294667Y-102877763D01*
X135199429Y-102830144D01*
X135151810Y-102782525D01*
X135104190Y-102687287D01*
X135056571Y-102496810D01*
X135008952Y-102401572D01*
X134961333Y-102353953D01*
X134866095Y-102306334D01*
X134770857Y-102306334D01*
X134675619Y-102353953D01*
X134628000Y-102401572D01*
X134580381Y-102496810D01*
X134580381Y-102734906D01*
X134628000Y-102877763D01*
X135580381Y-103306334D02*
X134580381Y-103306334D01*
X135580381Y-103782524D02*
X134580381Y-103782524D01*
X134580381Y-104020619D01*
X134628000Y-104163477D01*
X134723238Y-104258715D01*
X134818476Y-104306334D01*
X135008952Y-104353953D01*
X135151810Y-104353953D01*
X135342286Y-104306334D01*
X135437524Y-104258715D01*
X135532762Y-104163477D01*
X135580381Y-104020619D01*
X135580381Y-103782524D01*
X135056571Y-104782524D02*
X135056571Y-105115858D01*
X135580381Y-105258715D02*
X135580381Y-104782524D01*
X134580381Y-104782524D01*
X134580381Y-105258715D01*
X174477651Y-94022857D02*
X174020508Y-94022857D01*
X174249079Y-94251429D02*
X174249079Y-93794286D01*
X170479691Y-93951737D02*
X170022548Y-93951737D01*
X177263960Y-102181309D02*
X177263960Y-101581309D01*
X177035388Y-101581309D01*
X176978246Y-101609880D01*
X176949674Y-101638451D01*
X176921103Y-101695594D01*
X176921103Y-101781309D01*
X176949674Y-101838451D01*
X176978246Y-101867023D01*
X177035388Y-101895594D01*
X177263960Y-101895594D01*
X176721103Y-101581309D02*
X176578246Y-102181309D01*
X176463960Y-101752737D01*
X176349674Y-102181309D01*
X176206817Y-101581309D01*
X175635389Y-102181309D02*
X175835389Y-101895594D01*
X175978246Y-102181309D02*
X175978246Y-101581309D01*
X175749674Y-101581309D01*
X175692532Y-101609880D01*
X175663960Y-101638451D01*
X175635389Y-101695594D01*
X175635389Y-101781309D01*
X175663960Y-101838451D01*
X175692532Y-101867023D01*
X175749674Y-101895594D01*
X175978246Y-101895594D01*
X174293172Y-102211789D02*
X174493172Y-101926074D01*
X174636029Y-102211789D02*
X174636029Y-101611789D01*
X174407457Y-101611789D01*
X174350315Y-101640360D01*
X174321743Y-101668931D01*
X174293172Y-101726074D01*
X174293172Y-101811789D01*
X174321743Y-101868931D01*
X174350315Y-101897503D01*
X174407457Y-101926074D01*
X174636029Y-101926074D01*
X174064600Y-102183217D02*
X173978886Y-102211789D01*
X173836029Y-102211789D01*
X173778886Y-102183217D01*
X173750315Y-102154646D01*
X173721743Y-102097503D01*
X173721743Y-102040360D01*
X173750315Y-101983217D01*
X173778886Y-101954646D01*
X173836029Y-101926074D01*
X173950315Y-101897503D01*
X174007457Y-101868931D01*
X174036029Y-101840360D01*
X174064600Y-101783217D01*
X174064600Y-101726074D01*
X174036029Y-101668931D01*
X174007457Y-101640360D01*
X173950315Y-101611789D01*
X173807457Y-101611789D01*
X173721743Y-101640360D01*
X173550314Y-101611789D02*
X173207457Y-101611789D01*
X173378886Y-102211789D02*
X173378886Y-101611789D01*
X172037537Y-101867023D02*
X172237537Y-101867023D01*
X172237537Y-102181309D02*
X172237537Y-101581309D01*
X171951823Y-101581309D01*
X171751822Y-102009880D02*
X171466108Y-102009880D01*
X171808965Y-102181309D02*
X171608965Y-101581309D01*
X171408965Y-102181309D01*
X171208965Y-102181309D02*
X171208965Y-101581309D01*
X170866108Y-102181309D01*
X170866108Y-101581309D01*
X169780394Y-102124166D02*
X169808965Y-102152737D01*
X169894679Y-102181309D01*
X169951822Y-102181309D01*
X170037537Y-102152737D01*
X170094679Y-102095594D01*
X170123251Y-102038451D01*
X170151822Y-101924166D01*
X170151822Y-101838451D01*
X170123251Y-101724166D01*
X170094679Y-101667023D01*
X170037537Y-101609880D01*
X169951822Y-101581309D01*
X169894679Y-101581309D01*
X169808965Y-101609880D01*
X169780394Y-101638451D01*
X169608965Y-101581309D02*
X169266108Y-101581309D01*
X169437537Y-102181309D02*
X169437537Y-101581309D01*
X164134829Y-102176257D02*
X164591972Y-102176257D01*
X164363401Y-102404829D02*
X164363401Y-101947686D01*
X162458429Y-102150857D02*
X162915572Y-102150857D01*
X158191229Y-102150857D02*
X158648372Y-102150857D01*
X158419801Y-102379429D02*
X158419801Y-101922286D01*
X156524989Y-102105137D02*
X156982132Y-102105137D01*
X149880349Y-102054337D02*
X150337492Y-102054337D01*
X150108921Y-102282909D02*
X150108921Y-101825766D01*
X148975405Y-102374349D02*
X148975405Y-101774349D01*
X148689691Y-102374349D02*
X148689691Y-101774349D01*
X148346834Y-102374349D01*
X148346834Y-101774349D01*
X147142229Y-102074657D02*
X147599372Y-102074657D01*
X137820429Y-97451857D02*
X138277572Y-97451857D01*
X138049001Y-97680429D02*
X138049001Y-97223286D01*
X139725429Y-97578857D02*
X140182572Y-97578857D01*
X161178799Y-101881029D02*
X161064513Y-101881029D01*
X161007371Y-101909600D01*
X160950228Y-101966743D01*
X160921656Y-102081029D01*
X160921656Y-102281029D01*
X160950228Y-102395314D01*
X161007371Y-102452457D01*
X161064513Y-102481029D01*
X161178799Y-102481029D01*
X161235942Y-102452457D01*
X161293085Y-102395314D01*
X161321656Y-102281029D01*
X161321656Y-102081029D01*
X161293085Y-101966743D01*
X161235942Y-101909600D01*
X161178799Y-101881029D01*
X160664514Y-101881029D02*
X160664514Y-102366743D01*
X160635942Y-102423886D01*
X160607371Y-102452457D01*
X160550228Y-102481029D01*
X160435942Y-102481029D01*
X160378800Y-102452457D01*
X160350228Y-102423886D01*
X160321657Y-102366743D01*
X160321657Y-101881029D01*
X160121657Y-101881029D02*
X159778800Y-101881029D01*
X159950229Y-102481029D02*
X159950229Y-101881029D01*
D11*
X173848000Y-87868600D02*
G75*
G03X170728000Y-87868600I-1560000J0D01*
G01*
X170728000Y-91728600D02*
X170728000Y-87868600D01*
X173848000Y-91728600D02*
X173848000Y-87868600D01*
X170728000Y-91728600D02*
X173848000Y-91728600D01*
X174248000Y-91728600D02*
X174248000Y-90608600D01*
X174248000Y-90608600D02*
X173848000Y-90608600D01*
X173848000Y-90608600D02*
X173848000Y-91728600D01*
X173848000Y-91728600D02*
X174248000Y-91728600D01*
X171018000Y-94398600D02*
X171018000Y-91728600D01*
X171018000Y-91728600D02*
X171018000Y-91728600D01*
X171018000Y-91728600D02*
X171018000Y-94398600D01*
X171018000Y-94398600D02*
X171018000Y-94398600D01*
X173558000Y-94398600D02*
X173558000Y-91728600D01*
X173558000Y-91728600D02*
X173558000Y-91728600D01*
X173558000Y-91728600D02*
X173558000Y-94398600D01*
X173558000Y-94398600D02*
X173558000Y-94398600D01*
X171092000Y-100297800D02*
X171092000Y-98177800D01*
X171092000Y-98177800D02*
X175212000Y-98177800D01*
X175212000Y-98177800D02*
X175212000Y-100297800D01*
X175212000Y-100297800D02*
X171092000Y-100297800D01*
X170322000Y-99237800D02*
X171092000Y-99237800D01*
X175982000Y-99237800D02*
X175212000Y-99237800D01*
X171752000Y-100297800D02*
X171752000Y-98177800D01*
X156134000Y-96617600D02*
X156134000Y-93827600D01*
X157404000Y-96617600D02*
X157404000Y-93827600D01*
X158674000Y-96617600D02*
X158674000Y-93827600D01*
X155004000Y-93827600D02*
X159804000Y-93827600D01*
X159804000Y-93827600D02*
X159804000Y-88637600D01*
X159804000Y-88637600D02*
X155004000Y-88637600D01*
X155004000Y-88637600D02*
X155004000Y-93827600D01*
X137733000Y-92237000D02*
X135113000Y-92237000D01*
X135113000Y-92237000D02*
X135113000Y-85817000D01*
X135113000Y-85817000D02*
X137733000Y-85817000D01*
X137733000Y-85817000D02*
X137733000Y-92237000D01*
X136423000Y-93127000D02*
X136423000Y-92237000D01*
X136423000Y-84927000D02*
X136423000Y-85817000D01*
X141569000Y-92287800D02*
X138949000Y-92287800D01*
X138949000Y-92287800D02*
X138949000Y-85867800D01*
X138949000Y-85867800D02*
X141569000Y-85867800D01*
X141569000Y-85867800D02*
X141569000Y-92287800D01*
X140259000Y-93177800D02*
X140259000Y-92287800D01*
X140259000Y-84977800D02*
X140259000Y-85867800D01*
D12*
X167411000Y-101295200D02*
X160299000Y-101295200D01*
X167411000Y-101295200D02*
X167411000Y-86055200D01*
X167411000Y-86055200D02*
X160299000Y-86055200D01*
X160299000Y-101295200D02*
X160299000Y-86055200D01*
X154381000Y-101295200D02*
X147269000Y-101295200D01*
X154381000Y-101295200D02*
X154381000Y-86055200D01*
X154381000Y-86055200D02*
X147269000Y-86055200D01*
X147269000Y-101295200D02*
X147269000Y-86055200D01*
X175162577Y-97759781D02*
X175734006Y-97759781D01*
X175448292Y-97759781D02*
X175448292Y-96759781D01*
X175543530Y-96902638D01*
X175638768Y-96997876D01*
X175734006Y-97045495D01*
X174734006Y-97759781D02*
X174734006Y-96759781D01*
X174162577Y-97759781D01*
X174162577Y-96759781D01*
X173257815Y-97093114D02*
X173257815Y-97759781D01*
X173495911Y-96712162D02*
X173734006Y-97426448D01*
X173114958Y-97426448D01*
X172210196Y-97759781D02*
X172781625Y-97759781D01*
X172495911Y-97759781D02*
X172495911Y-96759781D01*
X172591149Y-96902638D01*
X172686387Y-96997876D01*
X172781625Y-97045495D01*
X171353053Y-97093114D02*
X171353053Y-97759781D01*
X171591149Y-96712162D02*
X171829244Y-97426448D01*
X171210196Y-97426448D01*
X170686387Y-97188352D02*
X170781625Y-97140733D01*
X170829244Y-97093114D01*
X170876863Y-96997876D01*
X170876863Y-96950257D01*
X170829244Y-96855019D01*
X170781625Y-96807400D01*
X170686387Y-96759781D01*
X170495910Y-96759781D01*
X170400672Y-96807400D01*
X170353053Y-96855019D01*
X170305434Y-96950257D01*
X170305434Y-96997876D01*
X170353053Y-97093114D01*
X170400672Y-97140733D01*
X170495910Y-97188352D01*
X170686387Y-97188352D01*
X170781625Y-97235971D01*
X170829244Y-97283590D01*
X170876863Y-97378829D01*
X170876863Y-97569305D01*
X170829244Y-97664543D01*
X170781625Y-97712162D01*
X170686387Y-97759781D01*
X170495910Y-97759781D01*
X170400672Y-97712162D01*
X170353053Y-97664543D01*
X170305434Y-97569305D01*
X170305434Y-97378829D01*
X170353053Y-97283590D01*
X170400672Y-97235971D01*
X170495910Y-97188352D01*
X139722323Y-101160271D02*
X140055657Y-101160271D01*
X140055657Y-101684081D02*
X140055657Y-100684081D01*
X139579466Y-100684081D01*
X139246133Y-101398367D02*
X138769942Y-101398367D01*
X139341371Y-101684081D02*
X139008038Y-100684081D01*
X138674704Y-101684081D01*
X138341371Y-101684081D02*
X138341371Y-100684081D01*
X137769942Y-101684081D01*
X137769942Y-100684081D01*
X160094476Y-99869981D02*
X160094476Y-98869981D01*
X159713523Y-98869981D01*
X159618285Y-98917600D01*
X159570666Y-98965219D01*
X159523047Y-99060457D01*
X159523047Y-99203314D01*
X159570666Y-99298552D01*
X159618285Y-99346171D01*
X159713523Y-99393790D01*
X160094476Y-99393790D01*
X159094476Y-99869981D02*
X159094476Y-98869981D01*
X158523047Y-99869981D01*
X158523047Y-98869981D01*
X158094476Y-98965219D02*
X158046857Y-98917600D01*
X157951619Y-98869981D01*
X157713523Y-98869981D01*
X157618285Y-98917600D01*
X157570666Y-98965219D01*
X157523047Y-99060457D01*
X157523047Y-99155695D01*
X157570666Y-99298552D01*
X158142095Y-99869981D01*
X157523047Y-99869981D01*
X157142095Y-98965219D02*
X157094476Y-98917600D01*
X156999238Y-98869981D01*
X156761142Y-98869981D01*
X156665904Y-98917600D01*
X156618285Y-98965219D01*
X156570666Y-99060457D01*
X156570666Y-99155695D01*
X156618285Y-99298552D01*
X157189714Y-99869981D01*
X156570666Y-99869981D01*
X156189714Y-98965219D02*
X156142095Y-98917600D01*
X156046857Y-98869981D01*
X155808761Y-98869981D01*
X155713523Y-98917600D01*
X155665904Y-98965219D01*
X155618285Y-99060457D01*
X155618285Y-99155695D01*
X155665904Y-99298552D01*
X156237333Y-99869981D01*
X155618285Y-99869981D01*
X155237333Y-98965219D02*
X155189714Y-98917600D01*
X155094476Y-98869981D01*
X154856380Y-98869981D01*
X154761142Y-98917600D01*
X154713523Y-98965219D01*
X154665904Y-99060457D01*
X154665904Y-99155695D01*
X154713523Y-99298552D01*
X155284952Y-99869981D01*
X154665904Y-99869981D01*
X136900781Y-87860334D02*
X136900781Y-87288905D01*
X136900781Y-87574619D02*
X135900781Y-87574619D01*
X136043638Y-87479381D01*
X136138876Y-87384143D01*
X136186495Y-87288905D01*
X135900781Y-88765096D02*
X135900781Y-88288905D01*
X136376971Y-88241286D01*
X136329352Y-88288905D01*
X136281733Y-88384143D01*
X136281733Y-88622239D01*
X136329352Y-88717477D01*
X136376971Y-88765096D01*
X136472210Y-88812715D01*
X136710305Y-88812715D01*
X136805543Y-88765096D01*
X136853162Y-88717477D01*
X136900781Y-88622239D01*
X136900781Y-88384143D01*
X136853162Y-88288905D01*
X136805543Y-88241286D01*
X135900781Y-89431762D02*
X135900781Y-89527001D01*
X135948400Y-89622239D01*
X135996019Y-89669858D01*
X136091257Y-89717477D01*
X136281733Y-89765096D01*
X136519829Y-89765096D01*
X136710305Y-89717477D01*
X136805543Y-89669858D01*
X136853162Y-89622239D01*
X136900781Y-89527001D01*
X136900781Y-89431762D01*
X136853162Y-89336524D01*
X136805543Y-89288905D01*
X136710305Y-89241286D01*
X136519829Y-89193667D01*
X136281733Y-89193667D01*
X136091257Y-89241286D01*
X135996019Y-89288905D01*
X135948400Y-89336524D01*
X135900781Y-89431762D01*
X136900781Y-90765096D02*
X136424590Y-90431762D01*
X136900781Y-90193667D02*
X135900781Y-90193667D01*
X135900781Y-90574620D01*
X135948400Y-90669858D01*
X135996019Y-90717477D01*
X136091257Y-90765096D01*
X136234114Y-90765096D01*
X136329352Y-90717477D01*
X136376971Y-90669858D01*
X136424590Y-90574620D01*
X136424590Y-90193667D01*
X139781219Y-87892095D02*
X139733600Y-87939714D01*
X139685981Y-88034952D01*
X139685981Y-88273048D01*
X139733600Y-88368286D01*
X139781219Y-88415905D01*
X139876457Y-88463524D01*
X139971695Y-88463524D01*
X140114552Y-88415905D01*
X140685981Y-87844476D01*
X140685981Y-88463524D01*
X140685981Y-88892095D02*
X139685981Y-88892095D01*
X140685981Y-89463524D02*
X140114552Y-89034952D01*
X139685981Y-89463524D02*
X140257410Y-88892095D01*
X139781219Y-89844476D02*
X139733600Y-89892095D01*
X139685981Y-89987333D01*
X139685981Y-90225429D01*
X139733600Y-90320667D01*
X139781219Y-90368286D01*
X139876457Y-90415905D01*
X139971695Y-90415905D01*
X140114552Y-90368286D01*
X140685981Y-89796857D01*
X140685981Y-90415905D01*
X166088324Y-85440781D02*
X166088324Y-84440781D01*
X165707371Y-84440781D01*
X165612133Y-84488400D01*
X165564514Y-84536019D01*
X165516895Y-84631257D01*
X165516895Y-84774114D01*
X165564514Y-84869352D01*
X165612133Y-84916971D01*
X165707371Y-84964590D01*
X166088324Y-84964590D01*
X164897848Y-84440781D02*
X164707371Y-84440781D01*
X164612133Y-84488400D01*
X164516895Y-84583638D01*
X164469276Y-84774114D01*
X164469276Y-85107448D01*
X164516895Y-85297924D01*
X164612133Y-85393162D01*
X164707371Y-85440781D01*
X164897848Y-85440781D01*
X164993086Y-85393162D01*
X165088324Y-85297924D01*
X165135943Y-85107448D01*
X165135943Y-84774114D01*
X165088324Y-84583638D01*
X164993086Y-84488400D01*
X164897848Y-84440781D01*
X164135943Y-84440781D02*
X163897848Y-85440781D01*
X163707371Y-84726495D01*
X163516895Y-85440781D01*
X163278800Y-84440781D01*
X162897848Y-84916971D02*
X162564514Y-84916971D01*
X162421657Y-85440781D02*
X162897848Y-85440781D01*
X162897848Y-84440781D01*
X162421657Y-84440781D01*
X161421657Y-85440781D02*
X161754991Y-84964590D01*
X161993086Y-85440781D02*
X161993086Y-84440781D01*
X161612133Y-84440781D01*
X161516895Y-84488400D01*
X161469276Y-84536019D01*
X161421657Y-84631257D01*
X161421657Y-84774114D01*
X161469276Y-84869352D01*
X161516895Y-84916971D01*
X161612133Y-84964590D01*
X161993086Y-84964590D01*
X152277381Y-85440781D02*
X152610715Y-84964590D01*
X152848810Y-85440781D02*
X152848810Y-84440781D01*
X152467857Y-84440781D01*
X152372619Y-84488400D01*
X152325000Y-84536019D01*
X152277381Y-84631257D01*
X152277381Y-84774114D01*
X152325000Y-84869352D01*
X152372619Y-84916971D01*
X152467857Y-84964590D01*
X152848810Y-84964590D01*
X151848810Y-84916971D02*
X151515476Y-84916971D01*
X151372619Y-85440781D02*
X151848810Y-85440781D01*
X151848810Y-84440781D01*
X151372619Y-84440781D01*
X150991667Y-85393162D02*
X150848810Y-85440781D01*
X150610714Y-85440781D01*
X150515476Y-85393162D01*
X150467857Y-85345543D01*
X150420238Y-85250305D01*
X150420238Y-85155067D01*
X150467857Y-85059829D01*
X150515476Y-85012210D01*
X150610714Y-84964590D01*
X150801191Y-84916971D01*
X150896429Y-84869352D01*
X150944048Y-84821733D01*
X150991667Y-84726495D01*
X150991667Y-84631257D01*
X150944048Y-84536019D01*
X150896429Y-84488400D01*
X150801191Y-84440781D01*
X150563095Y-84440781D01*
X150420238Y-84488400D01*
X149991667Y-84916971D02*
X149658333Y-84916971D01*
X149515476Y-85440781D02*
X149991667Y-85440781D01*
X149991667Y-84440781D01*
X149515476Y-84440781D01*
X149229762Y-84440781D02*
X148658333Y-84440781D01*
X148944048Y-85440781D02*
X148944048Y-84440781D01*
M02*
