G04 #@! TF.FileFunction,Copper,L1,Top,Signal*
%FSLAX46Y46*%
G04 Gerber Fmt 4.6, Leading zero omitted, Abs format (unit mm)*
G04 Created by KiCad (PCBNEW 4.0.7) date 11/18/17 14:53:58*
%MOMM*%
%LPD*%
G01*
G04 APERTURE LIST*
%ADD10C,0.127000*%
%ADD11R,1.800000X1.800000*%
%ADD12C,1.800000*%
%ADD13R,1.600000X1.600000*%
%ADD14O,1.600000X1.600000*%
%ADD15R,1.700000X1.700000*%
%ADD16O,1.700000X1.700000*%
%ADD17R,1.200000X1.700000*%
%ADD18O,1.200000X1.700000*%
%ADD19O,0.900000X1.500000*%
%ADD20R,0.900000X1.500000*%
%ADD21C,1.600000*%
%ADD22C,1.524000*%
%ADD23C,0.254000*%
G04 APERTURE END LIST*
D10*
D11*
X171018000Y-95478600D03*
D12*
X173558000Y-95478600D03*
D13*
X169342000Y-99237800D03*
D14*
X176962000Y-99237800D03*
D15*
X149936000Y-104165000D03*
D16*
X147396000Y-104165000D03*
D15*
X164363000Y-104165000D03*
D16*
X161823000Y-104165000D03*
X159283000Y-104165000D03*
X156743000Y-104165000D03*
D15*
X176403000Y-104165000D03*
D16*
X173863000Y-104165000D03*
X171323000Y-104165000D03*
D17*
X137973000Y-99098100D03*
D18*
X139973000Y-99098100D03*
D19*
X157404000Y-97637600D03*
X158674000Y-97637600D03*
D20*
X156134000Y-97637600D03*
D21*
X136423000Y-94107000D03*
D14*
X136423000Y-83947000D03*
D21*
X140259000Y-94157800D03*
D14*
X140259000Y-83997800D03*
D22*
X165125000Y-92913200D03*
X165125000Y-95453200D03*
X165125000Y-97993200D03*
X162585000Y-92913200D03*
X162585000Y-95453200D03*
X162585000Y-97993200D03*
X152095000Y-92913200D03*
X152095000Y-95453200D03*
X152095000Y-97993200D03*
X149555000Y-92913200D03*
X149555000Y-95453200D03*
X149555000Y-97993200D03*
D23*
X154280300Y-105396400D02*
X155511700Y-104165000D01*
X148627400Y-105396400D02*
X154280300Y-105396400D01*
X147396000Y-104165000D02*
X148627400Y-105396400D01*
X156743000Y-104165000D02*
X155511700Y-104165000D01*
X168520700Y-94262600D02*
X169736700Y-95478600D01*
X163775600Y-94262600D02*
X168520700Y-94262600D01*
X162585000Y-95453200D02*
X163775600Y-94262600D01*
X171018000Y-95478600D02*
X169736700Y-95478600D01*
X148704700Y-103703200D02*
X148704700Y-104165000D01*
X147935200Y-102933700D02*
X148704700Y-103703200D01*
X142145900Y-102933700D02*
X147935200Y-102933700D01*
X138954300Y-99742100D02*
X142145900Y-102933700D01*
X138954300Y-99098100D02*
X138954300Y-99742100D01*
X137973000Y-99098100D02*
X138954300Y-99098100D01*
X160514300Y-104675200D02*
X160514300Y-104165000D01*
X161241500Y-105402400D02*
X160514300Y-104675200D01*
X162356000Y-105402400D02*
X161241500Y-105402400D01*
X163131700Y-104626700D02*
X162356000Y-105402400D01*
X163131700Y-104165000D02*
X163131700Y-104626700D01*
X164363000Y-104165000D02*
X163131700Y-104165000D01*
X159283000Y-104165000D02*
X160514300Y-104165000D01*
X149320400Y-104165000D02*
X148704700Y-104165000D01*
X149320400Y-104165000D02*
X149936000Y-104165000D01*
X158051700Y-103654800D02*
X158051700Y-104165000D01*
X157286600Y-102889700D02*
X158051700Y-103654800D01*
X152442600Y-102889700D02*
X157286600Y-102889700D01*
X151167300Y-104165000D02*
X152442600Y-102889700D01*
X149936000Y-104165000D02*
X151167300Y-104165000D01*
X159283000Y-104165000D02*
X158051700Y-104165000D01*
X173376700Y-96833800D02*
X175780700Y-99237800D01*
X160309100Y-96833800D02*
X173376700Y-96833800D01*
X159505300Y-97637600D02*
X160309100Y-96833800D01*
X158674000Y-97637600D02*
X159505300Y-97637600D01*
X176962000Y-99237800D02*
X175780700Y-99237800D01*
X158305000Y-99137900D02*
X158674000Y-98768900D01*
X151536300Y-99137900D02*
X158305000Y-99137900D01*
X150825000Y-98426600D02*
X151536300Y-99137900D01*
X150825000Y-97646400D02*
X150825000Y-98426600D01*
X150028400Y-96849800D02*
X150825000Y-97646400D01*
X147306700Y-96849800D02*
X150028400Y-96849800D01*
X143394200Y-92937300D02*
X147306700Y-96849800D01*
X139805100Y-92937300D02*
X143394200Y-92937300D01*
X139061600Y-93680800D02*
X139805100Y-92937300D01*
X139061600Y-98186700D02*
X139061600Y-93680800D01*
X139973000Y-99098100D02*
X139061600Y-98186700D01*
X158674000Y-97637600D02*
X158674000Y-98768900D01*
X175171700Y-103703300D02*
X175171700Y-104165000D01*
X172003300Y-100534900D02*
X175171700Y-103703300D01*
X165126700Y-100534900D02*
X172003300Y-100534900D01*
X162585000Y-97993200D02*
X165126700Y-100534900D01*
X176403000Y-104165000D02*
X175171700Y-104165000D01*
X173863000Y-104165000D02*
X172631700Y-104165000D01*
X172631700Y-103654800D02*
X172631700Y-104165000D01*
X170221200Y-101244300D02*
X172631700Y-103654800D01*
X152806100Y-101244300D02*
X170221200Y-101244300D01*
X149555000Y-97993200D02*
X152806100Y-101244300D01*
X171323000Y-104165000D02*
X170091700Y-104165000D01*
X167679300Y-101752600D02*
X170091700Y-104165000D01*
X147853800Y-101752600D02*
X167679300Y-101752600D01*
X140259000Y-94157800D02*
X147853800Y-101752600D01*
X144895500Y-83997800D02*
X157404000Y-96506300D01*
X140259000Y-83997800D02*
X144895500Y-83997800D01*
X157404000Y-97637600D02*
X157404000Y-96506300D01*
G36*
X135097233Y-83369736D02*
X134988000Y-83918887D01*
X134988000Y-83975113D01*
X135097233Y-84524264D01*
X135408302Y-84989811D01*
X135873849Y-85300880D01*
X136423000Y-85410113D01*
X136972151Y-85300880D01*
X137437698Y-84989811D01*
X137748767Y-84524264D01*
X137858000Y-83975113D01*
X137858000Y-83918887D01*
X137748767Y-83369736D01*
X137594073Y-83138220D01*
X139121871Y-83138220D01*
X138933233Y-83420536D01*
X138824000Y-83969687D01*
X138824000Y-84025913D01*
X138933233Y-84575064D01*
X139244302Y-85040611D01*
X139709849Y-85351680D01*
X140259000Y-85460913D01*
X140808151Y-85351680D01*
X141273698Y-85040611D01*
X141461330Y-84759800D01*
X144579870Y-84759800D01*
X151477046Y-91656977D01*
X151304697Y-91728190D01*
X150911371Y-92120830D01*
X150825051Y-92328712D01*
X150740010Y-92122897D01*
X150347370Y-91729571D01*
X149834100Y-91516443D01*
X149278339Y-91515958D01*
X148764697Y-91728190D01*
X148371371Y-92120830D01*
X148158243Y-92634100D01*
X148157758Y-93189861D01*
X148369990Y-93703503D01*
X148762630Y-94096829D01*
X148954727Y-94176595D01*
X148823857Y-94230803D01*
X148754392Y-94472987D01*
X149555000Y-95273595D01*
X150355608Y-94472987D01*
X150286143Y-94230803D01*
X150145682Y-94180691D01*
X150345303Y-94098210D01*
X150738629Y-93705570D01*
X150824949Y-93497688D01*
X150909990Y-93703503D01*
X151302630Y-94096829D01*
X151510512Y-94183149D01*
X151304697Y-94268190D01*
X150911371Y-94660830D01*
X150831605Y-94852927D01*
X150777397Y-94722057D01*
X150535213Y-94652592D01*
X149734605Y-95453200D01*
X149748748Y-95467343D01*
X149569143Y-95646948D01*
X149555000Y-95632805D01*
X149540858Y-95646948D01*
X149361253Y-95467343D01*
X149375395Y-95453200D01*
X148574787Y-94652592D01*
X148332603Y-94722057D01*
X148145856Y-95245502D01*
X148173638Y-95800568D01*
X148292614Y-96087800D01*
X147622331Y-96087800D01*
X143933015Y-92398485D01*
X143933014Y-92398484D01*
X143685805Y-92233304D01*
X143394200Y-92175300D01*
X139805100Y-92175300D01*
X139513495Y-92233304D01*
X139414477Y-92299466D01*
X139266285Y-92398484D01*
X138522785Y-93141985D01*
X138357604Y-93389195D01*
X138299600Y-93680800D01*
X138299600Y-97600660D01*
X137373000Y-97600660D01*
X137137683Y-97644938D01*
X136921559Y-97784010D01*
X136776569Y-97996210D01*
X136725560Y-98248100D01*
X136725560Y-99948100D01*
X136769838Y-100183417D01*
X136908910Y-100399541D01*
X137121110Y-100544531D01*
X137373000Y-100595540D01*
X138573000Y-100595540D01*
X138705229Y-100570659D01*
X141607085Y-103472515D01*
X141854295Y-103637696D01*
X142145900Y-103695700D01*
X146007304Y-103695700D01*
X145954514Y-103808108D01*
X146075181Y-104038000D01*
X147269000Y-104038000D01*
X147269000Y-104018000D01*
X147523000Y-104018000D01*
X147523000Y-104038000D01*
X147543000Y-104038000D01*
X147543000Y-104292000D01*
X147523000Y-104292000D01*
X147523000Y-104312000D01*
X147269000Y-104312000D01*
X147269000Y-104292000D01*
X146075181Y-104292000D01*
X145954514Y-104521892D01*
X146200817Y-105046358D01*
X146613775Y-105422701D01*
X134530099Y-105422701D01*
X134530099Y-94391187D01*
X134987752Y-94391187D01*
X135205757Y-94918800D01*
X135609077Y-95322824D01*
X136136309Y-95541750D01*
X136707187Y-95542248D01*
X137234800Y-95324243D01*
X137638824Y-94920923D01*
X137857750Y-94393691D01*
X137858248Y-93822813D01*
X137640243Y-93295200D01*
X137236923Y-92891176D01*
X136709691Y-92672250D01*
X136138813Y-92671752D01*
X135611200Y-92889757D01*
X135207176Y-93293077D01*
X134988250Y-93820309D01*
X134987752Y-94391187D01*
X134530099Y-94391187D01*
X134530099Y-88684799D01*
X142257699Y-88684799D01*
X142521281Y-89322715D01*
X143008918Y-89811204D01*
X143646373Y-90075899D01*
X144336599Y-90076501D01*
X144974515Y-89812919D01*
X145463004Y-89325282D01*
X145727699Y-88687827D01*
X145728301Y-87997601D01*
X145464719Y-87359685D01*
X144977082Y-86871196D01*
X144339627Y-86606501D01*
X143649401Y-86605899D01*
X143011485Y-86869481D01*
X142522996Y-87357118D01*
X142258301Y-87994573D01*
X142257699Y-88684799D01*
X134530099Y-88684799D01*
X134530099Y-83138220D01*
X135251927Y-83138220D01*
X135097233Y-83369736D01*
X135097233Y-83369736D01*
G37*
X135097233Y-83369736D02*
X134988000Y-83918887D01*
X134988000Y-83975113D01*
X135097233Y-84524264D01*
X135408302Y-84989811D01*
X135873849Y-85300880D01*
X136423000Y-85410113D01*
X136972151Y-85300880D01*
X137437698Y-84989811D01*
X137748767Y-84524264D01*
X137858000Y-83975113D01*
X137858000Y-83918887D01*
X137748767Y-83369736D01*
X137594073Y-83138220D01*
X139121871Y-83138220D01*
X138933233Y-83420536D01*
X138824000Y-83969687D01*
X138824000Y-84025913D01*
X138933233Y-84575064D01*
X139244302Y-85040611D01*
X139709849Y-85351680D01*
X140259000Y-85460913D01*
X140808151Y-85351680D01*
X141273698Y-85040611D01*
X141461330Y-84759800D01*
X144579870Y-84759800D01*
X151477046Y-91656977D01*
X151304697Y-91728190D01*
X150911371Y-92120830D01*
X150825051Y-92328712D01*
X150740010Y-92122897D01*
X150347370Y-91729571D01*
X149834100Y-91516443D01*
X149278339Y-91515958D01*
X148764697Y-91728190D01*
X148371371Y-92120830D01*
X148158243Y-92634100D01*
X148157758Y-93189861D01*
X148369990Y-93703503D01*
X148762630Y-94096829D01*
X148954727Y-94176595D01*
X148823857Y-94230803D01*
X148754392Y-94472987D01*
X149555000Y-95273595D01*
X150355608Y-94472987D01*
X150286143Y-94230803D01*
X150145682Y-94180691D01*
X150345303Y-94098210D01*
X150738629Y-93705570D01*
X150824949Y-93497688D01*
X150909990Y-93703503D01*
X151302630Y-94096829D01*
X151510512Y-94183149D01*
X151304697Y-94268190D01*
X150911371Y-94660830D01*
X150831605Y-94852927D01*
X150777397Y-94722057D01*
X150535213Y-94652592D01*
X149734605Y-95453200D01*
X149748748Y-95467343D01*
X149569143Y-95646948D01*
X149555000Y-95632805D01*
X149540858Y-95646948D01*
X149361253Y-95467343D01*
X149375395Y-95453200D01*
X148574787Y-94652592D01*
X148332603Y-94722057D01*
X148145856Y-95245502D01*
X148173638Y-95800568D01*
X148292614Y-96087800D01*
X147622331Y-96087800D01*
X143933015Y-92398485D01*
X143933014Y-92398484D01*
X143685805Y-92233304D01*
X143394200Y-92175300D01*
X139805100Y-92175300D01*
X139513495Y-92233304D01*
X139414477Y-92299466D01*
X139266285Y-92398484D01*
X138522785Y-93141985D01*
X138357604Y-93389195D01*
X138299600Y-93680800D01*
X138299600Y-97600660D01*
X137373000Y-97600660D01*
X137137683Y-97644938D01*
X136921559Y-97784010D01*
X136776569Y-97996210D01*
X136725560Y-98248100D01*
X136725560Y-99948100D01*
X136769838Y-100183417D01*
X136908910Y-100399541D01*
X137121110Y-100544531D01*
X137373000Y-100595540D01*
X138573000Y-100595540D01*
X138705229Y-100570659D01*
X141607085Y-103472515D01*
X141854295Y-103637696D01*
X142145900Y-103695700D01*
X146007304Y-103695700D01*
X145954514Y-103808108D01*
X146075181Y-104038000D01*
X147269000Y-104038000D01*
X147269000Y-104018000D01*
X147523000Y-104018000D01*
X147523000Y-104038000D01*
X147543000Y-104038000D01*
X147543000Y-104292000D01*
X147523000Y-104292000D01*
X147523000Y-104312000D01*
X147269000Y-104312000D01*
X147269000Y-104292000D01*
X146075181Y-104292000D01*
X145954514Y-104521892D01*
X146200817Y-105046358D01*
X146613775Y-105422701D01*
X134530099Y-105422701D01*
X134530099Y-94391187D01*
X134987752Y-94391187D01*
X135205757Y-94918800D01*
X135609077Y-95322824D01*
X136136309Y-95541750D01*
X136707187Y-95542248D01*
X137234800Y-95324243D01*
X137638824Y-94920923D01*
X137857750Y-94393691D01*
X137858248Y-93822813D01*
X137640243Y-93295200D01*
X137236923Y-92891176D01*
X136709691Y-92672250D01*
X136138813Y-92671752D01*
X135611200Y-92889757D01*
X135207176Y-93293077D01*
X134988250Y-93820309D01*
X134987752Y-94391187D01*
X134530099Y-94391187D01*
X134530099Y-88684799D01*
X142257699Y-88684799D01*
X142521281Y-89322715D01*
X143008918Y-89811204D01*
X143646373Y-90075899D01*
X144336599Y-90076501D01*
X144974515Y-89812919D01*
X145463004Y-89325282D01*
X145727699Y-88687827D01*
X145728301Y-87997601D01*
X145464719Y-87359685D01*
X144977082Y-86871196D01*
X144339627Y-86606501D01*
X143649401Y-86605899D01*
X143011485Y-86869481D01*
X142522996Y-87357118D01*
X142258301Y-87994573D01*
X142257699Y-88684799D01*
X134530099Y-88684799D01*
X134530099Y-83138220D01*
X135251927Y-83138220D01*
X135097233Y-83369736D01*
G36*
X178562626Y-86159794D02*
X178556083Y-87174901D01*
X178529214Y-87139588D01*
X178460765Y-87079066D01*
X178400803Y-87010129D01*
X178173698Y-86834393D01*
X178091918Y-86793649D01*
X178016153Y-86742578D01*
X177751304Y-86631610D01*
X177661761Y-86613420D01*
X177575363Y-86583700D01*
X177290816Y-86545062D01*
X177273331Y-86546137D01*
X177265416Y-86545062D01*
X177187712Y-86549838D01*
X177108474Y-86544321D01*
X177099504Y-86545465D01*
X177083074Y-86544321D01*
X176798224Y-86580645D01*
X176711585Y-86609663D01*
X176621903Y-86627123D01*
X176356159Y-86735934D01*
X176279985Y-86786385D01*
X176197873Y-86826464D01*
X175969347Y-87000347D01*
X175908824Y-87068797D01*
X175839887Y-87128759D01*
X175664152Y-87355864D01*
X175623408Y-87437645D01*
X175572338Y-87513408D01*
X175461370Y-87778257D01*
X175443181Y-87867795D01*
X175413460Y-87954195D01*
X175374821Y-88238741D01*
X175380426Y-88329940D01*
X175374080Y-88421086D01*
X175410404Y-88705937D01*
X175439422Y-88792578D01*
X175456882Y-88882258D01*
X175565693Y-89148002D01*
X175616144Y-89224177D01*
X175656223Y-89306288D01*
X175830106Y-89534814D01*
X175898555Y-89595336D01*
X175958518Y-89664274D01*
X176185624Y-89840010D01*
X176267404Y-89880753D01*
X176343166Y-89931823D01*
X176608016Y-90042791D01*
X176697554Y-90060980D01*
X176783954Y-90090701D01*
X177068500Y-90129340D01*
X177085986Y-90128265D01*
X177093900Y-90129340D01*
X177171607Y-90124564D01*
X177250845Y-90130081D01*
X177259816Y-90128937D01*
X177276245Y-90130081D01*
X177561096Y-90093757D01*
X177647737Y-90064739D01*
X177737417Y-90047279D01*
X178003161Y-89938468D01*
X178079336Y-89888017D01*
X178161447Y-89847938D01*
X178389973Y-89674055D01*
X178450495Y-89605606D01*
X178519433Y-89545643D01*
X178540983Y-89517794D01*
X178502674Y-95461586D01*
X178479749Y-95427277D01*
X178439338Y-95345332D01*
X178312203Y-95179646D01*
X178243508Y-95119402D01*
X178183266Y-95050709D01*
X178017581Y-94923573D01*
X177935629Y-94883159D01*
X177859663Y-94832400D01*
X177666718Y-94752480D01*
X177577106Y-94734655D01*
X177490587Y-94705286D01*
X177283532Y-94678027D01*
X177266574Y-94679138D01*
X177258132Y-94678027D01*
X177179660Y-94683170D01*
X177101189Y-94678027D01*
X177092747Y-94679138D01*
X177075789Y-94678027D01*
X176868733Y-94705286D01*
X176782214Y-94734655D01*
X176692602Y-94752480D01*
X176499657Y-94832400D01*
X176423689Y-94883160D01*
X176341741Y-94923572D01*
X176176055Y-95050707D01*
X176115809Y-95119404D01*
X176047115Y-95179648D01*
X175919981Y-95345334D01*
X175879572Y-95427276D01*
X175828811Y-95503245D01*
X175748890Y-95696190D01*
X175731064Y-95785805D01*
X175701695Y-95872324D01*
X175674436Y-96079379D01*
X175680412Y-96170551D01*
X175674436Y-96261723D01*
X175701695Y-96468778D01*
X175731064Y-96555297D01*
X175748890Y-96644912D01*
X175828811Y-96837857D01*
X175879572Y-96913826D01*
X175919982Y-96995770D01*
X176047116Y-97161455D01*
X176115812Y-97221700D01*
X176176055Y-97290394D01*
X176341741Y-97417529D01*
X176423689Y-97457941D01*
X176499657Y-97508701D01*
X176692602Y-97588621D01*
X176782209Y-97606445D01*
X176868730Y-97635815D01*
X177075785Y-97663075D01*
X177092743Y-97661964D01*
X177101185Y-97663075D01*
X177179660Y-97657932D01*
X177258135Y-97663075D01*
X177266577Y-97661964D01*
X177283535Y-97663075D01*
X177490590Y-97635815D01*
X177577111Y-97606445D01*
X177666718Y-97588621D01*
X177859663Y-97508701D01*
X177935629Y-97457942D01*
X178017581Y-97417528D01*
X178183266Y-97290392D01*
X178243506Y-97221701D01*
X178312202Y-97161457D01*
X178439337Y-96995771D01*
X178479748Y-96913826D01*
X178493446Y-96893326D01*
X178464936Y-101316698D01*
X178465369Y-101318949D01*
X178464921Y-101321200D01*
X178464921Y-105422701D01*
X177742970Y-105422701D01*
X177849431Y-105266890D01*
X177900440Y-105015000D01*
X177900440Y-103315000D01*
X177856162Y-103079683D01*
X177717090Y-102863559D01*
X177504890Y-102718569D01*
X177253000Y-102667560D01*
X175553000Y-102667560D01*
X175317683Y-102711838D01*
X175281288Y-102735257D01*
X172542115Y-99996085D01*
X172294905Y-99830904D01*
X172003300Y-99772900D01*
X170789440Y-99772900D01*
X170789440Y-98437800D01*
X170745162Y-98202483D01*
X170606090Y-97986359D01*
X170393890Y-97841369D01*
X170142000Y-97790360D01*
X168542000Y-97790360D01*
X168306683Y-97834638D01*
X168090559Y-97973710D01*
X167945569Y-98185910D01*
X167894560Y-98437800D01*
X167894560Y-99772900D01*
X165442331Y-99772900D01*
X165059574Y-99390143D01*
X165401661Y-99390442D01*
X165915303Y-99178210D01*
X166308629Y-98785570D01*
X166521757Y-98272300D01*
X166522242Y-97716539D01*
X166472354Y-97595800D01*
X173061070Y-97595800D01*
X175241884Y-99776615D01*
X175426392Y-99899899D01*
X175489095Y-99941796D01*
X175745688Y-99992836D01*
X175919189Y-100252498D01*
X176384736Y-100563567D01*
X176933887Y-100672800D01*
X176990113Y-100672800D01*
X177539264Y-100563567D01*
X178004811Y-100252498D01*
X178315880Y-99786951D01*
X178425113Y-99237800D01*
X178315880Y-98688649D01*
X178004811Y-98223102D01*
X177539264Y-97912033D01*
X176990113Y-97802800D01*
X176933887Y-97802800D01*
X176384736Y-97912033D01*
X175919189Y-98223102D01*
X175888925Y-98268395D01*
X174408558Y-96788028D01*
X174426371Y-96780668D01*
X174858551Y-96349243D01*
X175092733Y-95785270D01*
X175093265Y-95174609D01*
X174860068Y-94610229D01*
X174428643Y-94178049D01*
X173864670Y-93943867D01*
X173254009Y-93943335D01*
X172689629Y-94176532D01*
X172512159Y-94353692D01*
X172456327Y-94218901D01*
X172277698Y-94040273D01*
X172044309Y-93943600D01*
X171303750Y-93943600D01*
X171145000Y-94102350D01*
X171145000Y-95351600D01*
X171165000Y-95351600D01*
X171165000Y-95605600D01*
X171145000Y-95605600D01*
X171145000Y-95625600D01*
X170891000Y-95625600D01*
X170891000Y-95605600D01*
X169641750Y-95605600D01*
X169483000Y-95764350D01*
X169483000Y-96071800D01*
X166380784Y-96071800D01*
X166521757Y-95732300D01*
X166522242Y-95176539D01*
X166310010Y-94662897D01*
X166099771Y-94452290D01*
X169483000Y-94452290D01*
X169483000Y-95192850D01*
X169641750Y-95351600D01*
X170891000Y-95351600D01*
X170891000Y-94102350D01*
X170732250Y-93943600D01*
X169991691Y-93943600D01*
X169758302Y-94040273D01*
X169579673Y-94218901D01*
X169483000Y-94452290D01*
X166099771Y-94452290D01*
X165917370Y-94269571D01*
X165709488Y-94183251D01*
X165915303Y-94098210D01*
X166308629Y-93705570D01*
X166521757Y-93192300D01*
X166522242Y-92636539D01*
X166310010Y-92122897D01*
X165917370Y-91729571D01*
X165404100Y-91516443D01*
X164848339Y-91515958D01*
X164334697Y-91728190D01*
X163941371Y-92120830D01*
X163855051Y-92328712D01*
X163770010Y-92122897D01*
X163377370Y-91729571D01*
X162864100Y-91516443D01*
X162308339Y-91515958D01*
X161794697Y-91728190D01*
X161401371Y-92120830D01*
X161188243Y-92634100D01*
X161187758Y-93189861D01*
X161399990Y-93703503D01*
X161792630Y-94096829D01*
X161984727Y-94176595D01*
X161853857Y-94230803D01*
X161784392Y-94472987D01*
X162585000Y-95273595D01*
X163385608Y-94472987D01*
X163316143Y-94230803D01*
X163175682Y-94180691D01*
X163375303Y-94098210D01*
X163768629Y-93705570D01*
X163854949Y-93497688D01*
X163939990Y-93703503D01*
X164332630Y-94096829D01*
X164540512Y-94183149D01*
X164334697Y-94268190D01*
X163941371Y-94660830D01*
X163861605Y-94852927D01*
X163807397Y-94722057D01*
X163565213Y-94652592D01*
X162764605Y-95453200D01*
X162778748Y-95467343D01*
X162599143Y-95646948D01*
X162585000Y-95632805D01*
X162570858Y-95646948D01*
X162391253Y-95467343D01*
X162405395Y-95453200D01*
X161604787Y-94652592D01*
X161362603Y-94722057D01*
X161175856Y-95245502D01*
X161203638Y-95800568D01*
X161315986Y-96071800D01*
X160309100Y-96071800D01*
X160017495Y-96129804D01*
X159818404Y-96262833D01*
X159770285Y-96294985D01*
X159473577Y-96591693D01*
X159441211Y-96543255D01*
X159089212Y-96308057D01*
X158674000Y-96225466D01*
X158258788Y-96308057D01*
X158142079Y-96386040D01*
X158107996Y-96214695D01*
X158083495Y-96178027D01*
X157942815Y-95967484D01*
X151920313Y-89944982D01*
X169284338Y-89944982D01*
X169290739Y-90036124D01*
X169285189Y-90127325D01*
X169313415Y-90334250D01*
X169343188Y-90420630D01*
X169361431Y-90510159D01*
X169442251Y-90702728D01*
X169493367Y-90778460D01*
X169534160Y-90860216D01*
X169662067Y-91025307D01*
X169731045Y-91085231D01*
X169791605Y-91153640D01*
X169957882Y-91280000D01*
X170040017Y-91320029D01*
X170116221Y-91370434D01*
X170309536Y-91449453D01*
X170399233Y-91466860D01*
X170485889Y-91495825D01*
X170693069Y-91522118D01*
X170709420Y-91520970D01*
X170718469Y-91522118D01*
X170797825Y-91516544D01*
X170875412Y-91521266D01*
X170883248Y-91520197D01*
X170900812Y-91521266D01*
X171107737Y-91493040D01*
X171194119Y-91463267D01*
X171283645Y-91445024D01*
X171476215Y-91364204D01*
X171551946Y-91313089D01*
X171633704Y-91272295D01*
X171798795Y-91144388D01*
X171858719Y-91075410D01*
X171927128Y-91014850D01*
X172053488Y-90848573D01*
X172093516Y-90766441D01*
X172143924Y-90690231D01*
X172222942Y-90496915D01*
X172240349Y-90407217D01*
X172269312Y-90320566D01*
X172287150Y-90180011D01*
X172300768Y-90283453D01*
X172300752Y-90301787D01*
X172304318Y-90310417D01*
X172305160Y-90316814D01*
X172334529Y-90403334D01*
X172352355Y-90492949D01*
X172428186Y-90676020D01*
X172478946Y-90751988D01*
X172519357Y-90833933D01*
X172639986Y-90991140D01*
X172708681Y-91051384D01*
X172768925Y-91120079D01*
X172926132Y-91240708D01*
X173008077Y-91281119D01*
X173084045Y-91331879D01*
X173267116Y-91407710D01*
X173356732Y-91425536D01*
X173443251Y-91454905D01*
X173639709Y-91480769D01*
X173656667Y-91479658D01*
X173665109Y-91480769D01*
X173743581Y-91475626D01*
X173822052Y-91480769D01*
X173830494Y-91479658D01*
X173847452Y-91480769D01*
X174043912Y-91454905D01*
X174130432Y-91425536D01*
X174220047Y-91407710D01*
X174403118Y-91331879D01*
X174479088Y-91281117D01*
X174561033Y-91240706D01*
X174718239Y-91120077D01*
X174778481Y-91051384D01*
X174847176Y-90991140D01*
X174967805Y-90833933D01*
X175008216Y-90751988D01*
X175058976Y-90676020D01*
X175134807Y-90492949D01*
X175152633Y-90403333D01*
X175182002Y-90316814D01*
X175207866Y-90120356D01*
X175201890Y-90029184D01*
X175207866Y-89938013D01*
X175182002Y-89741553D01*
X175152633Y-89655033D01*
X175134807Y-89565418D01*
X175058976Y-89382347D01*
X175008214Y-89306377D01*
X174967803Y-89224432D01*
X174847174Y-89067226D01*
X174778481Y-89006984D01*
X174718239Y-88938291D01*
X174581324Y-88833232D01*
X174549923Y-88801776D01*
X174459763Y-88764338D01*
X174403118Y-88726489D01*
X174220047Y-88650658D01*
X174154675Y-88637654D01*
X174022691Y-88582850D01*
X173886435Y-88582731D01*
X173847452Y-88577599D01*
X173830494Y-88578710D01*
X173822052Y-88577599D01*
X173745625Y-88582608D01*
X173741481Y-88582605D01*
X173665109Y-88577599D01*
X173656667Y-88578710D01*
X173639709Y-88577599D01*
X173602607Y-88582484D01*
X173451813Y-88582352D01*
X173304494Y-88643223D01*
X173267116Y-88650658D01*
X173084045Y-88726489D01*
X173053371Y-88746985D01*
X172924200Y-88800357D01*
X172842854Y-88881562D01*
X172768925Y-88938289D01*
X172708681Y-89006984D01*
X172639988Y-89067226D01*
X172584742Y-89139223D01*
X172520176Y-89203677D01*
X172475206Y-89311977D01*
X172428186Y-89382347D01*
X172352355Y-89565418D01*
X172336159Y-89646838D01*
X172301250Y-89730909D01*
X172301215Y-89771522D01*
X172287354Y-89876804D01*
X172266528Y-89724121D01*
X172236755Y-89637739D01*
X172218511Y-89548208D01*
X172137690Y-89355637D01*
X172086574Y-89279905D01*
X172045782Y-89198151D01*
X171917875Y-89033061D01*
X171848904Y-88973142D01*
X171788338Y-88904727D01*
X171622060Y-88778367D01*
X171539930Y-88738340D01*
X171463719Y-88687931D01*
X171270402Y-88608913D01*
X171180706Y-88591507D01*
X171094054Y-88562543D01*
X170886873Y-88536251D01*
X170870522Y-88537399D01*
X170861473Y-88536251D01*
X170782122Y-88541824D01*
X170704534Y-88537102D01*
X170696698Y-88538171D01*
X170679134Y-88537102D01*
X170472208Y-88565327D01*
X170385826Y-88595100D01*
X170296293Y-88613344D01*
X170103724Y-88694165D01*
X170027992Y-88745281D01*
X169946239Y-88786073D01*
X169781149Y-88913980D01*
X169721230Y-88982951D01*
X169652815Y-89043517D01*
X169526455Y-89209795D01*
X169486427Y-89291927D01*
X169436020Y-89368134D01*
X169357002Y-89561450D01*
X169339596Y-89651144D01*
X169310630Y-89737801D01*
X169284338Y-89944982D01*
X151920313Y-89944982D01*
X148707188Y-86731857D01*
X170655046Y-86731857D01*
X170662060Y-86822955D01*
X170657122Y-86914186D01*
X170690438Y-87146759D01*
X170720792Y-87232943D01*
X170739636Y-87322345D01*
X170832011Y-87538370D01*
X170883632Y-87613753D01*
X170924974Y-87695235D01*
X171070113Y-87879991D01*
X171139492Y-87939452D01*
X171200513Y-88007455D01*
X171388526Y-88148349D01*
X171470925Y-88187824D01*
X171547466Y-88237716D01*
X171765538Y-88325150D01*
X171855347Y-88341954D01*
X171942197Y-88370337D01*
X172175468Y-88398350D01*
X172190946Y-88397158D01*
X172200868Y-88398350D01*
X172281484Y-88392144D01*
X172357803Y-88396274D01*
X172364767Y-88395276D01*
X172383203Y-88396274D01*
X172615775Y-88362957D01*
X172701953Y-88332605D01*
X172791359Y-88313760D01*
X173007384Y-88221385D01*
X173082770Y-88169763D01*
X173164249Y-88128422D01*
X173349005Y-87983283D01*
X173408466Y-87913904D01*
X173476466Y-87852886D01*
X173617362Y-87664874D01*
X173656837Y-87582475D01*
X173706733Y-87505928D01*
X173794166Y-87287854D01*
X173810969Y-87198045D01*
X173839351Y-87111199D01*
X173867364Y-86877928D01*
X173860351Y-86786827D01*
X173865288Y-86695593D01*
X173831971Y-86463020D01*
X173801620Y-86376845D01*
X173782776Y-86287440D01*
X173690401Y-86071415D01*
X173638775Y-85996022D01*
X173597435Y-85914546D01*
X173452295Y-85729789D01*
X173382917Y-85670330D01*
X173321898Y-85602329D01*
X173133886Y-85461433D01*
X173051486Y-85421958D01*
X172974944Y-85372065D01*
X172756871Y-85284631D01*
X172667060Y-85267827D01*
X172580213Y-85239445D01*
X172346942Y-85211432D01*
X172331464Y-85212624D01*
X172321542Y-85211432D01*
X172240926Y-85217638D01*
X172164607Y-85213508D01*
X172157643Y-85214506D01*
X172139207Y-85213508D01*
X171906634Y-85246825D01*
X171820455Y-85277178D01*
X171731051Y-85296022D01*
X171515026Y-85388398D01*
X171439644Y-85440017D01*
X171358161Y-85481360D01*
X171173405Y-85626499D01*
X171113944Y-85695879D01*
X171045941Y-85756900D01*
X170905046Y-85944912D01*
X170865570Y-86027314D01*
X170815680Y-86103852D01*
X170728246Y-86321924D01*
X170711442Y-86411732D01*
X170683058Y-86498586D01*
X170655046Y-86731857D01*
X148707188Y-86731857D01*
X145434315Y-83458985D01*
X145376772Y-83420536D01*
X145187105Y-83293804D01*
X144895500Y-83235800D01*
X141461330Y-83235800D01*
X141396129Y-83138220D01*
X174412655Y-83138220D01*
X178562626Y-86159794D01*
X178562626Y-86159794D01*
G37*
X178562626Y-86159794D02*
X178556083Y-87174901D01*
X178529214Y-87139588D01*
X178460765Y-87079066D01*
X178400803Y-87010129D01*
X178173698Y-86834393D01*
X178091918Y-86793649D01*
X178016153Y-86742578D01*
X177751304Y-86631610D01*
X177661761Y-86613420D01*
X177575363Y-86583700D01*
X177290816Y-86545062D01*
X177273331Y-86546137D01*
X177265416Y-86545062D01*
X177187712Y-86549838D01*
X177108474Y-86544321D01*
X177099504Y-86545465D01*
X177083074Y-86544321D01*
X176798224Y-86580645D01*
X176711585Y-86609663D01*
X176621903Y-86627123D01*
X176356159Y-86735934D01*
X176279985Y-86786385D01*
X176197873Y-86826464D01*
X175969347Y-87000347D01*
X175908824Y-87068797D01*
X175839887Y-87128759D01*
X175664152Y-87355864D01*
X175623408Y-87437645D01*
X175572338Y-87513408D01*
X175461370Y-87778257D01*
X175443181Y-87867795D01*
X175413460Y-87954195D01*
X175374821Y-88238741D01*
X175380426Y-88329940D01*
X175374080Y-88421086D01*
X175410404Y-88705937D01*
X175439422Y-88792578D01*
X175456882Y-88882258D01*
X175565693Y-89148002D01*
X175616144Y-89224177D01*
X175656223Y-89306288D01*
X175830106Y-89534814D01*
X175898555Y-89595336D01*
X175958518Y-89664274D01*
X176185624Y-89840010D01*
X176267404Y-89880753D01*
X176343166Y-89931823D01*
X176608016Y-90042791D01*
X176697554Y-90060980D01*
X176783954Y-90090701D01*
X177068500Y-90129340D01*
X177085986Y-90128265D01*
X177093900Y-90129340D01*
X177171607Y-90124564D01*
X177250845Y-90130081D01*
X177259816Y-90128937D01*
X177276245Y-90130081D01*
X177561096Y-90093757D01*
X177647737Y-90064739D01*
X177737417Y-90047279D01*
X178003161Y-89938468D01*
X178079336Y-89888017D01*
X178161447Y-89847938D01*
X178389973Y-89674055D01*
X178450495Y-89605606D01*
X178519433Y-89545643D01*
X178540983Y-89517794D01*
X178502674Y-95461586D01*
X178479749Y-95427277D01*
X178439338Y-95345332D01*
X178312203Y-95179646D01*
X178243508Y-95119402D01*
X178183266Y-95050709D01*
X178017581Y-94923573D01*
X177935629Y-94883159D01*
X177859663Y-94832400D01*
X177666718Y-94752480D01*
X177577106Y-94734655D01*
X177490587Y-94705286D01*
X177283532Y-94678027D01*
X177266574Y-94679138D01*
X177258132Y-94678027D01*
X177179660Y-94683170D01*
X177101189Y-94678027D01*
X177092747Y-94679138D01*
X177075789Y-94678027D01*
X176868733Y-94705286D01*
X176782214Y-94734655D01*
X176692602Y-94752480D01*
X176499657Y-94832400D01*
X176423689Y-94883160D01*
X176341741Y-94923572D01*
X176176055Y-95050707D01*
X176115809Y-95119404D01*
X176047115Y-95179648D01*
X175919981Y-95345334D01*
X175879572Y-95427276D01*
X175828811Y-95503245D01*
X175748890Y-95696190D01*
X175731064Y-95785805D01*
X175701695Y-95872324D01*
X175674436Y-96079379D01*
X175680412Y-96170551D01*
X175674436Y-96261723D01*
X175701695Y-96468778D01*
X175731064Y-96555297D01*
X175748890Y-96644912D01*
X175828811Y-96837857D01*
X175879572Y-96913826D01*
X175919982Y-96995770D01*
X176047116Y-97161455D01*
X176115812Y-97221700D01*
X176176055Y-97290394D01*
X176341741Y-97417529D01*
X176423689Y-97457941D01*
X176499657Y-97508701D01*
X176692602Y-97588621D01*
X176782209Y-97606445D01*
X176868730Y-97635815D01*
X177075785Y-97663075D01*
X177092743Y-97661964D01*
X177101185Y-97663075D01*
X177179660Y-97657932D01*
X177258135Y-97663075D01*
X177266577Y-97661964D01*
X177283535Y-97663075D01*
X177490590Y-97635815D01*
X177577111Y-97606445D01*
X177666718Y-97588621D01*
X177859663Y-97508701D01*
X177935629Y-97457942D01*
X178017581Y-97417528D01*
X178183266Y-97290392D01*
X178243506Y-97221701D01*
X178312202Y-97161457D01*
X178439337Y-96995771D01*
X178479748Y-96913826D01*
X178493446Y-96893326D01*
X178464936Y-101316698D01*
X178465369Y-101318949D01*
X178464921Y-101321200D01*
X178464921Y-105422701D01*
X177742970Y-105422701D01*
X177849431Y-105266890D01*
X177900440Y-105015000D01*
X177900440Y-103315000D01*
X177856162Y-103079683D01*
X177717090Y-102863559D01*
X177504890Y-102718569D01*
X177253000Y-102667560D01*
X175553000Y-102667560D01*
X175317683Y-102711838D01*
X175281288Y-102735257D01*
X172542115Y-99996085D01*
X172294905Y-99830904D01*
X172003300Y-99772900D01*
X170789440Y-99772900D01*
X170789440Y-98437800D01*
X170745162Y-98202483D01*
X170606090Y-97986359D01*
X170393890Y-97841369D01*
X170142000Y-97790360D01*
X168542000Y-97790360D01*
X168306683Y-97834638D01*
X168090559Y-97973710D01*
X167945569Y-98185910D01*
X167894560Y-98437800D01*
X167894560Y-99772900D01*
X165442331Y-99772900D01*
X165059574Y-99390143D01*
X165401661Y-99390442D01*
X165915303Y-99178210D01*
X166308629Y-98785570D01*
X166521757Y-98272300D01*
X166522242Y-97716539D01*
X166472354Y-97595800D01*
X173061070Y-97595800D01*
X175241884Y-99776615D01*
X175426392Y-99899899D01*
X175489095Y-99941796D01*
X175745688Y-99992836D01*
X175919189Y-100252498D01*
X176384736Y-100563567D01*
X176933887Y-100672800D01*
X176990113Y-100672800D01*
X177539264Y-100563567D01*
X178004811Y-100252498D01*
X178315880Y-99786951D01*
X178425113Y-99237800D01*
X178315880Y-98688649D01*
X178004811Y-98223102D01*
X177539264Y-97912033D01*
X176990113Y-97802800D01*
X176933887Y-97802800D01*
X176384736Y-97912033D01*
X175919189Y-98223102D01*
X175888925Y-98268395D01*
X174408558Y-96788028D01*
X174426371Y-96780668D01*
X174858551Y-96349243D01*
X175092733Y-95785270D01*
X175093265Y-95174609D01*
X174860068Y-94610229D01*
X174428643Y-94178049D01*
X173864670Y-93943867D01*
X173254009Y-93943335D01*
X172689629Y-94176532D01*
X172512159Y-94353692D01*
X172456327Y-94218901D01*
X172277698Y-94040273D01*
X172044309Y-93943600D01*
X171303750Y-93943600D01*
X171145000Y-94102350D01*
X171145000Y-95351600D01*
X171165000Y-95351600D01*
X171165000Y-95605600D01*
X171145000Y-95605600D01*
X171145000Y-95625600D01*
X170891000Y-95625600D01*
X170891000Y-95605600D01*
X169641750Y-95605600D01*
X169483000Y-95764350D01*
X169483000Y-96071800D01*
X166380784Y-96071800D01*
X166521757Y-95732300D01*
X166522242Y-95176539D01*
X166310010Y-94662897D01*
X166099771Y-94452290D01*
X169483000Y-94452290D01*
X169483000Y-95192850D01*
X169641750Y-95351600D01*
X170891000Y-95351600D01*
X170891000Y-94102350D01*
X170732250Y-93943600D01*
X169991691Y-93943600D01*
X169758302Y-94040273D01*
X169579673Y-94218901D01*
X169483000Y-94452290D01*
X166099771Y-94452290D01*
X165917370Y-94269571D01*
X165709488Y-94183251D01*
X165915303Y-94098210D01*
X166308629Y-93705570D01*
X166521757Y-93192300D01*
X166522242Y-92636539D01*
X166310010Y-92122897D01*
X165917370Y-91729571D01*
X165404100Y-91516443D01*
X164848339Y-91515958D01*
X164334697Y-91728190D01*
X163941371Y-92120830D01*
X163855051Y-92328712D01*
X163770010Y-92122897D01*
X163377370Y-91729571D01*
X162864100Y-91516443D01*
X162308339Y-91515958D01*
X161794697Y-91728190D01*
X161401371Y-92120830D01*
X161188243Y-92634100D01*
X161187758Y-93189861D01*
X161399990Y-93703503D01*
X161792630Y-94096829D01*
X161984727Y-94176595D01*
X161853857Y-94230803D01*
X161784392Y-94472987D01*
X162585000Y-95273595D01*
X163385608Y-94472987D01*
X163316143Y-94230803D01*
X163175682Y-94180691D01*
X163375303Y-94098210D01*
X163768629Y-93705570D01*
X163854949Y-93497688D01*
X163939990Y-93703503D01*
X164332630Y-94096829D01*
X164540512Y-94183149D01*
X164334697Y-94268190D01*
X163941371Y-94660830D01*
X163861605Y-94852927D01*
X163807397Y-94722057D01*
X163565213Y-94652592D01*
X162764605Y-95453200D01*
X162778748Y-95467343D01*
X162599143Y-95646948D01*
X162585000Y-95632805D01*
X162570858Y-95646948D01*
X162391253Y-95467343D01*
X162405395Y-95453200D01*
X161604787Y-94652592D01*
X161362603Y-94722057D01*
X161175856Y-95245502D01*
X161203638Y-95800568D01*
X161315986Y-96071800D01*
X160309100Y-96071800D01*
X160017495Y-96129804D01*
X159818404Y-96262833D01*
X159770285Y-96294985D01*
X159473577Y-96591693D01*
X159441211Y-96543255D01*
X159089212Y-96308057D01*
X158674000Y-96225466D01*
X158258788Y-96308057D01*
X158142079Y-96386040D01*
X158107996Y-96214695D01*
X158083495Y-96178027D01*
X157942815Y-95967484D01*
X151920313Y-89944982D01*
X169284338Y-89944982D01*
X169290739Y-90036124D01*
X169285189Y-90127325D01*
X169313415Y-90334250D01*
X169343188Y-90420630D01*
X169361431Y-90510159D01*
X169442251Y-90702728D01*
X169493367Y-90778460D01*
X169534160Y-90860216D01*
X169662067Y-91025307D01*
X169731045Y-91085231D01*
X169791605Y-91153640D01*
X169957882Y-91280000D01*
X170040017Y-91320029D01*
X170116221Y-91370434D01*
X170309536Y-91449453D01*
X170399233Y-91466860D01*
X170485889Y-91495825D01*
X170693069Y-91522118D01*
X170709420Y-91520970D01*
X170718469Y-91522118D01*
X170797825Y-91516544D01*
X170875412Y-91521266D01*
X170883248Y-91520197D01*
X170900812Y-91521266D01*
X171107737Y-91493040D01*
X171194119Y-91463267D01*
X171283645Y-91445024D01*
X171476215Y-91364204D01*
X171551946Y-91313089D01*
X171633704Y-91272295D01*
X171798795Y-91144388D01*
X171858719Y-91075410D01*
X171927128Y-91014850D01*
X172053488Y-90848573D01*
X172093516Y-90766441D01*
X172143924Y-90690231D01*
X172222942Y-90496915D01*
X172240349Y-90407217D01*
X172269312Y-90320566D01*
X172287150Y-90180011D01*
X172300768Y-90283453D01*
X172300752Y-90301787D01*
X172304318Y-90310417D01*
X172305160Y-90316814D01*
X172334529Y-90403334D01*
X172352355Y-90492949D01*
X172428186Y-90676020D01*
X172478946Y-90751988D01*
X172519357Y-90833933D01*
X172639986Y-90991140D01*
X172708681Y-91051384D01*
X172768925Y-91120079D01*
X172926132Y-91240708D01*
X173008077Y-91281119D01*
X173084045Y-91331879D01*
X173267116Y-91407710D01*
X173356732Y-91425536D01*
X173443251Y-91454905D01*
X173639709Y-91480769D01*
X173656667Y-91479658D01*
X173665109Y-91480769D01*
X173743581Y-91475626D01*
X173822052Y-91480769D01*
X173830494Y-91479658D01*
X173847452Y-91480769D01*
X174043912Y-91454905D01*
X174130432Y-91425536D01*
X174220047Y-91407710D01*
X174403118Y-91331879D01*
X174479088Y-91281117D01*
X174561033Y-91240706D01*
X174718239Y-91120077D01*
X174778481Y-91051384D01*
X174847176Y-90991140D01*
X174967805Y-90833933D01*
X175008216Y-90751988D01*
X175058976Y-90676020D01*
X175134807Y-90492949D01*
X175152633Y-90403333D01*
X175182002Y-90316814D01*
X175207866Y-90120356D01*
X175201890Y-90029184D01*
X175207866Y-89938013D01*
X175182002Y-89741553D01*
X175152633Y-89655033D01*
X175134807Y-89565418D01*
X175058976Y-89382347D01*
X175008214Y-89306377D01*
X174967803Y-89224432D01*
X174847174Y-89067226D01*
X174778481Y-89006984D01*
X174718239Y-88938291D01*
X174581324Y-88833232D01*
X174549923Y-88801776D01*
X174459763Y-88764338D01*
X174403118Y-88726489D01*
X174220047Y-88650658D01*
X174154675Y-88637654D01*
X174022691Y-88582850D01*
X173886435Y-88582731D01*
X173847452Y-88577599D01*
X173830494Y-88578710D01*
X173822052Y-88577599D01*
X173745625Y-88582608D01*
X173741481Y-88582605D01*
X173665109Y-88577599D01*
X173656667Y-88578710D01*
X173639709Y-88577599D01*
X173602607Y-88582484D01*
X173451813Y-88582352D01*
X173304494Y-88643223D01*
X173267116Y-88650658D01*
X173084045Y-88726489D01*
X173053371Y-88746985D01*
X172924200Y-88800357D01*
X172842854Y-88881562D01*
X172768925Y-88938289D01*
X172708681Y-89006984D01*
X172639988Y-89067226D01*
X172584742Y-89139223D01*
X172520176Y-89203677D01*
X172475206Y-89311977D01*
X172428186Y-89382347D01*
X172352355Y-89565418D01*
X172336159Y-89646838D01*
X172301250Y-89730909D01*
X172301215Y-89771522D01*
X172287354Y-89876804D01*
X172266528Y-89724121D01*
X172236755Y-89637739D01*
X172218511Y-89548208D01*
X172137690Y-89355637D01*
X172086574Y-89279905D01*
X172045782Y-89198151D01*
X171917875Y-89033061D01*
X171848904Y-88973142D01*
X171788338Y-88904727D01*
X171622060Y-88778367D01*
X171539930Y-88738340D01*
X171463719Y-88687931D01*
X171270402Y-88608913D01*
X171180706Y-88591507D01*
X171094054Y-88562543D01*
X170886873Y-88536251D01*
X170870522Y-88537399D01*
X170861473Y-88536251D01*
X170782122Y-88541824D01*
X170704534Y-88537102D01*
X170696698Y-88538171D01*
X170679134Y-88537102D01*
X170472208Y-88565327D01*
X170385826Y-88595100D01*
X170296293Y-88613344D01*
X170103724Y-88694165D01*
X170027992Y-88745281D01*
X169946239Y-88786073D01*
X169781149Y-88913980D01*
X169721230Y-88982951D01*
X169652815Y-89043517D01*
X169526455Y-89209795D01*
X169486427Y-89291927D01*
X169436020Y-89368134D01*
X169357002Y-89561450D01*
X169339596Y-89651144D01*
X169310630Y-89737801D01*
X169284338Y-89944982D01*
X151920313Y-89944982D01*
X148707188Y-86731857D01*
X170655046Y-86731857D01*
X170662060Y-86822955D01*
X170657122Y-86914186D01*
X170690438Y-87146759D01*
X170720792Y-87232943D01*
X170739636Y-87322345D01*
X170832011Y-87538370D01*
X170883632Y-87613753D01*
X170924974Y-87695235D01*
X171070113Y-87879991D01*
X171139492Y-87939452D01*
X171200513Y-88007455D01*
X171388526Y-88148349D01*
X171470925Y-88187824D01*
X171547466Y-88237716D01*
X171765538Y-88325150D01*
X171855347Y-88341954D01*
X171942197Y-88370337D01*
X172175468Y-88398350D01*
X172190946Y-88397158D01*
X172200868Y-88398350D01*
X172281484Y-88392144D01*
X172357803Y-88396274D01*
X172364767Y-88395276D01*
X172383203Y-88396274D01*
X172615775Y-88362957D01*
X172701953Y-88332605D01*
X172791359Y-88313760D01*
X173007384Y-88221385D01*
X173082770Y-88169763D01*
X173164249Y-88128422D01*
X173349005Y-87983283D01*
X173408466Y-87913904D01*
X173476466Y-87852886D01*
X173617362Y-87664874D01*
X173656837Y-87582475D01*
X173706733Y-87505928D01*
X173794166Y-87287854D01*
X173810969Y-87198045D01*
X173839351Y-87111199D01*
X173867364Y-86877928D01*
X173860351Y-86786827D01*
X173865288Y-86695593D01*
X173831971Y-86463020D01*
X173801620Y-86376845D01*
X173782776Y-86287440D01*
X173690401Y-86071415D01*
X173638775Y-85996022D01*
X173597435Y-85914546D01*
X173452295Y-85729789D01*
X173382917Y-85670330D01*
X173321898Y-85602329D01*
X173133886Y-85461433D01*
X173051486Y-85421958D01*
X172974944Y-85372065D01*
X172756871Y-85284631D01*
X172667060Y-85267827D01*
X172580213Y-85239445D01*
X172346942Y-85211432D01*
X172331464Y-85212624D01*
X172321542Y-85211432D01*
X172240926Y-85217638D01*
X172164607Y-85213508D01*
X172157643Y-85214506D01*
X172139207Y-85213508D01*
X171906634Y-85246825D01*
X171820455Y-85277178D01*
X171731051Y-85296022D01*
X171515026Y-85388398D01*
X171439644Y-85440017D01*
X171358161Y-85481360D01*
X171173405Y-85626499D01*
X171113944Y-85695879D01*
X171045941Y-85756900D01*
X170905046Y-85944912D01*
X170865570Y-86027314D01*
X170815680Y-86103852D01*
X170728246Y-86321924D01*
X170711442Y-86411732D01*
X170683058Y-86498586D01*
X170655046Y-86731857D01*
X148707188Y-86731857D01*
X145434315Y-83458985D01*
X145376772Y-83420536D01*
X145187105Y-83293804D01*
X144895500Y-83235800D01*
X141461330Y-83235800D01*
X141396129Y-83138220D01*
X174412655Y-83138220D01*
X178562626Y-86159794D01*
G36*
X169552885Y-104703816D02*
X169640530Y-104762378D01*
X169800095Y-104868996D01*
X170056335Y-104919966D01*
X170272946Y-105244147D01*
X170540172Y-105422701D01*
X165702970Y-105422701D01*
X165809431Y-105266890D01*
X165860440Y-105015000D01*
X165860440Y-103315000D01*
X165816162Y-103079683D01*
X165677090Y-102863559D01*
X165464890Y-102718569D01*
X165213000Y-102667560D01*
X163513000Y-102667560D01*
X163277683Y-102711838D01*
X163061559Y-102850910D01*
X162916569Y-103063110D01*
X162894699Y-103171107D01*
X162589924Y-102893355D01*
X162179890Y-102723524D01*
X161950000Y-102844845D01*
X161950000Y-104038000D01*
X161970000Y-104038000D01*
X161970000Y-104292000D01*
X161950000Y-104292000D01*
X161950000Y-104312000D01*
X161696000Y-104312000D01*
X161696000Y-104292000D01*
X161676000Y-104292000D01*
X161676000Y-104038000D01*
X161696000Y-104038000D01*
X161696000Y-102844845D01*
X161466110Y-102723524D01*
X161056076Y-102893355D01*
X160627817Y-103283642D01*
X160566854Y-103413454D01*
X160549665Y-103410034D01*
X160333054Y-103085853D01*
X159851285Y-102763946D01*
X159283000Y-102650907D01*
X158714715Y-102763946D01*
X158429231Y-102954700D01*
X157989130Y-102514600D01*
X167363670Y-102514600D01*
X169552885Y-104703816D01*
X169552885Y-104703816D01*
G37*
X169552885Y-104703816D02*
X169640530Y-104762378D01*
X169800095Y-104868996D01*
X170056335Y-104919966D01*
X170272946Y-105244147D01*
X170540172Y-105422701D01*
X165702970Y-105422701D01*
X165809431Y-105266890D01*
X165860440Y-105015000D01*
X165860440Y-103315000D01*
X165816162Y-103079683D01*
X165677090Y-102863559D01*
X165464890Y-102718569D01*
X165213000Y-102667560D01*
X163513000Y-102667560D01*
X163277683Y-102711838D01*
X163061559Y-102850910D01*
X162916569Y-103063110D01*
X162894699Y-103171107D01*
X162589924Y-102893355D01*
X162179890Y-102723524D01*
X161950000Y-102844845D01*
X161950000Y-104038000D01*
X161970000Y-104038000D01*
X161970000Y-104292000D01*
X161950000Y-104292000D01*
X161950000Y-104312000D01*
X161696000Y-104312000D01*
X161696000Y-104292000D01*
X161676000Y-104292000D01*
X161676000Y-104038000D01*
X161696000Y-104038000D01*
X161696000Y-102844845D01*
X161466110Y-102723524D01*
X161056076Y-102893355D01*
X160627817Y-103283642D01*
X160566854Y-103413454D01*
X160549665Y-103410034D01*
X160333054Y-103085853D01*
X159851285Y-102763946D01*
X159283000Y-102650907D01*
X158714715Y-102763946D01*
X158429231Y-102954700D01*
X157989130Y-102514600D01*
X167363670Y-102514600D01*
X169552885Y-104703816D01*
G36*
X155301514Y-103808108D02*
X155422181Y-104038000D01*
X156616000Y-104038000D01*
X156616000Y-104018000D01*
X156870000Y-104018000D01*
X156870000Y-104038000D01*
X156890000Y-104038000D01*
X156890000Y-104292000D01*
X156870000Y-104292000D01*
X156870000Y-104312000D01*
X156616000Y-104312000D01*
X156616000Y-104292000D01*
X155422181Y-104292000D01*
X155301514Y-104521892D01*
X155547817Y-105046358D01*
X155960775Y-105422701D01*
X151275970Y-105422701D01*
X151382431Y-105266890D01*
X151433440Y-105015000D01*
X151433440Y-104874061D01*
X151458905Y-104868996D01*
X151706115Y-104703815D01*
X152758231Y-103651700D01*
X155374967Y-103651700D01*
X155301514Y-103808108D01*
X155301514Y-103808108D01*
G37*
X155301514Y-103808108D02*
X155422181Y-104038000D01*
X156616000Y-104038000D01*
X156616000Y-104018000D01*
X156870000Y-104018000D01*
X156870000Y-104038000D01*
X156890000Y-104038000D01*
X156890000Y-104292000D01*
X156870000Y-104292000D01*
X156870000Y-104312000D01*
X156616000Y-104312000D01*
X156616000Y-104292000D01*
X155422181Y-104292000D01*
X155301514Y-104521892D01*
X155547817Y-105046358D01*
X155960775Y-105422701D01*
X151275970Y-105422701D01*
X151382431Y-105266890D01*
X151433440Y-105015000D01*
X151433440Y-104874061D01*
X151458905Y-104868996D01*
X151706115Y-104703815D01*
X152758231Y-103651700D01*
X155374967Y-103651700D01*
X155301514Y-103808108D01*
G36*
X156072669Y-96252600D02*
X156006998Y-96252600D01*
X156006998Y-96411348D01*
X155848250Y-96252600D01*
X155557691Y-96252600D01*
X155324302Y-96349273D01*
X155145673Y-96527901D01*
X155049000Y-96761290D01*
X155049000Y-97351850D01*
X155207750Y-97510600D01*
X156007000Y-97510600D01*
X156007000Y-97490600D01*
X156261000Y-97490600D01*
X156261000Y-97510600D01*
X156281000Y-97510600D01*
X156281000Y-97764600D01*
X156261000Y-97764600D01*
X156261000Y-97784600D01*
X156007000Y-97784600D01*
X156007000Y-97764600D01*
X155207750Y-97764600D01*
X155049000Y-97923350D01*
X155049000Y-98375900D01*
X153448739Y-98375900D01*
X153491757Y-98272300D01*
X153492242Y-97716539D01*
X153280010Y-97202897D01*
X152887370Y-96809571D01*
X152679488Y-96723251D01*
X152885303Y-96638210D01*
X153278629Y-96245570D01*
X153491757Y-95732300D01*
X153492242Y-95176539D01*
X153280010Y-94662897D01*
X152887370Y-94269571D01*
X152679488Y-94183251D01*
X152885303Y-94098210D01*
X153278629Y-93705570D01*
X153351103Y-93531033D01*
X156072669Y-96252600D01*
X156072669Y-96252600D01*
G37*
X156072669Y-96252600D02*
X156006998Y-96252600D01*
X156006998Y-96411348D01*
X155848250Y-96252600D01*
X155557691Y-96252600D01*
X155324302Y-96349273D01*
X155145673Y-96527901D01*
X155049000Y-96761290D01*
X155049000Y-97351850D01*
X155207750Y-97510600D01*
X156007000Y-97510600D01*
X156007000Y-97490600D01*
X156261000Y-97490600D01*
X156261000Y-97510600D01*
X156281000Y-97510600D01*
X156281000Y-97764600D01*
X156261000Y-97764600D01*
X156261000Y-97784600D01*
X156007000Y-97784600D01*
X156007000Y-97764600D01*
X155207750Y-97764600D01*
X155049000Y-97923350D01*
X155049000Y-98375900D01*
X153448739Y-98375900D01*
X153491757Y-98272300D01*
X153492242Y-97716539D01*
X153280010Y-97202897D01*
X152887370Y-96809571D01*
X152679488Y-96723251D01*
X152885303Y-96638210D01*
X153278629Y-96245570D01*
X153491757Y-95732300D01*
X153492242Y-95176539D01*
X153280010Y-94662897D01*
X152887370Y-94269571D01*
X152679488Y-94183251D01*
X152885303Y-94098210D01*
X153278629Y-93705570D01*
X153351103Y-93531033D01*
X156072669Y-96252600D01*
M02*
