M48
;DRILL file {KiCad 4.0.7} date 12/06/17 15:51:00
;FORMAT={-:-/ absolute / inch / decimal}
FMAT,2
INCH,TZ
T1C0.024
T2C0.030
T3C0.030
T4C0.031
T5C0.035
T6C0.039
T7C0.063
T8C0.071
T9C0.087
%
G90
G05
M72
T1
X6.147Y-3.844
X6.197Y-3.844
X6.247Y-3.844
T2
X5.432Y-3.9015
X5.5107Y-3.9015
T3
X5.888Y-3.658
X5.888Y-3.758
X5.888Y-3.858
X5.988Y-3.658
X5.988Y-3.758
X5.988Y-3.858
X6.401Y-3.658
X6.401Y-3.758
X6.401Y-3.858
X6.501Y-3.658
X6.501Y-3.758
X6.501Y-3.858
T4
X5.371Y-3.305
X5.371Y-3.705
X5.522Y-3.307
X5.522Y-3.707
X6.667Y-3.907
X6.967Y-3.907
T5
X6.733Y-3.759
X6.833Y-3.759
T6
X5.803Y-4.101
X5.903Y-4.101
X6.171Y-4.101
X6.271Y-4.101
X6.371Y-4.101
X6.471Y-4.101
X6.745Y-4.101
X6.845Y-4.101
X6.945Y-4.101
T7
X5.669Y-3.786
X6.724Y-3.545
X6.84Y-3.544
X6.976Y-3.786
T8
X6.782Y-3.418
T9
X5.669Y-3.478
X6.976Y-3.478
T0
M30
